<svg width="98" height="88" viewBox="0 0 98 88" fill="none" xmlns="http://www.w3.org/2000/svg">
<path style="mix-blend-mode:multiply" opacity="0.85" d="M98 75.9285C98 69.5709 76.0617 64.4199 49.0006 64.4199C21.9394 64.4199 0 69.5709 0 75.9285C0 82.2841 21.9394 87.4351 49.0006 87.4351C76.0617 87.4351 98 82.2841 98 75.9285Z" fill="url(#paint0_radial_8_33986)"/>
<path d="M16.0199 32.7863C16.0199 32.7863 15.25 32.4379 15.25 33.3206L15.25 72.0932C15.25 73.2738 19.8632 74.0681 20.633 74.3237C23.397 75.2412 40.9259 80.2454 46.8386 82.0327C48.1618 82.4328 49.4397 82.6118 50.7654 83.0023L50.8178 40.8762L17.0383 32.3906L16.0199 32.7863Z" fill="url(#paint1_linear_8_33986)"/>
<path d="M83.8517 33.7559L83.4107 73.5348L50.7695 83.0036L50.7695 40.6755L83.8517 33.7559Z" fill="url(#paint2_linear_8_33986)"/>
<path opacity="0.6" d="M53.0352 42.3613L66.0915 46.6171L81.9534 35.127L66.847 48.9577L53.0352 42.3613Z" fill="#AA1F1F"/>
<path opacity="0.3" d="M67.279 65.1309L51.9492 82.5281L67.279 70.2376L82.17 73.9612L67.279 65.1309Z" fill="#5B0909"/>
<path style="mix-blend-mode:multiply" opacity="0.6" d="M76.3318 71.6177L73.3396 72.5024L72.1429 75.9016L70.5983 72.7841L67.4492 72.5182L69.6115 69.8375L68.9738 66.3906L71.8126 67.8066L74.544 65.918L74.0796 69.4153L76.3318 71.6177Z" fill="url(#paint3_linear_8_33986)"/>
<path d="M81.1873 32.3927C78.1693 31.6271 75.1301 30.9051 72.1176 30.1109C67.0041 28.763 61.8533 27.5634 56.7317 26.2601C52.7767 25.2536 49.3388 24.5754 45.331 25.5886C42.7155 26.2499 40.0403 26.7212 37.4035 27.2978C31.465 28.5964 25.5141 29.8456 19.5681 31.1112C18.1977 31.4028 16.8274 31.6951 15.457 31.9881L50.6805 41.1422L76.0202 35.0316L83.0308 33.5322L81.1873 32.3927Z" fill="#DD3636"/>
<path d="M83.7869 34.0625L62.4219 51.936L62.4219 67.0434L83.3579 73.7908L83.7869 34.0625Z" fill="#D33737"/>
<path d="M65.3224 57.1234C68.8615 55.2468 81.0998 49.1907 83.6367 47.9546L83.6997 42.1191C81.374 43.0627 67.7227 49.1857 66.2656 49.5697L62.4219 51.9342V58.5336C63.4015 58.0894 64.3728 57.6269 65.3224 57.1234Z" fill="url(#paint4_linear_8_33986)"/>
<path style="mix-blend-mode:multiply" opacity="0.6" d="M75.2671 67.134L72.021 65.5413L68.2697 67.4829L69.4722 63.6335L67.0195 60.9432L71.0097 60.3658L73.2458 56.9473L74.5094 60.3689L78.3434 60.9081L75.1337 63.5062L75.2671 67.134Z" fill="url(#paint5_linear_8_33986)"/>
<path opacity="0.4" d="M67.6009 47.3613C67.6009 47.3613 70.5144 48.2124 71.054 51.085C71.5935 53.9576 75.0462 65.6602 68.4643 69.1713L65.5508 67.7882L64.6875 50.1275L67.6009 47.3613Z" fill="#AA1F1F"/>
<path d="M50.4664 41.0371L72.9972 49.0667L73.2132 62.3651L51.8147 82.3297L50.4453 82.2602L50.4664 41.0371Z" fill="url(#paint6_linear_8_33986)"/>
<path style="mix-blend-mode:multiply" opacity="0.6" d="M61.9793 56.7434L58.4913 55.7653L55.166 58.3532L55.6309 54.3513L52.7188 52.1509L56.5335 50.8607L58.0948 47.0957L59.9744 50.2302L63.8437 50.0659L61.1724 53.2011L61.9793 56.7434Z" fill="url(#paint7_linear_8_33986)"/>
<path style="mix-blend-mode:multiply" opacity="0.3" d="M18.9857 47.4022L22.4734 46.3502L25.7992 49.134L25.3339 44.8295L28.2462 42.4628L24.4313 41.075L22.87 37.0254L20.9906 40.3967L17.1211 40.2201L19.7926 43.5924L18.9857 47.4022Z" fill="url(#paint8_linear_8_33986)"/>
<path style="mix-blend-mode:multiply" opacity="0.6" d="M68.8168 62.4879L66.6164 63.0218L65.6236 65.4425L64.6196 63.1276L62.3477 62.8219L64.0135 60.9566L63.6784 58.4355L65.6833 59.5636L67.7321 58.293L67.2669 60.8108L68.8168 62.4879Z" fill="url(#paint9_linear_8_33986)"/>
<path style="mix-blend-mode:multiply" opacity="0.3" d="M18.7852 68.8017L21.3878 69.433L22.5613 72.295L23.7488 69.5579L26.4357 69.1967L24.4657 66.991L24.8618 64.0106L22.4908 65.3441L20.068 63.8418L20.6185 66.8187L18.7852 68.8017Z" fill="url(#paint10_linear_8_33986)"/>
<path style="mix-blend-mode:multiply" opacity="0.6" d="M39.2734 57.118L41.0789 58.5411L40.9249 61.1815L42.8848 59.4853L45.1296 60.169L44.412 57.7521L45.8425 55.5832L43.4807 55.7666L42.1435 53.7324L41.4571 56.2383L39.2734 57.118Z" fill="url(#paint11_linear_8_33986)"/>
<path style="mix-blend-mode:multiply" opacity="0.6" d="M39.0703 70.9285L41.6727 71.5597L42.8466 74.422L44.0338 71.6848L46.7207 71.3234L44.7511 69.1179L45.1469 66.1374L42.7759 67.4711L40.3532 65.9688L40.9037 68.9457L39.0703 70.9285Z" fill="url(#paint12_linear_8_33986)"/>
<path style="mix-blend-mode:multiply" opacity="0.6" d="M32.7734 48.7805L36.6333 49.7168L38.3747 53.9622L40.1356 49.9024L44.121 49.3663L41.1992 46.0951L41.7868 41.6739L38.27 43.6526L34.6762 41.4238L35.4927 45.8396L32.7734 48.7805Z" fill="url(#paint13_linear_8_33986)"/>
<path style="mix-blend-mode:multiply" opacity="0.4" d="M26.3963 62.1808L30.0579 61.9165L32.8164 65.1555L33.1878 61.0939L36.5329 59.5016L33.0194 57.4507L32.2553 53.4023L29.7392 56.1297L25.9375 55.1837L27.933 58.8323L26.3963 62.1808Z" fill="url(#paint14_linear_8_33986)"/>
<path style="mix-blend-mode:multiply" opacity="0.6" d="M75.4111 52.4801L73.2104 53.014L72.2174 55.4349L71.2137 53.1198L68.9414 52.8141L70.6074 50.9488L70.2724 48.4278L72.2773 49.556L74.3262 48.2852L73.8608 50.8032L75.4111 52.4801Z" fill="url(#paint15_linear_8_33986)"/>
<path style="mix-blend-mode:multiply" opacity="0.6" d="M68.649 41.6988L66.4485 42.2327L65.4557 44.6536L64.4517 42.3386L62.1797 42.0327L63.8453 40.1677L63.5107 37.6464L65.5154 38.7747L67.5642 37.5039L67.0987 40.0217L68.649 41.6988Z" fill="url(#paint16_linear_8_33986)"/>
<path d="M46.6681 41.6152C46.6681 41.6152 49.2579 43.2111 48.8263 48.9562C48.3946 54.7012 50.0673 82.5751 46.3984 81.9368L49.3659 82.7882L50.3369 46.4028C50.3369 46.4028 50.9844 42.2536 46.6681 41.6152Z" fill="#FF4A4A"/>
<path d="M65.7658 49.1309C65.4767 49.1255 65.197 49.0282 64.9681 48.8535C60.0368 50.8996 55.0528 52.8168 50.0159 54.6052C49.9937 58.0076 49.893 61.7874 49.7617 65.4403C55.4889 62.5065 61.2057 59.5685 67.0541 56.8714C68.1506 56.3659 69.2499 55.8663 70.3518 55.3727C70.0926 52.4291 69.1462 49.2635 65.7658 49.1309Z" fill="url(#paint17_linear_8_33986)"/>
<path d="M54.1457 41.0162C62.2864 37.5603 83.8951 34.5971 83.8951 34.5971C84.2189 32.4692 79.7947 32.1501 79.7947 32.1501C79.7947 32.1501 53.3582 39.7037 50.5526 40.2357C47.7473 40.7677 17.2101 31.7246 17.2101 31.7246C14.0808 31.8309 15.2677 33.2141 15.2677 33.2141C18.505 32.2565 46.7759 41.2996 49.042 42.7892C51.3079 44.2786 48.934 82.5786 48.934 82.5786C50.3368 83.43 52.0095 82.6268 51.9354 82.5162C51.9394 82.5204 51.9436 82.5244 51.9479 82.5281L69.389 67.2731C70.6151 66.2998 72.1651 64.942 72.9967 63.7122C74.5309 61.4434 73.716 50.4848 72.853 49.1015C71.9897 47.7185 56.2715 44.1721 53.0345 42.3635C53.0345 42.3635 52.8994 41.8251 54.1457 41.0162ZM54.1134 44.4913C57.3504 46.4063 71.7739 48.3569 71.9897 50.5914C72.2354 53.135 72.4706 57.1863 72.5651 59.7407C72.6695 62.5541 68.9781 66.0952 66.9655 68.158C64.5171 70.6666 61.8693 72.1541 59.2913 74.5317C57.5931 76.0975 55.9929 77.6806 54.1021 79.0362C51.1303 81.167 51.0057 77.9856 50.9454 75.6384C50.8654 72.5221 50.8177 69.415 50.792 66.2987C50.7524 61.5226 50.7906 56.7456 50.8713 51.97C50.8898 50.868 50.9114 49.7662 50.9361 48.6646C50.9495 48.0513 51.2783 46.569 51.0017 46.0303C51.0563 46.1366 51.0921 46.1936 51.0921 46.1936C51.0921 46.1936 50.8763 42.5763 54.1134 44.4913Z" fill="#FF4A4A"/>
<path style="mix-blend-mode:multiply" opacity="0.6" d="M54.3789 60.5117L51.8014 62.11L49.9045 61.0429C49.8555 62.8619 49.7944 64.6993 49.7266 66.4937L50.4633 66.5928L51.7263 69.5045L52.9751 66.4595L55.7436 65.788L53.7934 63.6787L54.3789 60.5117Z" fill="url(#paint18_linear_8_33986)"/>
<path style="mix-blend-mode:multiply" opacity="0.6" d="M65.2426 69.8631L61.5602 70.0196L59.6807 66.8848L58.1192 70.6502L54.3047 71.9403L57.2168 74.1406L56.7767 77.9263L65.2426 69.8631Z" fill="url(#paint19_linear_8_33986)"/>
<path d="M80.7656 35.0211C80.7656 35.0211 83.4633 33.638 83.2475 39.7021C83.0315 45.7663 82.8159 70.1295 82.8159 70.1295C82.8159 70.1295 82.9237 73.3212 82.1685 73.9596L83.3578 73.7918C83.3578 73.7918 84.2186 34.8082 83.7871 34.0635C83.3553 33.3188 80.7656 35.0211 80.7656 35.0211Z" fill="#FF4A4A"/>
<path style="mix-blend-mode:hard-light" d="M83.5683 35.7644C83.5683 35.7644 84.3238 33.8495 79.5759 34.4878C74.8281 35.1261 54.9197 39.2753 52.5996 40.7648C50.6774 41.9991 52.9234 42.6798 58.9659 45.8715C58.9659 45.8715 51.6825 42.0415 50.6575 42.5734C49.7655 43.0363 50.1181 50.7652 50.1181 50.7652C50.1181 50.7652 49.7941 42.7863 47.4204 41.4031L34.6875 36.9348C34.6875 36.9348 46.0175 40.6052 50.2259 40.6583C52.1131 40.6823 71.0515 35.2325 79.2521 33.8495C80.4184 33.6528 83.6763 32.5728 83.5683 35.7644Z" fill="url(#paint20_linear_8_33986)"/>
<path style="mix-blend-mode:hard-light" d="M67.2773 68.5333C67.2773 68.5333 72.3471 64.6743 72.8885 62.8945C74.1832 58.639 72.7807 53.6387 72.7807 53.6387C72.7807 53.6387 73.2122 60.2348 72.1333 63.0009C71.381 64.929 67.2773 68.5333 67.2773 68.5333Z" fill="url(#paint21_linear_8_33986)"/>
<path style="mix-blend-mode:multiply" opacity="0.6" d="M63.895 76.2037L62.7479 74.2285L61.7392 76.5682L59.3438 77.3418L61.1444 78.7424L60.9706 80.072L64.8087 78.969L64.6175 78.071L66.3143 76.1343L63.895 76.2037Z" fill="url(#paint22_linear_8_33986)"/>
<path style="mix-blend-mode:multiply" opacity="0.6" d="M82.6497 40.5867L79.332 38.3262L79.2648 41.9431L75.7227 43.9497L79.8092 45.0518L81.0814 48.3995L83.4935 45.6567L83.6438 45.6662L83.7018 40.3248L82.6497 40.5867Z" fill="url(#paint23_linear_8_33986)"/>
<path style="mix-blend-mode:multiply" opacity="0.6" d="M83.5772 53.6808L83.1013 53.9758L81.0964 52.8477L81.4314 55.3686L79.7656 57.2339L82.0378 57.5398L83.0418 59.8548L83.5232 58.6799L83.5772 53.6808Z" fill="url(#paint24_linear_8_33986)"/>
<path style="mix-blend-mode:multiply" opacity="0.6" d="M83.3607 73.7929L83.4031 69.8763L80.1971 67.6914L80.1303 71.309L78.5078 72.2283L83.3607 73.7929Z" fill="url(#paint25_linear_8_33986)"/>
<path style="mix-blend-mode:multiply" opacity="0.3" d="M17.5261 53.9853L15.9649 49.9355L15.2539 51.2112L15.2539 59.3554L15.5683 59.2605L18.894 62.0443L18.4288 57.74L21.3409 55.373L17.5261 53.9853Z" fill="url(#paint26_linear_8_33986)"/>
<path style="mix-blend-mode:multiply" opacity="0.4" d="M32.801 75.7173L29.207 73.4883L29.8697 77.073C31.9898 77.6907 34.2633 78.3508 36.4742 78.9936L35.7302 78.1604L36.3175 73.7386L32.801 75.7173Z" fill="url(#paint27_linear_8_33986)"/>
<path style="mix-blend-mode:multiply" opacity="0.6" d="M49.9017 61.255L47.9622 60.873L49.1852 63.569L47.3867 66.1227L49.7237 66.4942L49.9017 61.255Z" fill="url(#paint28_linear_8_33986)"/>
<path d="M49.0966 81.831C48.719 79.5435 48.827 77.1499 50.1219 68.6387C50.1219 68.6387 49.1068 82.7203 52.1717 81.7778C52.1717 81.7778 49.3065 83.1021 49.0966 81.831Z" fill="url(#paint29_linear_8_33986)"/>
<path opacity="0.4" d="M28.7977 30.2852L34.3229 31.2858L40.7515 30.9806L38.7699 32.2876L43.1267 33.5317L36.035 33.3672L31.9253 34.4726L29.9665 33.027L23.5117 32.429L29.0187 31.7313L28.7977 30.2852Z" fill="url(#paint30_linear_8_33986)"/>
<path d="M47.7858 33.5488L53.3112 34.5495L59.7399 34.2445L57.758 35.5512L62.1151 36.7954L55.0233 36.6309L50.9138 37.7363L48.9546 36.2908L42.5 35.6927L48.007 34.9952L47.7858 33.5488Z" fill="url(#paint31_linear_8_33986)"/>
<path opacity="0.4" d="M43.4596 27.0039L47.5574 27.7461L52.3256 27.5197L50.8558 28.4891L54.0873 29.4117L48.8275 29.2897L45.7793 30.1097L44.3264 29.0375L39.5391 28.5939L43.6234 28.0765L43.4596 27.0039Z" fill="url(#paint32_linear_8_33986)"/>
<path d="M63.8895 30.5488L67.9874 31.2912L72.7555 31.065L71.2856 32.0342L74.5166 32.9568L69.2574 32.835L66.209 33.6547L64.7563 32.5827L59.9688 32.1391L64.0535 31.6216L63.8895 30.5488Z" fill="url(#paint33_linear_8_33986)"/>
<path opacity="0.3" d="M62.9949 27.8401C61.9732 27.5624 60.945 27.4373 59.9606 27.1914L60.004 27.4759L57.2695 27.8223L60.4747 28.1192L61.4474 28.837L63.488 28.2881L64.7666 28.3176C64.1759 28.1548 63.5834 28 62.9949 27.8401Z" fill="url(#paint34_linear_8_33986)"/>
<path opacity="0.5" d="M34.4754 77.9995L35.6115 78.3493L35.6115 39.4867C35.6115 39.4867 35.4467 37.0397 38.8996 36.2949L35.123 37.1462C35.123 37.1462 33.3964 37.1462 33.7201 40.2314C34.044 43.3167 34.4754 77.9995 34.4754 77.9995Z" fill="#5B0909"/>
<path d="M34.2253 78.461L34.4411 38.6713C34.4411 38.6713 34.2971 37.1108 35.7359 36.8272C37.1745 36.5435 68.9703 28.7415 68.9703 28.7415L59.259 26.3301L27.8228 34.4157C27.8228 34.4157 26.6719 34.5575 26.6719 36.6854L26.6719 76.1914L34.2253 78.461Z" fill="url(#paint35_linear_8_33986)"/>
<path d="M55.2993 31.8086C46.5752 33.9131 36.7091 36.3077 35.672 36.6222C33.7522 37.2046 33.9758 39.1666 34.0092 39.3948L34.0092 78.4594H34.441L34.441 39.3788L34.4375 39.3415C34.4241 39.268 34.1307 37.535 35.799 37.0289C36.8087 36.7228 46.5896 34.3487 55.2795 32.2521C55.2609 32.1042 55.2676 31.9543 55.2993 31.8086Z" fill="#FFC969"/>
<path opacity="0.5" d="M64.0959 78.849L62.9599 79.1988L62.9599 40.3361C62.9599 40.3361 63.1247 37.8892 59.6719 37.1445L63.4485 37.9955C63.4485 37.9955 65.175 37.9955 64.8512 41.0809C64.5276 44.1661 64.0959 78.849 64.0959 78.849Z" fill="#5B0909"/>
<path d="M64.3459 79.3163L64.1303 39.5266C64.1303 39.5266 64.2738 37.966 62.8352 37.6824C61.3967 37.3988 28.9531 28.7457 28.9531 28.7457L38.6646 26.7598L70.7482 35.271C70.7482 35.271 71.8991 35.4129 71.8991 37.5405L71.8991 77.0466L64.3459 79.3163Z" fill="url(#paint36_linear_8_33986)"/>
<path d="M64.1294 79.3126H64.5608L64.5608 40.2479C64.594 40.0197 64.8178 38.0579 62.898 37.4754C61.0425 36.9125 30.5 29.0551 29.2191 28.748L29.1172 29.1616C29.4306 29.2367 60.9282 37.3231 62.7712 37.8821C64.4395 38.3883 64.1463 40.1211 64.1324 40.1947L64.1294 40.2321L64.1294 79.3126Z" fill="#E55C00"/>
<path opacity="0.3" d="M35.2344 35.0234L44.622 32.8952L38.7953 31.5117C38.7953 31.5117 35.7739 32.7887 35.2344 35.0234Z" fill="#5B0909"/>
<path opacity="0.3" d="M29.2982 33.9629C29.2982 33.9629 28.4349 38.1128 34.6933 38.3257L29.2982 33.9629Z" fill="#5B0909"/>
<path opacity="0.3" d="M44.8254 28.9593C42.0282 28.2143 33.5039 28.9592 33.5039 28.9592C33.5039 28.9592 37.0646 26.9373 39.7623 26.7246L45.697 28.1078C45.697 28.1078 45.1216 29.0382 44.8254 28.9593Z" fill="#5B0909"/>
<path opacity="0.3" d="M66.0947 35.7675L65.1236 33.7457L54.4411 30.8727C54.4411 30.8727 49.9807 30.0524 47.7715 30.4574L44.8459 29.3828C44.8459 29.3828 41.4925 29.0638 39.2266 31.5111L44.6217 32.8946C44.6217 32.8946 50.7725 33.8522 53.8359 32.6592C54.1834 32.707 54.5303 32.9634 54.8729 33.0009L66.0947 35.7675Z" fill="#5B0909"/>
<path d="M72.4345 4.02747C67.8365 1.50224 61.0584 4.85596 58.4603 8.13888C54.23 13.4834 50.4333 21.6745 50.3594 28.5525C51.6141 28.9732 52.9462 29.3469 54.2368 29.64C55.7296 27.5212 55.8415 24.4116 57.0661 22.1098C58.5147 19.3362 60.4695 16.8511 62.8322 14.7796C64.5869 13.2646 66.2291 11.7229 68.7092 12.274C70.4124 12.6523 72.7549 14.9812 71.2343 16.7427C71.2343 16.7427 75.727 5.83565 72.4345 4.02747Z" fill="url(#paint37_linear_8_33986)"/>
<path d="M69.4375 2.96484C69.7069 3.04053 69.985 3.11004 70.2671 3.17874C69.9962 3.08755 69.7189 3.01606 69.4375 2.96484Z" fill="#FFE655"/>
<path d="M76.7867 20.0648C76.8249 17.5097 77.1924 14.91 76.9295 12.3734C76.6807 9.97197 76.1716 6.44391 74.24 4.75717C73.1971 3.84607 71.6844 3.52658 70.27 3.18164C75.1003 4.81992 72.7514 11.9267 70.465 14.7536C65.8032 20.5166 51.3376 20.7893 50.1406 29.1895L50.7464 30.393C51.2139 30.4872 51.6674 30.6399 52.0958 30.8474C54.3198 29.6193 58.326 29.9809 60.5 29.8335C65.5741 29.4895 69.8607 27.7822 73.8953 24.6186C75.9579 23.0012 76.7481 22.6642 76.7867 20.0648Z" fill="url(#paint38_linear_8_33986)"/>
<path d="M52.2881 25.2838L51.9909 24.9753C52.1093 24.864 54.9752 22.2224 61.5582 19.7532C68.4034 17.1855 72.243 14.5993 72.9304 8.29723C73.1445 6.33184 72.6832 4.92549 71.5588 4.11749C69.637 2.73669 66.3214 3.44161 65.1038 3.97515C64.9838 4.02772 64.8431 4.08451 64.6838 4.14904C62.1654 5.16578 55.4753 7.86642 50.9091 24.6174L50.4922 24.5069C55.114 7.55241 61.9474 4.79363 64.5202 3.75509C64.6752 3.69253 64.8117 3.6374 64.9283 3.58635C66.2177 3.02153 69.7403 2.28424 71.813 3.77353C73.0712 4.67779 73.5914 6.21502 73.3594 8.3427C72.6482 14.8629 68.7173 17.5231 61.7117 20.1507C55.2091 22.5899 52.3165 25.2572 52.2881 25.2838Z" fill="url(#paint39_linear_8_33986)"/>
<g style="mix-blend-mode:hard-light">
<path style="mix-blend-mode:hard-light" d="M71.6689 12.8555C71.3339 13.5258 70.9311 14.1609 70.4667 14.7511C69.68 15.7236 68.6132 16.5395 67.3789 17.2648C68.6234 18.0318 69.8545 18.8153 71.1117 19.4963C72.844 20.4347 74.5574 21.4741 76.2303 22.5214C76.6004 21.9448 76.7709 21.2335 76.7883 20.0624C76.8115 18.5258 76.9528 16.9734 77.0052 15.4283C75.492 14.729 71.948 12.9889 71.6689 12.8555Z" fill="url(#paint40_linear_8_33986)"/>
</g>
<path d="M47.0119 27.0522C44.6014 26.0462 42.5656 23.5914 40.1261 22.2423C37.6747 20.8866 35.1341 19.7312 32.9445 17.9503C30.0012 15.556 26.3912 12.4631 29.2382 8.57266C27.4543 8.457 20.0221 12.6493 21.0001 13.358L20.4883 18.1128C21.6404 19.596 22.0614 21.0966 23.7941 22.3253C26.0577 23.9302 28.8909 24.9332 31.5639 25.5233C36.717 26.661 42.3924 27.6548 47.1202 29.1467C46.8436 28.4811 46.8054 27.7422 47.0119 27.0522Z" fill="url(#paint41_linear_8_33986)"/>
<path d="M45.4188 16.1852C43.6104 10.5087 40.2657 4.73476 34.6687 1.86181C32.6556 0.82843 29.4552 -0.709526 27.5761 0.365711C25.1546 1.75113 23.2635 4.97767 21.7605 7.21525C19.9869 9.85607 18.2326 11.9059 19.0367 15.1871C19.4674 16.9443 20.5393 19.1361 21.7243 20.4117C21.3364 18.3215 20.8233 15.8288 22.3065 14.0615C23.975 12.0734 27.9537 11.5769 30.4078 11.9953C34.4849 12.6904 37.9008 16.81 40.3157 19.8183C41.484 21.2737 45.8049 28.5918 46.7509 28.6572L48.1565 28.071C48.1194 27.9339 48.0826 27.7967 48.0462 27.6596C46.8643 24.0516 46.626 19.9746 45.4188 16.1852Z" fill="url(#paint42_linear_8_33986)"/>
<path d="M34.6674 1.86299C34.6638 1.86105 34.6599 1.85927 34.6564 1.85742C34.0649 4.16455 32.4819 11.2927 32.207 12.5333C34.1359 13.3439 35.8881 14.8327 37.421 16.4429C38.6283 13.6446 40.1491 10.995 41.7435 8.38329C39.9401 5.69691 37.6169 3.37703 34.6674 1.86299Z" fill="url(#paint43_linear_8_33986)"/>
<path d="M45.1587 28.5713C45.1165 28.565 40.4652 27.8642 30.2153 25.3378C25.9169 24.2783 23.0799 22.6371 21.7835 20.4599C20.8247 18.8503 21.0803 17.5219 21.1319 17.3036C21.151 11.9505 26.9792 11.602 27.3655 11.5854C31.1465 10.8727 35.4163 13.4294 40.0582 19.183C42.1816 21.8318 44.0573 24.6655 45.6623 27.6493L45.4463 28.0394C45.3532 27.8606 36.093 10.354 27.4313 12.0062L27.3956 12.01C27.1575 12.0158 21.5635 12.2127 21.5635 17.3295L21.556 17.3849C21.5527 17.3972 21.2231 18.6897 22.1643 20.2592C23.0169 21.6808 25.1241 23.6441 30.32 24.9249C40.5459 27.4455 45.2606 28.2457 45.3025 28.2522L45.1587 28.5713Z" fill="url(#paint44_linear_8_33986)"/>
<path d="M30.9065 31.2996C29.255 33.2978 28.8209 34.3369 30.6538 35.8206C31.9992 36.9096 33.6771 37.6271 35.0334 38.6723C35.6072 31.9443 42.5248 27.1995 48.3982 30.0229L47.751 27.4696C42.3962 25.7841 34.6598 26.7586 30.9065 31.2996Z" fill="url(#paint45_linear_8_33986)"/>
<path d="M35.2343 38.8137L34.8203 38.424C34.8346 38.3305 36.3324 29.2772 44.8295 28.9551L44.8462 29.3802C36.7026 29.6892 35.2479 38.7236 35.2343 38.8137Z" fill="url(#paint46_linear_8_33986)"/>
<path d="M51.634 27.472L50.5547 30.8765C51.4374 29.611 56.3665 30.6483 57.946 30.8822C60.9486 31.3265 64.6341 32.6103 65.8762 35.494C66.5864 33.6423 66.1403 30.7196 67.7981 29.1632C64.8985 24.331 55.9229 25.3736 51.634 27.472Z" fill="url(#paint47_linear_8_33986)"/>
<path d="M65.6789 35.5744C63.8103 31.0791 54.8095 30.5956 54.7188 30.5912L54.7399 30.166C55.1213 30.1844 64.1056 30.6674 66.078 35.4128L65.6789 35.5744Z" fill="url(#paint48_linear_8_33986)"/>
<path d="M46.8513 23.1289C47.1933 25.3916 44.7558 29.3973 44.4805 29.4684C45.4494 32.2681 49.6984 31.4593 52.1794 31.2844C54.2327 31.1396 54.5511 31.1736 55.0202 29.4066C55.3786 28.0562 55.3529 27.3651 55.5895 26.0351C52.4978 23.7487 49.4309 25.2131 46.8513 23.1289Z" fill="url(#paint49_linear_8_33986)"/>
<path style="mix-blend-mode:hard-light" d="M55.393 27.3927C55.4348 27.0654 55.4767 26.7255 55.5406 26.3313C54.8127 26.1035 48.9142 25.1104 46.6667 25.0566C46.4925 25.6897 46.2683 26.3084 45.9961 26.9067C49.1242 26.9231 52.2919 27.0143 55.393 27.3927Z" fill="url(#paint50_linear_8_33986)"/>
<path style="mix-blend-mode:hard-light" d="M71.9 44.0531V39.9551C69.5487 41.1927 67.151 42.3407 64.7349 43.4529C64.5414 43.5421 64.5534 50.5296 64.7652 50.3414C66.9946 48.3581 71.3339 44.5391 71.9 44.0531Z" fill="url(#paint51_linear_8_33986)"/>
<defs>
<radialGradient id="paint0_radial_8_33986" cx="0" cy="0" r="1" gradientUnits="userSpaceOnUse" gradientTransform="translate(49 75.9275) scale(49.2191 11.4568)">
<stop stop-color="#666666"/>
<stop offset="0.16339" stop-color="#707070" stop-opacity="0.93117"/>
<stop offset="0.40193" stop-color="#8A8A8A" stop-opacity="0.73984"/>
<stop offset="0.68645" stop-color="#B6B6B6" stop-opacity="0.42637"/>
<stop offset="1" stop-color="#F2F2F2" stop-opacity="0"/>
</radialGradient>
<linearGradient id="paint1_linear_8_33986" x1="14.8989" y1="33.8008" x2="45.4754" y2="73.124" gradientUnits="userSpaceOnUse">
<stop stop-color="#CE2E2E"/>
<stop offset="0.9949" stop-color="#AA1F1F"/>
</linearGradient>
<linearGradient id="paint2_linear_8_33986" x1="12143" y1="10432.4" x2="12271.9" y2="20852.1" gradientUnits="userSpaceOnUse">
<stop stop-color="#CE2E2E"/>
<stop offset="0.9949" stop-color="#AA1F1F"/>
</linearGradient>
<linearGradient id="paint3_linear_8_33986" x1="4910.9" y1="1765.12" x2="5298.37" y2="1514.6" gradientUnits="userSpaceOnUse">
<stop stop-color="#CE2E2E"/>
<stop offset="0.9949" stop-color="#AA1F1F"/>
</linearGradient>
<linearGradient id="paint4_linear_8_33986" x1="60.7273" y1="54.9762" x2="87.4996" y2="44.6395" gradientUnits="userSpaceOnUse">
<stop stop-color="white" stop-opacity="0.2"/>
<stop offset="1" stop-color="white" stop-opacity="0"/>
</linearGradient>
<linearGradient id="paint5_linear_8_33986" x1="3471.2" y1="4306.19" x2="4144.8" y2="4433.57" gradientUnits="userSpaceOnUse">
<stop stop-color="#CE2E2E"/>
<stop offset="0.9949" stop-color="#AA1F1F"/>
</linearGradient>
<linearGradient id="paint6_linear_8_33986" x1="62.0363" y1="47.082" x2="60.9846" y2="72.4117" gradientUnits="userSpaceOnUse">
<stop offset="0.0051" stop-color="#FF4A4A"/>
<stop offset="1" stop-color="#E24747"/>
</linearGradient>
<linearGradient id="paint7_linear_8_33986" x1="3245.74" y1="3317.82" x2="3919.53" y2="3317.82" gradientUnits="userSpaceOnUse">
<stop stop-color="#CE2E2E"/>
<stop offset="0.9949" stop-color="#AA1F1F"/>
</linearGradient>
<linearGradient id="paint8_linear_8_33986" x1="-1260.96" y1="2911.53" x2="-1934.77" y2="2911.53" gradientUnits="userSpaceOnUse">
<stop stop-color="#CE2E2E"/>
<stop offset="0.9949" stop-color="#AA1F1F"/>
</linearGradient>
<linearGradient id="paint9_linear_8_33986" x1="3277.37" y1="1176.52" x2="3488.68" y2="1054.59" gradientUnits="userSpaceOnUse">
<stop stop-color="#CE2E2E"/>
<stop offset="0.9949" stop-color="#AA1F1F"/>
</linearGradient>
<linearGradient id="paint10_linear_8_33986" x1="-2116.57" y1="1616.39" x2="-2412.08" y2="1445.84" gradientUnits="userSpaceOnUse">
<stop stop-color="#CE2E2E"/>
<stop offset="0.9949" stop-color="#AA1F1F"/>
</linearGradient>
<linearGradient id="paint11_linear_8_33986" x1="-1157.17" y1="365.836" x2="-1298.72" y2="159.481" gradientUnits="userSpaceOnUse">
<stop stop-color="#CE2E2E"/>
<stop offset="0.9949" stop-color="#AA1F1F"/>
</linearGradient>
<linearGradient id="paint12_linear_8_33986" x1="-1270.38" y1="1662.38" x2="-1565.88" y2="1491.84" gradientUnits="userSpaceOnUse">
<stop stop-color="#CE2E2E"/>
<stop offset="0.9949" stop-color="#AA1F1F"/>
</linearGradient>
<linearGradient id="paint13_linear_8_33986" x1="-1973" y1="953.984" x2="-2623.13" y2="578.79" gradientUnits="userSpaceOnUse">
<stop stop-color="#CE2E2E"/>
<stop offset="0.9949" stop-color="#AA1F1F"/>
</linearGradient>
<linearGradient id="paint14_linear_8_33986" x1="-1732.29" y1="2328.44" x2="-2367.75" y2="2195.33" gradientUnits="userSpaceOnUse">
<stop stop-color="#CE2E2E"/>
<stop offset="0.9949" stop-color="#AA1F1F"/>
</linearGradient>
<linearGradient id="paint15_linear_8_33986" x1="3499.05" y1="792.221" x2="3710.39" y2="670.28" gradientUnits="userSpaceOnUse">
<stop stop-color="#CE2E2E"/>
<stop offset="0.9949" stop-color="#AA1F1F"/>
</linearGradient>
<linearGradient id="paint16_linear_8_33986" x1="3223.05" y1="360.632" x2="3434.37" y2="238.703" gradientUnits="userSpaceOnUse">
<stop stop-color="#CE2E2E"/>
<stop offset="0.9949" stop-color="#AA1F1F"/>
</linearGradient>
<linearGradient id="paint17_linear_8_33986" x1="6771.48" y1="4603.47" x2="6779.31" y2="5721.54" gradientUnits="userSpaceOnUse">
<stop stop-color="white" stop-opacity="0.2"/>
<stop offset="1" stop-color="white" stop-opacity="0"/>
</linearGradient>
<linearGradient id="paint18_linear_8_33986" x1="1678.56" y1="3281.69" x2="1875.67" y2="3281.69" gradientUnits="userSpaceOnUse">
<stop stop-color="#CE2E2E"/>
<stop offset="0.9949" stop-color="#AA1F1F"/>
</linearGradient>
<linearGradient id="paint19_linear_8_33986" x1="3287.91" y1="4472.05" x2="3939.24" y2="4472.05" gradientUnits="userSpaceOnUse">
<stop stop-color="#CE2E2E"/>
<stop offset="0.9949" stop-color="#AA1F1F"/>
</linearGradient>
<linearGradient id="paint20_linear_8_33986" x1="39.4724" y1="43.7715" x2="77.2354" y2="41.3694" gradientUnits="userSpaceOnUse">
<stop offset="0.09694" stop-color="white" stop-opacity="0.39643"/>
<stop offset="0.33674" stop-color="white" stop-opacity="0.6"/>
<stop offset="1" stop-color="white" stop-opacity="0.1"/>
</linearGradient>
<linearGradient id="paint21_linear_8_33986" x1="74.1172" y1="54.995" x2="67.9991" y2="71.0071" gradientUnits="userSpaceOnUse">
<stop offset="0.09694" stop-color="white" stop-opacity="0.1"/>
<stop offset="0.5102" stop-color="white" stop-opacity="0.4"/>
<stop offset="0.9949" stop-color="white" stop-opacity="0.1"/>
</linearGradient>
<linearGradient id="paint22_linear_8_33986" x1="2311.36" y1="2558.25" x2="2575.89" y2="2558.25" gradientUnits="userSpaceOnUse">
<stop stop-color="#CE2E2E"/>
<stop offset="0.9949" stop-color="#AA1F1F"/>
</linearGradient>
<linearGradient id="paint23_linear_8_33986" x1="3365.06" y1="2445.39" x2="3711.67" y2="2445.39" gradientUnits="userSpaceOnUse">
<stop stop-color="#CE2E2E"/>
<stop offset="0.9949" stop-color="#AA1F1F"/>
</linearGradient>
<linearGradient id="paint24_linear_8_33986" x1="1734.92" y1="2228.67" x2="1814.02" y2="2228.67" gradientUnits="userSpaceOnUse">
<stop stop-color="#CE2E2E"/>
<stop offset="0.9949" stop-color="#AA1F1F"/>
</linearGradient>
<linearGradient id="paint25_linear_8_33986" x1="2170.73" y1="2445.94" x2="2301.19" y2="2445.94" gradientUnits="userSpaceOnUse">
<stop stop-color="#CE2E2E"/>
<stop offset="0.9949" stop-color="#AA1F1F"/>
</linearGradient>
<linearGradient id="paint26_linear_8_33986" x1="520.692" y1="3785.64" x2="722.406" y2="3785.64" gradientUnits="userSpaceOnUse">
<stop stop-color="#CE2E2E"/>
<stop offset="0.9949" stop-color="#AA1F1F"/>
</linearGradient>
<linearGradient id="paint27_linear_8_33986" x1="1184.69" y1="2386.09" x2="1472.21" y2="2386.09" gradientUnits="userSpaceOnUse">
<stop stop-color="#CE2E2E"/>
<stop offset="0.9949" stop-color="#AA1F1F"/>
</linearGradient>
<linearGradient id="paint28_linear_8_33986" x1="696.203" y1="2033.31" x2="730.637" y2="2033.31" gradientUnits="userSpaceOnUse">
<stop stop-color="#CE2E2E"/>
<stop offset="0.9949" stop-color="#AA1F1F"/>
</linearGradient>
<linearGradient id="paint29_linear_8_33986" x1="957.766" y1="5238.28" x2="656.312" y2="6732.01" gradientUnits="userSpaceOnUse">
<stop offset="0.09694" stop-color="white" stop-opacity="0.39643"/>
<stop offset="0.33674" stop-color="white" stop-opacity="0.6"/>
<stop offset="1" stop-color="white" stop-opacity="0.1"/>
</linearGradient>
<linearGradient id="paint30_linear_8_33986" x1="2618.17" y1="553.577" x2="4687.27" y2="375.198" gradientUnits="userSpaceOnUse">
<stop stop-color="#CE2E2E"/>
<stop offset="0.9949" stop-color="#AA1F1F"/>
</linearGradient>
<linearGradient id="paint31_linear_8_33986" x1="4630.59" y1="499.538" x2="6699.71" y2="321.157" gradientUnits="userSpaceOnUse">
<stop stop-color="#CE2E2E"/>
<stop offset="0.9949" stop-color="#AA1F1F"/>
</linearGradient>
<linearGradient id="paint32_linear_8_33986" x1="3246.23" y1="261.189" x2="4384.45" y2="163.062" gradientUnits="userSpaceOnUse">
<stop stop-color="#CE2E2E"/>
<stop offset="0.9949" stop-color="#AA1F1F"/>
</linearGradient>
<linearGradient id="paint33_linear_8_33986" x1="4856.88" y1="219.223" x2="5995.05" y2="121.1" gradientUnits="userSpaceOnUse">
<stop stop-color="#CE2E2E"/>
<stop offset="0.9949" stop-color="#AA1F1F"/>
</linearGradient>
<linearGradient id="paint34_linear_8_33986" x1="2431.71" y1="100.062" x2="2824.4" y2="66.2073" gradientUnits="userSpaceOnUse">
<stop stop-color="#CE2E2E"/>
<stop offset="0.9949" stop-color="#AA1F1F"/>
</linearGradient>
<linearGradient id="paint35_linear_8_33986" x1="49.1624" y1="27.0131" x2="36.4898" y2="79.4042" gradientUnits="userSpaceOnUse">
<stop offset="0.05612" stop-color="#B42F1B"/>
<stop offset="0.15816" stop-color="#F17600"/>
<stop offset="0.26531" stop-color="#FFC82A"/>
<stop offset="0.30782" stop-color="#FABD29"/>
<stop offset="0.53973" stop-color="#E18821"/>
<stop offset="0.74067" stop-color="#CE611C"/>
<stop offset="0.90077" stop-color="#C34A18"/>
<stop offset="1" stop-color="#BF4117"/>
</linearGradient>
<linearGradient id="paint36_linear_8_33986" x1="48.9935" y1="27.0743" x2="61.872" y2="80.3166" gradientUnits="userSpaceOnUse">
<stop offset="0.05612" stop-color="#B42F1B"/>
<stop offset="0.15816" stop-color="#F17600"/>
<stop offset="0.28571" stop-color="#FFE655"/>
<stop offset="0.60204" stop-color="#FFAA00"/>
<stop offset="1" stop-color="#CC5712"/>
</linearGradient>
<linearGradient id="paint37_linear_8_33986" x1="50.4162" y1="23.5259" x2="76.1918" y2="2.91772" gradientUnits="userSpaceOnUse">
<stop offset="0.05612" stop-color="#B42F1B"/>
<stop offset="0.32653" stop-color="#F17600"/>
<stop offset="0.64796" stop-color="#F1AB26"/>
<stop offset="0.7376" stop-color="#E08821"/>
<stop offset="0.85175" stop-color="#CE611C"/>
<stop offset="0.94326" stop-color="#C34A18"/>
<stop offset="1" stop-color="#BF4117"/>
</linearGradient>
<linearGradient id="paint38_linear_8_33986" x1="51.5396" y1="25.8574" x2="79.4675" y2="9.4416" gradientUnits="userSpaceOnUse">
<stop offset="0.19898" stop-color="#E96640"/>
<stop offset="0.51016" stop-color="#FFC82A"/>
<stop offset="0.51818" stop-color="#FFC92C"/>
<stop offset="0.6545" stop-color="#FFDE4A"/>
<stop offset="0.73172" stop-color="#FFE655"/>
<stop offset="0.85167" stop-color="#F3BF3F"/>
<stop offset="0.98009" stop-color="#D36A1E"/>
</linearGradient>
<linearGradient id="paint39_linear_8_33986" x1="50.4922" y1="14.0901" x2="73.4131" y2="14.0901" gradientUnits="userSpaceOnUse">
<stop stop-color="#F17600"/>
<stop offset="0.38265" stop-color="#FFC82A"/>
<stop offset="0.3954" stop-color="#FFC92C"/>
<stop offset="0.612" stop-color="#FFDE4A"/>
<stop offset="0.73469" stop-color="#FFE655"/>
<stop offset="1" stop-color="#FFD394"/>
</linearGradient>
<linearGradient id="paint40_linear_8_33986" x1="2876.04" y1="1577.08" x2="4352.49" y2="723.028" gradientUnits="userSpaceOnUse">
<stop offset="0.09694" stop-color="white" stop-opacity="0.39643"/>
<stop offset="0.33674" stop-color="white" stop-opacity="0.6"/>
<stop offset="1" stop-color="white" stop-opacity="0.1"/>
</linearGradient>
<linearGradient id="paint41_linear_8_33986" x1="3380.09" y1="1487.56" x2="5982.39" y2="3937.13" gradientUnits="userSpaceOnUse">
<stop offset="0.05612" stop-color="#B42F1B"/>
<stop offset="0.32653" stop-color="#F17600"/>
<stop offset="0.64796" stop-color="#F1AB26"/>
<stop offset="0.7376" stop-color="#E08821"/>
<stop offset="0.85175" stop-color="#CE611C"/>
<stop offset="0.94326" stop-color="#C34A18"/>
<stop offset="1" stop-color="#BF4117"/>
</linearGradient>
<linearGradient id="paint42_linear_8_33986" x1="14.0205" y1="1.89347" x2="49.3964" y2="25.3871" gradientUnits="userSpaceOnUse">
<stop offset="0.12245" stop-color="#F8A116"/>
<stop offset="0.27551" stop-color="#D56F1F"/>
<stop offset="0.42059" stop-color="#EEA526"/>
<stop offset="0.51016" stop-color="#FFC82A"/>
<stop offset="0.51818" stop-color="#FFC92C"/>
<stop offset="0.6545" stop-color="#FFDE4A"/>
<stop offset="0.73172" stop-color="#FFE655"/>
<stop offset="0.85167" stop-color="#F3BF3F"/>
<stop offset="1" stop-color="#D36A1E"/>
</linearGradient>
<linearGradient id="paint43_linear_8_33986" x1="931.753" y1="-241.953" x2="3164.58" y2="716.107" gradientUnits="userSpaceOnUse">
<stop offset="0.09694" stop-color="white" stop-opacity="0.39643"/>
<stop offset="0.33674" stop-color="white" stop-opacity="0.6"/>
<stop offset="1" stop-color="white" stop-opacity="0.1"/>
</linearGradient>
<linearGradient id="paint44_linear_8_33986" x1="2841.59" y1="1898.12" x2="6136.14" y2="1898.12" gradientUnits="userSpaceOnUse">
<stop stop-color="#F17600"/>
<stop offset="0.38265" stop-color="#FFC82A"/>
<stop offset="0.3954" stop-color="#FFC92C"/>
<stop offset="0.612" stop-color="#FFDE4A"/>
<stop offset="0.73469" stop-color="#FFE655"/>
<stop offset="1" stop-color="#FFD394"/>
</linearGradient>
<linearGradient id="paint45_linear_8_33986" x1="45.7631" y1="26.2653" x2="29.7094" y2="37.4209" gradientUnits="userSpaceOnUse">
<stop offset="0.05612" stop-color="#B42F1B"/>
<stop offset="0.34694" stop-color="#F17600"/>
<stop offset="0.71429" stop-color="#FFC82A"/>
<stop offset="0.72445" stop-color="#FFC92C"/>
<stop offset="0.8971" stop-color="#FFDE4A"/>
<stop offset="0.9949" stop-color="#FFE655"/>
</linearGradient>
<linearGradient id="paint46_linear_8_33986" x1="2500.24" y1="1629.05" x2="1891.58" y2="2054.09" gradientUnits="userSpaceOnUse">
<stop stop-color="#F17600"/>
<stop offset="0.38265" stop-color="#FFC82A"/>
<stop offset="0.3954" stop-color="#FFC92C"/>
<stop offset="0.612" stop-color="#FFDE4A"/>
<stop offset="0.73469" stop-color="#FFE655"/>
<stop offset="1" stop-color="#FFD394"/>
</linearGradient>
<linearGradient id="paint47_linear_8_33986" x1="4796.15" y1="1675.02" x2="6414.89" y2="1675.02" gradientUnits="userSpaceOnUse">
<stop offset="0.05612" stop-color="#B42F1B"/>
<stop offset="0.34694" stop-color="#F17600"/>
<stop offset="0.71429" stop-color="#FFC82A"/>
<stop offset="0.72445" stop-color="#FFC92C"/>
<stop offset="0.8971" stop-color="#FFDE4A"/>
<stop offset="0.9949" stop-color="#FFE655"/>
</linearGradient>
<linearGradient id="paint48_linear_8_33986" x1="3438.31" y1="1009.7" x2="4140.79" y2="1009.7" gradientUnits="userSpaceOnUse">
<stop stop-color="#F17600"/>
<stop offset="0.38265" stop-color="#FFC82A"/>
<stop offset="0.3954" stop-color="#FFC92C"/>
<stop offset="0.612" stop-color="#FFDE4A"/>
<stop offset="0.73469" stop-color="#FFE655"/>
<stop offset="1" stop-color="#FFD394"/>
</linearGradient>
<linearGradient id="paint49_linear_8_33986" x1="48.361" y1="34.7503" x2="51.5897" y2="22.1068" gradientUnits="userSpaceOnUse">
<stop stop-color="#F89D14"/>
<stop offset="0.03658" stop-color="#E78117"/>
<stop offset="0.08532" stop-color="#D46219"/>
<stop offset="0.13289" stop-color="#C64C1B"/>
<stop offset="0.17836" stop-color="#BE3F1D"/>
<stop offset="0.21939" stop-color="#BB3A1D"/>
<stop offset="0.26302" stop-color="#C0401B"/>
<stop offset="0.32198" stop-color="#CD5116"/>
<stop offset="0.38936" stop-color="#E36D0E"/>
<stop offset="0.43367" stop-color="#F48408"/>
<stop offset="0.65306" stop-color="#FFC82A"/>
<stop offset="0.66544" stop-color="#FFC92C"/>
<stop offset="0.87576" stop-color="#FFDE4A"/>
<stop offset="0.9949" stop-color="#FFE655"/>
</linearGradient>
<linearGradient id="paint50_linear_8_33986" x1="2696.54" y1="350.113" x2="2692.6" y2="446.87" gradientUnits="userSpaceOnUse">
<stop offset="0.09694" stop-color="white" stop-opacity="0.39643"/>
<stop offset="0.33674" stop-color="white" stop-opacity="0.6"/>
<stop offset="1" stop-color="white" stop-opacity="0.1"/>
</linearGradient>
<linearGradient id="paint51_linear_8_33986" x1="-3420.39" y1="1438.46" x2="-2460.13" y2="4195.56" gradientUnits="userSpaceOnUse">
<stop offset="0.09694" stop-color="white" stop-opacity="0.39643"/>
<stop offset="0.33674" stop-color="white" stop-opacity="0.6"/>
<stop offset="1" stop-color="white" stop-opacity="0.1"/>
</linearGradient>
</defs>
</svg>
