<svg width="341" height="208" viewBox="0 0 341 208" fill="none" xmlns="http://www.w3.org/2000/svg">
<path d="M101.305 128.617C102.104 128.4 102.576 127.576 102.358 126.776C102.141 125.977 101.317 125.505 100.517 125.723L101.305 128.617ZM19.8767 52.6391L6.90171 64.113L23.3259 69.6127L19.8767 52.6391ZM16.8258 57.0279C16.5839 57.8202 17.0301 58.6586 17.8224 58.9005C18.6147 59.1424 19.4531 58.6962 19.695 57.9038L16.8258 57.0279ZM17.3533 67.596C17.4964 66.7801 16.9509 66.0026 16.1349 65.8595C15.319 65.7164 14.5415 66.2618 14.3984 67.0778L17.3533 67.596ZM13.3523 77.3863C13.3325 78.2145 13.9879 78.902 14.8161 78.9217C15.6442 78.9415 16.3317 78.2862 16.3514 77.458L13.3523 77.3863ZM16.9787 87.3147C16.8499 86.4963 16.0821 85.9373 15.2637 86.0662C14.4454 86.195 13.8864 86.9628 14.0152 87.7812L16.9787 87.3147ZM16.6772 97.8835C16.9711 98.6581 17.8373 99.0476 18.6118 98.7537C19.3863 98.4598 19.7759 97.5936 19.482 96.8191L16.6772 97.8835ZM23.9423 105.545C23.4861 104.854 22.5557 104.663 21.8642 105.119C21.1727 105.576 20.982 106.506 21.4382 107.198L23.9423 105.545ZM28.1152 115.248C28.7092 115.825 29.6589 115.812 30.2363 115.218C30.8137 114.624 30.8002 113.674 30.2062 113.097L28.1152 115.248ZM37.9165 119.208C37.2205 118.759 36.292 118.959 35.8428 119.655C35.3935 120.351 35.5936 121.279 36.2896 121.729L37.9165 119.208ZM45.504 126.572C46.2675 126.894 47.1471 126.535 47.4686 125.772C47.7902 125.009 47.4319 124.129 46.6684 123.807L45.504 126.572ZM56.074 126.933C55.2706 126.731 54.4554 127.218 54.2533 128.022C54.0511 128.825 54.5384 129.64 55.3418 129.842L56.074 126.933ZM65.5264 131.677C66.3495 131.771 67.0923 131.179 67.1855 130.356C67.2786 129.532 66.6867 128.79 65.8636 128.696L65.5264 131.677ZM75.8247 129.212C74.9963 129.218 74.3296 129.894 74.3355 130.723C74.3415 131.551 75.0179 132.218 75.8463 132.212L75.8247 129.212ZM86.1448 131.567C86.9676 131.471 87.5567 130.726 87.4605 129.903C87.3643 129.08 86.6193 128.491 85.7965 128.587L86.1448 131.567ZM95.6572 126.92C94.8483 127.099 94.3374 127.9 94.5161 128.709C94.6948 129.517 95.4954 130.028 96.3043 129.85L95.6572 126.92ZM14.3984 67.0778C13.7746 70.635 13.4314 74.0732 13.3523 77.3863L16.3514 77.458C16.4268 74.3024 16.7539 71.0136 17.3533 67.596L14.3984 67.0778ZM14.0152 87.7812C14.5749 91.3367 15.4718 94.7075 16.6772 97.8835L19.482 96.8191C18.3517 93.8408 17.507 90.6706 16.9787 87.3147L14.0152 87.7812ZM21.4382 107.198C23.368 110.123 25.6066 112.809 28.1152 115.248L30.2062 113.097C27.8483 110.805 25.7493 108.284 23.9423 105.545L21.4382 107.198ZM36.2896 121.729C39.1617 123.582 42.2445 125.199 45.504 126.572L46.6684 123.807C43.5618 122.499 40.6347 120.963 37.9165 119.208L36.2896 121.729ZM55.3418 129.842C58.6215 130.668 62.0248 131.281 65.5264 131.677L65.8636 128.696C62.4899 128.315 59.2188 127.724 56.074 126.933L55.3418 129.842ZM75.8463 132.212C79.2216 132.187 82.6609 131.974 86.1448 131.567L85.7965 128.587C82.4187 128.982 79.0885 129.188 75.8247 129.212L75.8463 132.212ZM96.3043 129.85C97.966 129.483 99.6334 129.072 101.305 128.617L100.517 125.723C98.8923 126.165 97.2716 126.564 95.6572 126.92L96.3043 129.85Z" fill="white"/>
<path d="M128.954 112.131C128.408 112.343 127.892 112.212 127.407 111.737C127.18 111.511 126.995 111.394 126.852 111.387C126.744 111.379 126.497 111.451 126.108 111.602C125.344 111.899 124.692 112.837 124.153 114.416C123.397 116.623 123.301 118.452 123.865 119.902C124.122 120.564 124.564 121.045 125.191 121.346C125.818 121.648 126.441 121.678 127.06 121.437C127.66 121.204 128.209 120.809 128.705 120.253C128.879 120.053 129.225 119.576 129.742 118.823C130.093 118.324 130.39 118.027 130.632 117.932C130.996 117.791 131.358 117.804 131.716 117.972C132.05 118.129 132.279 118.368 132.404 118.69C132.543 119.048 132.507 119.422 132.295 119.811C131.173 121.868 129.748 123.232 128.018 123.904C126.653 124.435 125.307 124.385 123.979 123.755C122.709 123.146 121.821 122.192 121.316 120.893C120.526 118.86 120.609 116.439 121.563 113.63C122.376 111.247 123.572 109.749 125.15 109.136C125.417 109.032 125.66 108.948 125.879 108.883C126.105 108.817 126.307 108.77 126.485 108.742C126.65 108.378 126.921 108.122 127.297 107.976C127.916 107.735 128.436 107.942 128.858 108.595C129.159 109.065 129.442 109.64 129.706 110.319C129.824 110.623 129.843 110.933 129.764 111.25C129.661 111.667 129.391 111.961 128.954 112.131ZM144.36 117.427C143.765 117.658 143.237 117.504 142.776 116.964C142.188 116.277 141.212 115.473 139.847 114.55C138.136 113.399 136.922 112.963 136.206 113.241L135.551 113.496C135.669 113.799 135.855 114.289 136.111 114.965C136.35 115.598 136.542 116.1 136.686 116.47C136.723 116.568 136.806 116.762 136.934 117.055C137.068 117.345 137.169 117.578 137.237 117.754C137.796 119.193 137.623 120.087 136.719 120.439C136.361 120.578 136.015 120.587 135.682 120.465C135.354 120.341 135.122 120.103 134.985 119.751C134.818 119.32 134.583 118.663 134.283 117.782C133.982 116.9 133.748 116.243 133.58 115.812C133.262 114.993 132.755 113.779 132.06 112.17C131.365 110.562 130.858 109.348 130.54 108.528C130.096 107.388 130.309 106.649 131.176 106.311C131.541 106.17 131.886 106.168 132.212 106.307C132.542 106.437 132.774 106.675 132.909 107.021C133.149 107.64 133.704 108.978 134.574 111.036C135.357 110.606 135.856 109.85 136.071 108.768C136.216 107.831 136.361 106.891 136.504 105.948C136.796 104.92 137.431 104.216 138.408 103.836C138.723 103.714 139.08 103.669 139.477 103.704C139.956 103.748 140.251 103.916 140.364 104.207C140.459 104.45 140.473 104.703 140.408 104.966C140.334 105.26 140.169 105.457 139.914 105.556C139.435 105.742 139.169 106.551 139.118 107.982C139.076 109.185 138.729 110.18 138.076 110.964C139.3 111.236 140.719 111.913 142.335 112.997C143.948 114.074 144.902 114.992 145.196 115.751C145.328 116.091 145.308 116.423 145.134 116.749C144.958 117.069 144.7 117.295 144.36 117.427ZM152.921 103.654C152.509 104.499 151.955 105.787 151.258 107.517C150.776 108.99 150.279 110.678 149.769 112.58C149.63 113.123 149.416 113.936 149.124 115.021C148.974 115.533 148.696 115.868 148.289 116.026C147.883 116.184 147.504 116.188 147.152 116.038C146.798 115.883 146.559 115.609 146.435 115.217C145.291 111.645 144.643 109.662 144.489 109.268C143.874 107.684 143.27 106.228 142.677 104.901C142.633 104.806 142.521 104.571 142.34 104.194C142.197 103.9 142.09 103.659 142.017 103.471C141.882 103.125 141.888 102.791 142.036 102.468C142.189 102.143 142.447 101.91 142.811 101.769C143.175 101.627 143.521 101.626 143.847 101.764C144.179 101.901 144.413 102.142 144.547 102.488C144.615 102.664 144.72 102.888 144.861 103.162C145.029 103.502 145.135 103.722 145.181 103.823C145.534 104.622 145.945 105.625 146.414 106.833C146.791 107.804 147.141 108.768 147.465 109.725C148.129 107.427 149.052 105.085 150.234 102.698C150.433 102.292 150.638 101.734 150.851 101.023C151.107 100.155 151.287 99.5852 151.392 99.3142C151.345 98.6899 151.637 98.2551 152.268 98.0098C152.632 97.8683 152.978 97.8596 153.305 97.9837C153.639 98.1055 153.874 98.3424 154.011 98.6943C154.157 99.0706 154.361 99.6408 154.623 100.405C154.883 101.163 155.085 101.727 155.229 102.098C155.394 102.522 155.637 103.165 155.957 104.025C156.275 104.88 156.517 105.519 156.682 105.944C156.896 106.496 157.194 107.334 157.575 108.457C157.961 109.578 158.263 110.418 158.48 110.976C158.612 111.316 158.602 111.648 158.449 111.973C158.296 112.298 158.04 112.53 157.682 112.669C157.318 112.811 156.97 112.813 156.637 112.677C156.305 112.541 156.073 112.303 155.941 111.963C155.721 111.399 155.416 110.55 155.024 109.417C154.637 108.275 154.334 107.425 154.117 106.867C153.959 106.461 153.758 105.924 153.513 105.258C153.21 104.426 153.013 103.891 152.921 103.654ZM174.169 106.89C174.205 106.981 174.266 107.111 174.352 107.28C174.441 107.455 174.503 107.588 174.539 107.679C174.673 108.025 174.664 108.36 174.511 108.685C174.358 109.01 174.099 109.244 173.735 109.385C173.183 109.6 172.718 109.518 172.341 109.141C172.1 108.899 171.863 108.478 171.63 107.877C171.545 107.659 171.447 107.354 171.338 106.964C170.591 107.254 169.215 107.803 167.21 108.61C165.233 109.399 163.859 109.944 163.088 110.243C163.391 111.076 163.581 111.592 163.659 111.792C163.793 112.138 163.784 112.473 163.631 112.798C163.484 113.121 163.228 113.353 162.864 113.495C162.5 113.636 162.152 113.639 161.819 113.502C161.493 113.364 161.263 113.121 161.128 112.776C161.025 112.509 160.875 112.106 160.68 111.567C160.484 111.028 160.335 110.625 160.231 110.358C160.118 110.193 160.055 110.095 160.043 110.065C159.803 109.446 160.086 108.881 160.894 108.372C161.101 105.344 160.602 102.283 159.4 99.188C159.312 98.9635 159.149 98.65 158.908 98.2474C158.672 97.8364 158.515 97.5308 158.437 97.3306C158.125 96.5296 158.544 95.899 159.692 95.4387L164.309 93.6235C164.291 93.6306 164.754 93.4296 165.699 93.0206C165.853 92.8419 166.045 92.7078 166.276 92.6182C166.64 92.4767 166.988 92.4741 167.32 92.6103C167.653 92.7466 167.886 92.9877 168.021 93.3336C168.259 93.9465 168.624 94.8592 169.116 96.0719C169.606 97.2785 169.969 98.1852 170.205 98.792C170.606 99.8236 171.248 101.575 172.132 104.047L172.219 104.055C172.861 104.001 173.299 104.274 173.533 104.875C173.617 105.093 173.724 105.429 173.851 105.882C173.978 106.336 174.084 106.672 174.169 106.89ZM166.042 95.737C165.698 95.8775 165.243 96.0543 164.677 96.2676C163.968 96.529 163.511 96.6998 163.304 96.78C162.916 96.9309 162.364 97.1558 161.649 97.4547C161.666 97.4972 161.768 97.7611 161.957 98.2466C162.431 99.4663 162.832 100.893 163.159 102.526C163.512 104.316 163.671 105.865 163.634 107.171C164.058 107.006 164.725 106.726 165.633 106.331C166.501 105.959 167.172 105.681 167.645 105.497C168.052 105.339 168.668 105.117 169.493 104.831C169.289 104.289 168.988 103.452 168.59 102.322C168.221 101.264 167.913 100.416 167.665 99.779C167.573 99.5423 167.032 98.195 166.042 95.737ZM184.447 101.848C183.852 102.079 183.324 101.925 182.863 101.385C182.275 100.698 181.299 99.8937 179.934 98.9711C178.223 97.8202 177.009 97.3839 176.293 97.6622L175.638 97.9169C175.756 98.2203 175.942 98.71 176.198 99.3859C176.437 100.019 176.629 100.521 176.773 100.891C176.81 100.988 176.893 101.183 177.021 101.476C177.155 101.766 177.256 101.999 177.324 102.175C177.883 103.614 177.71 104.508 176.806 104.86C176.448 104.999 176.102 105.008 175.769 104.886C175.441 104.762 175.209 104.524 175.072 104.172C174.904 103.741 174.67 103.084 174.37 102.202C174.069 101.321 173.835 100.664 173.667 100.233C173.349 99.4141 172.842 98.2001 172.147 96.5914C171.452 94.9826 170.945 93.7686 170.627 92.9494C170.183 91.8085 170.396 91.0695 171.263 90.7323C171.627 90.5908 171.973 90.5893 172.299 90.7279C172.629 90.8581 172.861 91.0962 172.996 91.4421C173.236 92.061 173.791 93.3994 174.661 95.4572C175.444 95.0273 175.943 94.2711 176.157 93.1888C176.303 92.252 176.448 91.3122 176.591 90.3694C176.883 89.341 177.518 88.6369 178.495 88.2572C178.81 88.1346 179.167 88.0903 179.564 88.1245C180.042 88.1691 180.338 88.337 180.451 88.6283C180.546 88.871 180.56 89.1238 180.495 89.3868C180.421 89.681 180.256 89.8777 180.001 89.9767C179.522 90.1631 179.256 90.9717 179.205 92.4027C179.163 93.6064 178.816 94.6004 178.163 95.3847C179.387 95.6567 180.806 96.3344 182.421 97.4179C184.035 98.4952 184.989 99.4132 185.283 100.172C185.415 100.512 185.395 100.844 185.221 101.17C185.045 101.49 184.787 101.716 184.447 101.848ZM197.6 96.9252C197.114 97.0933 196.412 96.7164 195.495 95.7946C194.895 95.2036 194.298 94.4856 193.704 93.6407C193.281 93.8819 192.573 94.234 191.579 94.697C190.646 95.1364 189.943 95.5006 189.469 95.7897C189.449 96.5657 189.354 97.7587 189.183 99.3686C189.086 99.9093 188.801 100.272 188.327 100.456C187.993 100.585 187.649 100.59 187.295 100.469C186.939 100.342 186.692 100.103 186.555 99.7508C186.435 99.4413 186.47 98.2194 186.66 96.0849C186.502 95.9298 186.397 95.768 186.346 95.5994C186.257 95.2987 186.463 94.9568 186.963 94.5736C187.245 92.7459 187.602 90.8259 188.036 88.8135C188.659 85.9241 189.146 84.411 189.498 84.2742C190.166 84.0148 190.769 84.245 191.307 84.9648C191.681 85.5669 192.25 86.4666 193.016 87.6638C194.065 89.2676 195.294 91.0914 196.703 93.1352C196.812 93.2886 197.122 93.629 197.635 94.1563C198.056 94.5933 198.317 94.9422 198.419 95.2032C198.555 95.5551 198.536 95.9013 198.361 96.2417C198.192 96.5798 197.939 96.8076 197.6 96.9252ZM190.575 88.9056C190.418 89.9027 190.196 91.2637 189.91 92.9886C190.159 92.8217 190.565 92.6081 191.127 92.3477C191.79 92.0411 192.205 91.8414 192.372 91.7488C191.92 91.0165 191.321 90.0688 190.575 88.9056ZM217.017 89.086C216.865 89.1449 216.619 89.2126 216.278 89.2891C215.941 89.3571 215.703 89.4182 215.564 89.4725L212.884 90.5034C212.653 90.593 212.316 90.7589 211.873 91.0012C211.427 91.2374 211.085 91.4015 210.849 91.4935C210.782 91.5194 210.68 91.545 210.543 91.5703C210.406 91.5955 210.305 91.6211 210.238 91.6471C209.692 91.8593 209.235 91.7817 208.869 91.4142C208.639 91.1822 208.411 90.7749 208.185 90.1924C207.744 89.0576 207.626 88.0101 207.833 87.0497C207.993 86.3102 208.392 85.4775 209.031 84.5516C209.64 83.6931 210.248 82.8389 210.853 81.9889C211.541 80.9184 211.713 79.9402 211.368 79.0542C211.279 78.8236 210.999 78.6704 210.529 78.5944C210.058 78.5124 209.64 78.5421 209.275 78.6836C208.632 78.9336 208.062 79.4872 207.563 80.3443C207.069 81.193 206.688 81.6692 206.421 81.773C206.1 81.898 205.787 81.9288 205.483 81.8653C205.104 81.789 204.847 81.578 204.713 81.2321C204.569 80.8619 204.597 80.4844 204.797 80.0995C205.279 79.1648 205.735 78.4427 206.165 77.9331C206.787 77.1956 207.519 76.663 208.363 76.3352C209.413 75.9272 210.466 75.8354 211.525 76.0598C212.735 76.316 213.538 76.9538 213.934 77.9732C214.335 79.0048 214.439 79.9737 214.246 80.8797C214.1 81.6001 213.733 82.389 213.144 83.2464C212.572 84.0206 211.998 84.7918 211.424 85.5599C210.563 86.7604 210.278 87.8596 210.568 88.8575C210.885 88.6853 211.358 88.4457 211.986 88.1388C213.253 87.5697 214.165 87.1767 214.723 86.9597C215.245 86.7569 215.805 86.6687 216.402 86.6951C217.141 86.729 217.596 86.9644 217.766 87.4013C217.888 87.7169 217.883 88.0366 217.751 88.3605C217.613 88.7074 217.368 88.9492 217.017 89.086ZM224.551 86.7971C222.694 87.5187 221.068 87.3891 219.674 86.4082C219.433 86.2365 219.271 86.0445 219.188 85.8321C219.061 85.5044 219.083 85.1746 219.254 84.8426C219.426 84.5106 219.678 84.2797 220.012 84.15C220.352 84.018 220.693 84.0322 221.034 84.1927C221.631 84.4706 221.954 84.6177 222.002 84.6339C222.459 84.7496 223.003 84.6848 223.634 84.4396C224.569 84.0764 225.215 83.4305 225.574 82.5019C225.918 81.6069 225.907 80.6892 225.541 79.7486C225.19 78.8444 224.775 78.2268 224.297 77.8957C223.825 77.5622 223.286 77.5133 222.679 77.7492C221.611 78.1642 220.887 78.8438 220.507 79.7879C220.365 80.1783 220.219 80.5667 220.069 80.9534C219.861 81.3902 219.573 81.6805 219.203 81.8244C218.857 81.9588 218.516 81.9549 218.182 81.8125C217.853 81.6678 217.626 81.4347 217.501 81.1131C217.447 80.9735 217.293 80.4255 217.04 79.4691C216.55 77.6133 216.19 76.3911 215.961 75.8024C215.905 75.6568 215.772 75.4778 215.564 75.2654C215.362 75.0506 215.232 74.8704 215.176 74.7247C215.058 74.4213 215.123 74.1306 215.371 73.8525C215.567 73.6369 215.828 73.4653 216.156 73.338C216.277 73.2908 216.464 73.2322 216.716 73.1621C216.972 73.0837 217.161 73.0208 217.282 72.9737L221.664 71.2812C221.773 71.2388 222 71.1298 222.344 70.9542C222.687 70.7787 222.917 70.6685 223.032 70.6237C223.36 70.4963 223.671 70.4976 223.966 70.6274C224.259 70.7512 224.469 70.977 224.596 71.3046C224.947 72.2088 224.204 73.0182 222.365 73.7328C222.219 73.7894 222.033 73.8582 221.806 73.9394C221.586 74.0183 221.439 74.0718 221.366 74.1001L218.653 75.1543C218.779 75.5315 218.941 76.1739 219.14 77.0814C219.784 76.3841 220.659 75.8209 221.763 75.3916C223.238 74.8186 224.571 74.9326 225.762 75.7338C226.751 76.3904 227.511 77.4044 228.044 78.7758C228.686 80.4264 228.707 81.9898 228.107 83.4662C227.484 85.0076 226.298 86.1179 224.551 86.7971ZM231.113 73.1932C230.149 73.5681 229.261 73.5395 228.45 73.1071C227.706 72.7189 227.159 72.0758 226.81 71.1777C226.546 70.4981 226.654 69.7332 227.133 68.8832C227.586 68.0715 228.156 67.5325 228.841 67.266C229.837 66.8792 230.752 66.89 231.589 67.2985C232.38 67.6823 232.958 68.3414 233.321 69.2759C233.642 70.1012 233.545 70.9036 233.031 71.6832C232.578 72.3691 231.939 72.8724 231.113 73.1932ZM237.119 66.4062C237.033 66.8309 236.972 67.375 236.937 68.0384C236.886 68.987 236.855 69.5368 236.844 69.6878C236.745 70.6552 236.623 72.1103 236.477 74.0529C236.476 74.1231 236.326 75.7598 236.027 78.9632C236.014 79.4853 235.965 80.2659 235.879 81.3048C235.81 81.8276 235.557 82.1739 235.12 82.3437C234.829 82.4569 234.526 82.4594 234.211 82.3511C233.897 82.2428 233.681 82.037 233.563 81.7335C233.438 81.4119 233.477 80.1568 233.682 77.968L234.076 74.0221C234.2 72.6535 234.346 70.6026 234.514 67.8695C234.56 66.245 234.895 65.3113 235.52 65.0684C235.824 64.9505 236.132 64.9529 236.445 65.0757C236.762 65.1901 236.978 65.3959 237.094 65.6933C237.169 65.8874 237.178 66.1251 237.119 66.4062ZM242.13 79.5147C241.208 79.8731 240.336 79.9045 239.516 79.6086C238.65 79.3027 238.043 78.7037 237.696 77.8117C237.331 76.8711 237.308 75.9756 237.627 75.1252C237.969 74.2097 238.641 73.5574 239.643 73.1683C240.541 72.8192 241.43 72.753 242.31 72.9696C243.31 73.2237 243.983 73.7967 244.33 74.6888C244.71 75.6658 244.694 76.6147 244.284 77.5355C243.88 78.454 243.162 79.1138 242.13 79.5147ZM229.652 69.4339C229.452 69.5117 229.292 69.6473 229.171 69.8408C229.049 70.0282 229.011 70.1826 229.058 70.304C229.195 70.6559 229.364 70.8939 229.566 71.018C229.774 71.1398 230.012 71.1488 230.279 71.045C230.558 70.9365 230.771 70.7941 230.919 70.6179C231.065 70.4355 231.113 70.2806 231.064 70.1532C230.92 69.7831 230.73 69.5388 230.496 69.4204C230.261 69.302 229.98 69.3065 229.652 69.4339ZM240.477 75.3164C240.144 75.4461 239.932 75.6472 239.842 75.9195C239.756 76.1835 239.793 76.5217 239.954 76.9344C240.06 77.2075 240.24 77.3749 240.495 77.4366C240.755 77.496 241.089 77.4467 241.495 77.2887C241.908 77.1283 242.154 76.9246 242.232 76.6775C242.315 76.422 242.261 76.0515 242.073 75.5661C241.995 75.3658 241.796 75.2405 241.476 75.1902C241.162 75.1376 240.829 75.1797 240.477 75.3164ZM72.7462 156.35C72.797 156.84 72.886 157.249 73.0134 157.577C73.0794 157.747 73.1638 158.018 73.2665 158.39C73.373 158.754 73.4592 159.02 73.5252 159.19C73.7493 159.767 74.0515 160.634 74.4318 161.793C74.8121 162.951 75.1143 163.818 75.3383 164.395C75.5105 164.838 75.8009 165.486 76.2096 166.34C76.6183 167.194 76.9088 167.843 77.0809 168.286C77.2106 168.619 77.202 168.948 77.0549 169.27C76.9079 169.593 76.6584 169.822 76.3064 169.959C75.9484 170.098 75.5941 170.103 75.2435 169.974C74.8954 169.851 74.6576 169.626 74.5302 169.298C74.3581 168.855 74.0786 168.199 73.6918 167.329C73.3111 166.457 73.0346 165.8 72.8625 165.357C72.7281 165.011 72.615 164.702 72.5234 164.431C71.5872 164.843 70.4677 165.45 69.165 166.249C68.0824 166.914 67.0011 167.583 65.9209 168.254C66.0691 168.671 66.2943 169.376 66.5964 170.37C66.8659 171.243 67.1056 171.949 67.3155 172.489C67.4452 172.823 67.4365 173.151 67.2895 173.474C67.1424 173.796 66.8929 174.026 66.541 174.163C66.189 174.3 65.8499 174.299 65.5236 174.16C65.1973 174.022 64.9693 173.785 64.8396 173.452C64.6014 172.839 64.2969 171.902 63.9261 170.643C63.5613 169.38 63.2598 168.443 63.0216 167.83C62.7197 167.053 62.2839 165.878 61.7143 164.304C61.1422 162.725 60.7053 161.546 60.4034 160.77C60.2737 160.436 60.2824 160.108 60.4294 159.785C60.5765 159.462 60.826 159.233 61.1779 159.096C61.5299 158.959 61.869 158.96 62.1953 159.099C62.5216 159.237 62.7496 159.474 62.8793 159.807C63.0585 160.269 63.3103 160.97 63.6347 161.913C63.9629 162.847 64.2165 163.545 64.3958 164.006C64.4547 164.158 64.5467 164.457 64.6716 164.905C64.7909 165.319 64.8948 165.632 64.9834 165.842L68.224 163.828C69.4951 163.055 70.6181 162.457 71.593 162.037C71.4593 161.621 71.0743 160.513 70.4379 158.714C70.2684 158.242 70.2023 157.649 70.2396 156.936C70.2893 156.058 70.5296 155.535 70.9605 155.368C71.2821 155.243 71.6086 155.238 71.9399 155.354C72.2965 155.48 72.542 155.717 72.6765 156.063C72.7118 156.154 72.7351 156.249 72.7462 156.35ZM89.8013 164.568C89.3148 164.736 88.613 164.359 87.696 163.437C87.0961 162.846 86.4993 162.128 85.9055 161.283C85.4824 161.525 84.7741 161.877 83.7805 162.34C82.8477 162.779 82.1441 163.143 81.6697 163.432C81.65 164.208 81.5548 165.401 81.3843 167.011C81.2871 167.552 81.0018 167.914 80.5285 168.098C80.1947 168.228 79.8507 168.232 79.4964 168.112C79.1398 167.985 78.8931 167.746 78.7563 167.394C78.6361 167.084 78.6711 165.862 78.8613 163.728C78.7033 163.573 78.5985 163.411 78.5469 163.242C78.458 162.941 78.6639 162.6 79.1645 162.216C79.4461 160.389 79.8035 158.469 80.2368 156.456C80.86 153.567 81.3476 152.054 81.6996 151.917C82.3671 151.658 82.97 151.888 83.5081 152.608C83.8819 153.21 84.4515 154.109 85.2171 155.307C86.2665 156.91 87.4956 158.734 88.9046 160.778C89.0131 160.931 89.3235 161.272 89.8358 161.799C90.257 162.236 90.5184 162.585 90.6198 162.846C90.7566 163.198 90.7374 163.544 90.5624 163.884C90.3934 164.223 90.1397 164.45 89.8013 164.568ZM82.7766 156.548C82.6193 157.545 82.3974 158.906 82.1108 160.631C82.3603 160.464 82.7662 160.251 83.3285 159.99C83.9916 159.684 84.4065 159.484 84.573 159.392C84.1208 158.659 83.522 157.712 82.7766 156.548ZM112.321 155.816C111.834 155.984 111.132 155.607 110.215 154.686C109.615 154.095 109.019 153.377 108.425 152.532C108.002 152.773 107.293 153.125 106.3 153.588C105.367 154.027 104.663 154.392 104.189 154.681C104.169 155.457 104.074 156.65 103.904 158.26C103.806 158.8 103.521 159.163 103.048 159.347C102.714 159.476 102.37 159.481 102.016 159.36C101.659 159.233 101.412 158.994 101.276 158.642C101.155 158.332 101.19 157.11 101.381 154.976C101.223 154.821 101.118 154.659 101.066 154.49C100.977 154.19 101.183 153.848 101.684 153.465C101.965 151.637 102.323 149.717 102.756 147.705C103.379 144.815 103.867 143.302 104.219 143.165C104.886 142.906 105.489 143.136 106.027 143.856C106.401 144.458 106.971 145.358 107.736 146.555C108.786 148.159 110.015 149.982 111.424 152.026C111.532 152.18 111.843 152.52 112.355 153.047C112.776 153.484 113.038 153.833 113.139 154.094C113.276 154.446 113.257 154.792 113.082 155.133C112.913 155.471 112.659 155.699 112.321 155.816ZM105.296 147.797C105.139 148.794 104.917 150.155 104.63 151.88C104.88 151.713 105.286 151.499 105.848 151.239C106.511 150.932 106.926 150.732 107.092 150.64C106.64 149.908 106.041 148.96 105.296 147.797ZM119.655 152.798C119.37 152.909 118.974 153.049 118.467 153.218C117.887 153.415 117.49 153.552 117.275 153.629C117.156 153.717 117.029 153.787 116.896 153.839C116.004 154.186 115.315 153.734 114.829 152.484C114.765 152.32 114.608 151.791 114.358 150.896C114.03 149.711 113.673 148.62 113.286 147.625C113.06 147.042 112.692 146.186 112.183 145.057C111.675 143.928 111.307 143.072 111.081 142.489C110.793 141.749 110.665 141.24 110.697 140.962C110.751 140.473 111.152 140.083 111.898 139.793C112.353 139.616 113.035 139.341 113.944 138.966C114.857 138.584 115.544 138.303 116.006 138.124L118.299 137.232C118.664 137.091 119.009 137.089 119.335 137.228C119.665 137.358 119.897 137.596 120.032 137.942C120.166 138.288 120.157 138.623 120.004 138.948C119.854 139.265 119.597 139.494 119.233 139.635C118.572 139.892 116.76 140.621 113.797 141.821C114.122 142.568 114.489 143.379 114.899 144.253C115.21 144.118 115.468 144.011 115.675 143.931C117.604 143.181 119.136 142.917 120.271 143.14C121.696 143.41 122.759 144.447 123.459 146.249C124.053 147.778 123.94 149.139 123.118 150.331C122.417 151.351 121.263 152.173 119.655 152.798ZM116.993 146.163C116.696 146.279 116.322 146.442 115.873 146.651C115.931 146.782 115.988 146.921 116.045 147.066C116.299 147.722 116.718 149.005 117.3 150.916C117.875 150.707 118.348 150.53 118.718 150.386C120.702 149.615 121.436 148.565 120.919 147.236C120.561 146.313 120.066 145.794 119.433 145.676C118.917 145.569 118.103 145.732 116.993 146.163ZM133.111 148.061C131.315 148.759 129.585 148.838 127.922 148.297C126.146 147.716 124.917 146.549 124.235 144.795C123.433 142.732 123.348 140.599 123.981 138.398C124.688 135.923 126.143 134.257 128.346 133.401C130.464 132.578 132.239 132.447 133.672 133.007C135.106 133.568 136.201 134.822 136.958 136.77C137.76 138.833 137.891 140.933 137.353 143.07C136.734 145.539 135.32 147.203 133.111 148.061ZM129.305 135.868C127.951 136.394 127.047 137.499 126.592 139.185C126.164 140.762 126.24 142.297 126.82 143.79C127.212 144.797 127.921 145.465 128.949 145.791C129.938 146.106 131.005 146.04 132.152 145.594C133.487 145.076 134.346 143.988 134.729 142.33C135.083 140.816 134.965 139.298 134.373 137.775C133.878 136.5 133.248 135.725 132.484 135.449C131.754 135.188 130.694 135.328 129.305 135.868ZM149.388 126.564C149.439 127.054 149.528 127.463 149.656 127.791C149.722 127.961 149.806 128.232 149.909 128.604C150.015 128.968 150.101 129.235 150.167 129.405C150.391 129.981 150.694 130.849 151.074 132.007C151.454 133.165 151.756 134.033 151.981 134.609C152.153 135.052 152.443 135.701 152.852 136.555C153.261 137.409 153.551 138.057 153.723 138.5C153.853 138.834 153.844 139.162 153.697 139.485C153.55 139.807 153.301 140.037 152.949 140.174C152.591 140.313 152.236 140.318 151.886 140.188C151.538 140.065 151.3 139.84 151.172 139.512C151 139.069 150.721 138.413 150.334 137.544C149.953 136.672 149.677 136.014 149.505 135.571C149.37 135.226 149.257 134.917 149.166 134.645C148.229 135.058 147.11 135.664 145.807 136.464C144.725 137.129 143.643 137.797 142.563 138.468C142.711 138.886 142.936 139.591 143.239 140.584C143.508 141.457 143.748 142.164 143.958 142.704C144.087 143.038 144.079 143.366 143.932 143.688C143.785 144.011 143.535 144.241 143.183 144.377C142.831 144.514 142.492 144.513 142.166 144.375C141.84 144.236 141.612 144 141.482 143.666C141.244 143.053 140.939 142.117 140.568 140.857C140.203 139.595 139.902 138.657 139.664 138.044C139.362 137.268 138.926 136.092 138.356 134.519C137.784 132.939 137.347 131.761 137.046 130.984C136.916 130.65 136.925 130.322 137.072 129.999C137.219 129.677 137.468 129.447 137.82 129.31C138.172 129.174 138.511 129.175 138.837 129.313C139.164 129.452 139.392 129.688 139.521 130.022C139.701 130.483 139.953 131.185 140.277 132.127C140.605 133.062 140.859 133.759 141.038 134.22C141.097 134.372 141.189 134.672 141.314 135.119C141.433 135.534 141.537 135.846 141.626 136.056L144.866 134.042C146.137 133.269 147.26 132.672 148.235 132.251C148.102 131.835 147.716 130.727 147.08 128.928C146.911 128.456 146.845 127.864 146.882 127.151C146.932 126.272 147.172 125.749 147.603 125.582C147.924 125.457 148.251 125.452 148.582 125.568C148.939 125.695 149.184 125.931 149.319 126.277C149.354 126.368 149.377 126.464 149.388 126.564ZM161.852 125.933C161.44 126.777 160.885 128.065 160.189 129.795C159.706 131.268 159.21 132.956 158.699 134.858C158.561 135.401 158.346 136.215 158.055 137.299C157.905 137.811 157.626 138.146 157.22 138.304C156.813 138.462 156.434 138.466 156.083 138.317C155.729 138.161 155.489 137.887 155.365 137.495C154.222 133.923 153.573 131.94 153.42 131.546C152.804 129.962 152.2 128.506 151.608 127.179C151.564 127.084 151.451 126.849 151.27 126.472C151.128 126.178 151.02 125.937 150.947 125.749C150.813 125.403 150.819 125.069 150.966 124.746C151.119 124.421 151.378 124.188 151.742 124.047C152.106 123.905 152.451 123.904 152.777 124.042C153.11 124.179 153.343 124.42 153.477 124.766C153.546 124.942 153.651 125.166 153.792 125.44C153.959 125.78 154.066 126 154.112 126.101C154.464 126.9 154.875 127.904 155.344 129.111C155.722 130.082 156.072 131.046 156.395 132.003C157.059 129.705 157.983 127.363 159.164 124.976C159.363 124.57 159.569 124.012 159.781 123.301C160.037 122.433 160.218 121.863 160.322 121.592C160.275 120.968 160.567 120.533 161.198 120.288C161.562 120.146 161.908 120.138 162.236 120.262C162.569 120.384 162.805 120.62 162.941 120.972C163.088 121.349 163.292 121.919 163.554 122.683C163.814 123.441 164.015 124.006 164.159 124.376C164.324 124.8 164.567 125.443 164.887 126.303C165.205 127.158 165.447 127.797 165.612 128.222C165.827 128.774 166.124 129.612 166.505 130.735C166.892 131.856 167.194 132.696 167.411 133.254C167.543 133.594 167.532 133.926 167.379 134.251C167.226 134.576 166.97 134.808 166.612 134.947C166.248 135.089 165.9 135.091 165.568 134.955C165.235 134.819 165.003 134.581 164.871 134.241C164.652 133.677 164.346 132.828 163.955 131.695C163.567 130.553 163.265 129.703 163.048 129.145C162.89 128.739 162.688 128.202 162.443 127.536C162.141 126.704 161.944 126.169 161.852 125.933ZM170.925 124.449C171.034 125.539 171.228 127.171 171.508 129.346C171.659 130.077 171.812 130.803 171.967 131.525C172.053 132.484 171.762 133.092 171.095 133.352C170.676 133.515 170.29 133.501 169.936 133.31C169.636 133.147 169.42 132.899 169.291 132.565C168.909 131.582 168.652 130.302 168.521 128.726C168.323 126.365 168.204 125.06 168.163 124.81C167.976 123.808 167.791 122.803 167.61 121.798C167.383 120.406 167.345 119.436 167.496 118.888C167.65 118.332 167.97 117.96 168.455 117.771C169.007 117.557 169.522 117.678 170 118.135C170.448 118.568 171.129 119.547 172.042 121.071C172.925 122.551 173.985 124.102 175.223 125.723C175.214 123.652 175.089 121.424 174.846 119.038L174.542 116.747C174.533 115.752 174.871 115.121 175.557 114.854C176.218 114.597 176.905 114.91 177.618 115.792C177.91 116.147 178.347 116.85 178.931 117.902C180.287 120.35 181.591 122.393 182.842 124.03C184.111 125.695 184.777 126.61 184.841 126.774C184.98 127.132 184.954 127.487 184.763 127.841C184.581 128.163 184.323 128.389 183.989 128.519C183.328 128.776 182.652 128.494 181.963 127.672L180.597 125.667C179.881 124.688 178.956 123.242 177.821 121.329C177.864 122.248 177.909 123.702 177.954 125.688L178.059 127.575C178.092 128.324 178.069 128.958 177.992 129.477C177.889 130.167 177.55 130.623 176.973 130.847C176.403 131.069 175.835 130.902 175.27 130.346L174.102 128.851C173.025 127.482 171.966 126.015 170.925 124.449ZM190.921 111.524C190.799 111.571 190.665 111.602 190.517 111.618C189.43 111.733 188.423 111.971 187.494 112.331C187.039 112.508 186.565 112.734 186.071 113.01C185.578 113.286 185.065 113.611 184.533 113.985C184.847 114.792 185.285 116.001 185.848 117.612C186.179 117.456 187.321 116.883 189.277 115.893C190.391 115.327 191.103 114.984 191.412 114.863C191.77 114.724 192.121 114.721 192.466 114.852C192.808 114.978 193.052 115.228 193.198 115.605C193.479 116.327 193.253 116.886 192.52 117.283C192.049 117.508 191.347 117.85 190.415 118.31C189.591 118.742 188.339 119.365 186.657 120.179C186.914 120.966 187.135 121.597 187.319 122.07C187.781 123.259 188.114 123.909 188.317 124.019C188.414 124.071 188.812 123.962 189.51 123.691C189.886 123.545 190.45 123.315 191.201 123.002C191.953 122.689 192.517 122.46 192.893 122.313C193.014 122.266 193.186 122.179 193.409 122.05C193.631 121.922 193.8 121.835 193.916 121.79C194.267 121.654 194.607 121.637 194.933 121.741C195.306 121.854 195.571 122.114 195.729 122.521C195.993 123.201 195.796 123.745 195.138 124.155C194.576 124.506 193.339 125.053 191.428 125.796C189.45 126.564 188.056 126.798 187.248 126.498C186.358 126.166 185.532 125.021 184.77 123.061C184.454 122.247 184.038 121.005 183.521 119.334C183.008 117.655 182.595 116.411 182.281 115.604C182.198 115.392 182.047 115.091 181.826 114.702C181.602 114.307 181.449 114.003 181.367 113.791C181.008 112.868 181.254 112.242 182.103 111.912C182.37 111.808 182.646 111.789 182.929 111.853C183.565 111.403 184.181 111.014 184.779 110.683C185.381 110.345 185.964 110.066 186.529 109.846C188.058 109.252 189.349 108.953 190.402 108.949C191.043 108.944 191.472 109.221 191.689 109.779C191.811 110.095 191.811 110.416 191.687 110.744C191.552 111.118 191.297 111.377 190.921 111.524ZM205.769 104.653C205.819 105.143 205.908 105.552 206.036 105.88C206.102 106.05 206.186 106.321 206.289 106.693C206.395 107.057 206.482 107.324 206.548 107.494C206.772 108.07 207.074 108.937 207.454 110.096C207.835 111.254 208.137 112.122 208.361 112.698C208.533 113.141 208.823 113.79 209.232 114.643C209.641 115.497 209.931 116.146 210.103 116.589C210.233 116.923 210.224 117.251 210.077 117.573C209.93 117.896 209.681 118.126 209.329 118.262C208.971 118.402 208.617 118.407 208.266 118.277C207.918 118.154 207.68 117.929 207.553 117.601C207.381 117.158 207.101 116.502 206.714 115.632C206.334 114.761 206.057 114.103 205.885 113.66C205.751 113.314 205.637 113.006 205.546 112.734C204.61 113.147 203.49 113.753 202.187 114.552C201.105 115.218 200.024 115.886 198.943 116.557C199.092 116.974 199.317 117.68 199.619 118.673C199.888 119.546 200.128 120.253 200.338 120.793C200.468 121.126 200.459 121.455 200.312 121.777C200.165 122.1 199.915 122.329 199.563 122.466C199.211 122.603 198.872 122.602 198.546 122.463C198.22 122.325 197.992 122.089 197.862 121.755C197.624 121.142 197.319 120.206 196.949 118.946C196.584 117.684 196.282 116.746 196.044 116.133C195.742 115.356 195.306 114.181 194.737 112.608C194.165 111.028 193.728 109.85 193.426 109.073C193.296 108.739 193.305 108.411 193.452 108.088C193.599 107.766 193.848 107.536 194.2 107.399C194.552 107.262 194.891 107.263 195.218 107.402C195.544 107.541 195.772 107.777 195.902 108.111C196.081 108.572 196.333 109.274 196.657 110.216C196.985 111.15 197.239 111.848 197.418 112.309C197.477 112.461 197.569 112.761 197.694 113.208C197.813 113.623 197.917 113.935 198.006 114.145L201.246 112.131C202.518 111.358 203.641 110.761 204.615 110.34C204.482 109.924 204.097 108.816 203.46 107.017C203.291 106.545 203.225 105.953 203.262 105.24C203.312 104.361 203.552 103.838 203.983 103.671C204.305 103.546 204.631 103.541 204.962 103.657C205.319 103.784 205.564 104.02 205.699 104.366C205.734 104.457 205.758 104.553 205.769 104.653ZM218.895 101.522C218.422 101.706 217.671 101.959 216.644 102.281C215.653 102.589 214.904 102.846 214.397 103.05C214.69 103.732 215.251 104.932 216.079 106.65C216.815 108.166 217.359 109.379 217.713 110.289C217.793 110.496 217.934 110.794 218.134 111.184C218.335 111.574 218.475 111.872 218.555 112.078C218.732 112.534 218.794 112.981 218.742 113.42C218.674 113.984 218.41 114.356 217.949 114.535C217.615 114.665 217.28 114.673 216.942 114.56C216.565 114.434 216.307 114.192 216.168 113.834C216.135 113.749 216.1 113.616 216.065 113.434C216.027 113.246 215.99 113.107 215.954 113.016C215.846 112.737 215.661 112.323 215.399 111.775C215.143 111.225 214.96 110.807 214.849 110.522C214.533 109.709 214.041 108.632 213.374 107.292C212.608 105.753 212.095 104.685 211.835 104.087L211.362 104.271C210.008 104.797 208.897 105.117 208.026 105.232C207.289 105.33 206.798 105.063 206.552 104.432C206.432 104.123 206.433 103.801 206.555 103.468C206.694 103.071 206.976 102.808 207.4 102.678C207.617 102.608 208.12 102.472 208.908 102.27C209.534 102.104 210.033 101.948 210.403 101.804C210.773 101.661 211.323 101.44 212.053 101.142C212.788 100.843 213.341 100.621 213.711 100.477C214.172 100.298 214.877 100.062 215.825 99.7704C216.771 99.4726 217.475 99.2341 217.936 99.0549C218.3 98.9134 218.65 98.9138 218.984 99.0561C219.325 99.1961 219.563 99.439 219.697 99.7849C219.832 100.131 219.822 100.473 219.667 100.813C219.516 101.144 219.259 101.38 218.895 101.522ZM235.857 102.787C235.632 103 235.379 103.706 235.098 104.905C234.844 105.996 234.716 106.755 234.715 107.181C234.717 107.781 234.442 108.188 233.89 108.403C233.587 108.521 233.283 108.538 232.978 108.454C232.639 108.355 232.409 108.151 232.289 107.841C232.096 107.344 232.134 106.508 232.404 105.334C232.665 104.227 233.013 103.296 233.446 102.541C233.129 102.391 232.764 102.117 232.351 101.719C231.882 101.266 231.539 100.97 231.324 100.83C231.084 100.679 230.9 100.628 230.773 100.677C230.512 100.779 230.262 100.774 230.024 100.665C229.789 100.546 229.621 100.356 229.52 100.096C229.425 99.8528 229.517 99.566 229.793 99.235C230.036 98.9448 230.298 98.7455 230.577 98.637C231.166 98.4082 231.747 98.4756 232.321 98.8391C232.476 98.9325 232.923 99.3178 233.661 99.9948C233.89 100.206 234.062 100.335 234.178 100.381C234.342 100.443 234.561 100.441 234.836 100.376C234.521 99.6744 234.276 99.0959 234.099 98.6408C233.743 97.7245 233.968 97.1095 234.775 96.7959C235.103 96.6685 235.421 96.6602 235.729 96.7708C236.041 96.873 236.256 97.0758 236.374 97.3792C236.53 97.7797 236.818 98.4747 237.237 99.4642C237.603 99.2731 237.824 98.9985 237.902 98.6401C237.929 98.2801 237.961 97.922 237.997 97.5657C238.058 96.9485 238.149 96.5008 238.272 96.2227C238.47 95.7616 238.815 95.4356 239.306 95.2445C239.579 95.1384 239.903 95.1102 240.279 95.1598C240.706 95.2172 240.967 95.3673 241.062 95.61C241.163 95.871 241.164 96.1255 241.065 96.3735C240.972 96.6193 240.795 96.7928 240.534 96.8942C240.346 96.9673 240.209 97.3523 240.124 98.049C240.093 98.4731 240.058 98.8953 240.019 99.3157C239.975 99.5981 239.908 99.8477 239.817 100.064C240.646 100.329 241.531 100.781 242.472 101.422C243.464 102.105 244.056 102.695 244.25 103.193C244.372 103.508 244.341 103.814 244.155 104.11C243.987 104.378 243.751 104.57 243.448 104.688C242.896 104.903 242.419 104.791 242.018 104.353C241.729 104.04 241.127 103.568 240.212 102.939C239.205 102.255 238.538 101.903 238.209 101.884C238.258 102.011 238.369 102.304 238.539 102.761C238.672 103.122 238.783 103.414 238.87 103.639C238.901 103.718 238.957 103.853 239.038 104.045C239.126 104.234 239.191 104.384 239.233 104.493C239.674 105.628 239.482 106.355 238.657 106.676C238.335 106.801 238.027 106.816 237.731 106.721C237.407 106.624 237.184 106.417 237.061 106.102C236.955 105.829 236.802 105.399 236.602 104.813C236.406 104.219 236.255 103.785 236.149 103.512C236.048 103.251 235.95 103.01 235.857 102.787ZM255.755 102.441C255.178 102.665 254.7 102.568 254.321 102.149C254.08 101.887 253.842 101.421 253.61 100.75L248.922 102.571C248.873 102.59 248.469 102.782 247.71 103.147C247.748 103.244 247.811 103.398 247.9 103.608C247.991 103.824 248.059 103.99 248.103 104.105C248.238 104.451 248.227 104.783 248.072 105.102C247.922 105.419 247.666 105.648 247.302 105.789C246.428 106.129 245.782 105.761 245.365 104.687C245.28 104.469 245.171 104.172 245.04 103.797C244.908 103.422 244.801 103.129 244.718 102.916C244.582 102.564 244.591 102.229 244.746 101.91C244.891 101.617 245.137 101.395 245.484 101.246C245.727 100.272 245.744 99.2209 245.537 98.0932C245.386 97.2926 245.075 96.2854 244.603 95.0718C244.139 93.8763 244.556 93.0263 245.854 92.5216C246.006 92.4626 246.293 92.3651 246.715 92.229C247.141 92.0845 247.475 91.9651 247.718 91.8707C247.948 91.7811 248.284 91.6297 248.725 91.4164C249.166 91.2031 249.487 91.0576 249.687 90.9797C250.294 90.7439 250.786 90.8146 251.163 91.1919C251.39 91.4178 251.628 91.8494 251.876 92.4865C251.977 92.7475 252.11 93.1429 252.274 93.6729C252.444 94.2005 252.58 94.5947 252.681 94.8557C252.771 95.0863 253.216 96.1878 254.018 98.1603C254.912 97.9104 255.497 98.1374 255.77 98.8413C255.862 99.078 255.993 99.3973 256.163 99.7991C256.333 100.201 256.463 100.517 256.553 100.748C256.687 101.094 256.677 101.426 256.521 101.745C256.374 102.067 256.119 102.3 255.755 102.441ZM248.135 100.331L251.439 99.0472C250.633 97.0625 250.2 95.9943 250.141 95.8426C250.047 95.5999 249.922 95.2329 249.766 94.7417C249.571 94.1329 249.448 93.7617 249.396 93.6282C248.334 94.076 247.623 94.3592 247.264 94.4777C248.025 96.5986 248.316 98.5498 248.135 100.331ZM261.857 97.8693C260.406 98.433 259.086 98.5481 257.894 98.2148C256.578 97.8464 255.65 96.9674 255.109 95.5778C254.513 94.0425 254.412 92.587 254.806 91.2114C255.247 89.6852 256.228 88.6261 257.752 88.0341C258.807 87.6238 259.75 87.4529 260.58 87.5215C261.671 87.6145 262.4 88.1343 262.768 89.0809C263.028 89.7484 262.885 90.4851 262.339 91.291C262.091 91.6597 261.543 92.2709 260.694 93.1246L258.153 95.673C258.567 95.8753 259.011 95.9752 259.485 95.9726C259.959 95.97 260.463 95.865 260.997 95.6574C261.81 95.3414 262.434 94.9069 262.869 94.3538C263.257 93.8607 263.603 93.5552 263.906 93.4373C264.537 93.192 264.972 93.3759 265.21 93.9887C265.479 94.6805 265.192 95.4418 264.348 96.2726C263.64 96.9668 262.809 97.4991 261.857 97.8693ZM258.608 90.2369C258.043 90.4562 257.634 90.8318 257.38 91.3637C257.125 91.8956 257.023 92.5849 257.073 93.4317C257.643 92.8679 258.211 92.3083 258.778 91.7529C259.453 91.0643 259.972 90.468 260.335 89.9637C259.839 89.8912 259.263 89.9822 258.608 90.2369ZM259.5 85.0917C259.142 85.2308 258.767 85.2646 258.376 85.193C257.91 85.1087 257.609 84.8905 257.472 84.5385C257.142 83.689 257.608 83.0189 258.87 82.5284C259.198 82.4011 259.565 82.3841 259.972 82.4776C260.438 82.5825 260.739 82.8079 260.874 83.1538C261.032 83.5604 260.948 83.9561 260.622 84.341C260.353 84.6551 259.979 84.9054 259.5 85.0917ZM255.577 86.6163C254.448 87.055 253.716 86.8434 253.381 85.9817C253.268 85.6905 253.35 85.3443 253.627 84.9432C253.887 84.5698 254.184 84.3182 254.518 84.1885C255.689 83.7333 256.441 83.9438 256.775 84.82C256.893 85.1234 256.788 85.4821 256.46 85.896C256.174 86.2583 255.88 86.4984 255.577 86.6163ZM271.166 85.4821C271.002 85.5458 270.754 85.6352 270.422 85.7504C270.093 85.8572 269.847 85.9424 269.683 86.0061C269.592 86.0415 269.494 86.0865 269.389 86.1411C270.576 88.8162 271.387 90.7151 271.823 91.8377C272.352 93.197 272.173 94.0488 271.287 94.3931C270.959 94.5205 270.632 94.5323 270.305 94.4288C269.956 94.3202 269.717 94.102 269.59 93.7743C269.507 93.5619 269.392 93.2368 269.242 92.7989C269.091 92.3549 268.974 92.0267 268.891 91.8143C268.568 90.9829 267.901 89.4294 266.891 87.1538C266.782 87.1963 266.512 87.3012 266.081 87.4687C265.462 87.7092 264.988 87.8272 264.658 87.8228C264.132 87.8176 263.769 87.5571 263.568 87.0413C263.441 86.7136 263.444 86.3878 263.576 86.0639C263.712 85.7316 263.963 85.4946 264.327 85.3531L269.706 83.2625C270.889 82.8026 271.639 82.9793 271.955 83.7924C272.087 84.1322 272.08 84.4634 271.933 84.786C271.792 85.1062 271.536 85.3382 271.166 85.4821ZM288.042 78.9236C287.878 78.9873 287.63 79.0767 287.297 79.1919C286.969 79.2987 286.722 79.384 286.559 79.4476C286.468 79.483 286.37 79.528 286.265 79.5826C287.452 82.2577 288.263 84.1566 288.699 85.2792C289.227 86.6385 289.049 87.4903 288.163 87.8346C287.835 87.962 287.508 87.9739 287.181 87.8703C286.832 87.7617 286.593 87.5435 286.466 87.2158C286.383 87.0034 286.267 86.6783 286.118 86.2404C285.967 85.7964 285.85 85.4682 285.767 85.2558C285.444 84.4244 284.777 82.871 283.767 80.5953C283.658 80.6378 283.388 80.7427 282.957 80.9102C282.338 81.1507 281.864 81.2688 281.534 81.2643C281.008 81.2591 280.645 80.9986 280.444 80.4828C280.317 80.1551 280.319 79.8293 280.452 79.5054C280.588 79.1731 280.838 78.9362 281.202 78.7947L286.582 76.704C287.765 76.2441 288.515 76.4208 288.831 77.2339C288.963 77.5737 288.956 77.9049 288.808 78.2275C288.668 78.5477 288.412 78.7797 288.042 78.9236ZM297.957 83.8397C296.507 84.4033 295.186 84.5185 293.995 84.1852C292.678 83.8168 291.75 82.9377 291.21 81.5481C290.613 80.0128 290.512 78.5574 290.906 77.1818C291.347 75.6555 292.329 74.5964 293.852 74.0045C294.908 73.5941 295.851 73.4233 296.68 73.4919C297.771 73.5848 298.501 74.1046 298.869 75.0513C299.128 75.7188 298.985 76.4555 298.439 77.2613C298.191 77.6301 297.643 78.2413 296.794 79.095L294.254 81.6433C294.667 81.8457 295.111 81.9456 295.585 81.943C296.059 81.9404 296.563 81.8353 297.097 81.6278C297.91 81.3118 298.534 80.8772 298.969 80.3242C299.357 79.8311 299.703 79.5256 300.006 79.4077C300.637 79.1624 301.072 79.3462 301.31 79.9591C301.579 80.6509 301.292 81.4121 300.448 82.2429C299.74 82.9372 298.91 83.4694 297.957 83.8397ZM294.708 76.2073C294.143 76.4266 293.734 76.8022 293.48 77.3341C293.226 77.8659 293.123 78.5553 293.173 79.4021C293.743 78.8382 294.311 78.2786 294.878 77.7232C295.553 77.0347 296.072 76.4383 296.435 75.9341C295.939 75.8615 295.363 75.9526 294.708 76.2073ZM306.422 66.9611C306.277 67.0733 305.804 67.2851 305.003 67.5964C304.202 67.9077 303.63 68.2974 303.288 68.7656C302.952 69.2314 302.771 69.8607 302.744 70.6535C303.141 70.3105 303.659 70.0151 304.296 69.7675C305.625 69.251 306.849 69.4178 307.969 70.2679C308.864 70.9537 309.558 71.9308 310.051 73.1991C310.579 74.5583 310.675 75.8832 310.338 77.1735C309.949 78.6519 309.035 79.6706 307.597 80.2295C306.043 80.8332 304.65 80.6551 303.418 79.6951C302.424 78.9152 301.602 77.6908 300.954 76.0221C300.263 74.2441 299.991 72.4218 300.139 70.5554C300.331 68.1755 301.274 66.6112 302.967 65.8626C303.108 65.7939 303.363 65.6876 303.733 65.5437C304.237 65.348 304.578 65.1911 304.755 65.0732C304.738 64.4721 304.97 64.0784 305.449 63.8921C305.843 63.7389 306.252 63.7755 306.676 64.0021C307.065 64.2139 307.327 64.4928 307.462 64.8387C307.731 65.5304 307.384 66.2379 306.422 66.9611ZM305.133 72.2711C304.41 72.5518 303.961 73.1035 303.785 73.9263C303.626 74.6658 303.706 75.4483 304.027 76.2736C304.263 76.8804 304.612 77.3312 305.076 77.6259C305.576 77.9415 306.099 77.9932 306.645 77.781C307.337 77.5121 307.763 77.0357 307.923 76.3518C308.068 75.7366 307.991 75.0437 307.692 74.273C307.017 72.5375 306.164 71.8702 305.133 72.2711ZM320.004 75.1667C319.646 75.3059 319.297 75.3157 318.957 75.1963C318.597 75.0779 318.35 74.8458 318.215 74.4999C318.149 74.33 317.932 73.8067 317.563 72.9302C316.747 73.6524 315.801 74.9561 314.725 76.8413C314.533 77.1743 314.27 77.4056 313.936 77.5353C313.584 77.6721 313.228 77.6813 312.868 77.5629C312.511 77.4361 312.268 77.2058 312.138 76.872C311.917 76.3016 312.475 75.1694 313.815 73.4755C312.289 73.342 311.347 72.814 310.989 71.8917C310.441 70.4838 310.992 68.9532 312.64 67.2998C313.318 66.6173 314.385 65.9931 315.842 65.4271C316.266 65.262 316.674 65.2678 317.064 65.4445C317.457 65.6128 317.731 65.8942 317.884 66.2886C318.196 67.0897 318.692 68.2866 319.374 69.8796C320.06 71.4641 320.559 72.6599 320.873 73.4669C321.005 73.8068 320.981 74.1408 320.801 74.4691C320.622 74.7974 320.356 75.0299 320.004 75.1667ZM315.546 68.1716C315.085 68.3859 314.64 68.7509 314.212 69.2666C313.717 69.8638 313.526 70.3782 313.638 70.8097C314.041 71.128 314.532 71.2513 315.112 71.1796C315.481 71.1409 315.992 70.9912 316.645 70.7305C316.396 70.1779 316.029 69.325 315.546 68.1716ZM195.512 140.538C195.136 140.684 194.78 140.693 194.444 140.565C194.114 140.435 193.882 140.197 193.747 139.851C193.721 139.785 193.666 139.687 193.581 139.56C193.503 139.429 193.45 139.328 193.421 139.255C193.289 138.915 193.308 138.587 193.478 138.269C193.652 137.943 193.918 137.711 194.276 137.572C195.186 137.218 195.874 137.642 196.341 138.843C196.476 139.189 196.462 139.523 196.301 139.844C196.145 140.163 195.882 140.394 195.512 140.538ZM198.053 146.644C197.112 147.009 196.366 146.482 195.814 145.062C195.682 144.722 195.708 144.384 195.891 144.047C196.07 143.733 196.335 143.508 196.687 143.371C197.609 143.013 198.343 143.535 198.888 144.936C199.022 145.282 199.01 145.619 198.85 145.946C198.689 146.267 198.423 146.5 198.053 146.644ZM206.392 148.935C206.147 149.219 205.899 149.409 205.651 149.506C205.341 149.626 205.027 149.626 204.707 149.506C204.388 149.385 204.17 149.173 204.052 148.87C203.91 148.506 203.965 148.107 204.216 147.675C204.442 147.321 204.664 146.966 204.881 146.609C205.703 144.788 205.559 142.448 204.448 139.59C204.014 138.474 203.408 137.4 202.63 136.368C201.752 135.207 200.864 134.403 199.964 133.957C199.545 133.778 199.126 133.598 198.707 133.419C198.156 133.151 197.826 132.877 197.718 132.598C197.597 132.289 197.61 131.97 197.754 131.641C197.897 131.306 198.132 131.075 198.459 130.948C198.684 130.861 198.991 130.86 199.381 130.946C200.979 131.303 202.525 132.27 204.018 133.848C205.344 135.247 206.323 136.759 206.955 138.385C208.717 142.918 208.529 146.435 206.392 148.935Z" fill="white"/>
</svg>
