<svg width="209" height="99" viewBox="0 0 209 99" fill="none" xmlns="http://www.w3.org/2000/svg">
<path d="M49.1151 38.6547C49.9214 38.8448 50.4209 39.6526 50.2307 40.4589C50.0405 41.2652 49.2327 41.7647 48.4264 41.5745L49.1151 38.6547ZM9.54461 78.7289L3.21219 62.6075L20.34 65.1842L9.54461 78.7289ZM8.86271 73.1816C9.00582 72.3657 9.78332 71.8202 10.5993 71.9633C11.4153 72.1064 11.9607 72.8839 11.8176 73.6999L8.86271 73.1816ZM14.243 63.4891C13.9964 64.28 13.1553 64.7212 12.3645 64.4746C11.5736 64.228 11.1324 63.387 11.379 62.5961L14.243 63.4891ZM15.6293 52.4681C16.0334 51.745 16.9473 51.4864 17.6705 51.8905C18.3936 52.2947 18.6522 53.2086 18.248 53.9317L15.6293 52.4681ZM24.5196 45.9828C23.8945 46.5265 22.9471 46.4606 22.4034 45.8356C21.8596 45.2106 21.9255 44.2631 22.5506 43.7194L24.5196 45.9828ZM32.5009 38.4214C33.3015 38.2087 34.123 38.6853 34.3358 39.4859C34.5485 40.2866 34.0719 41.1081 33.2713 41.3208L32.5009 38.4214ZM43.3381 40.6913C42.5143 40.6034 41.9178 39.8644 42.0057 39.0406C42.0936 38.2169 42.8327 37.6204 43.6564 37.7083L43.3381 40.6913ZM11.379 62.5961C12.5067 58.9792 13.9031 55.5568 15.6293 52.4681L18.248 53.9317C16.6438 56.8022 15.323 60.0254 14.243 63.4891L11.379 62.5961ZM22.5506 43.7194C25.3633 41.2725 28.6596 39.4421 32.5009 38.4214L33.2713 41.3208C29.8958 42.2177 27.0049 43.8207 24.5196 45.9828L22.5506 43.7194ZM43.6564 37.7083C45.402 37.8945 47.2206 38.2078 49.1151 38.6547L48.4264 41.5745C46.6442 41.1542 44.9495 40.8633 43.3381 40.6913L43.6564 37.7083Z" fill="white"/>
<path d="M68.5739 37.3884C68.1165 37.4906 67.7245 37.3248 67.398 36.8907C67.2452 36.6847 67.1129 36.5702 67.001 36.5472C66.9168 36.5287 66.7121 36.5557 66.3867 36.6285C65.7463 36.7716 65.1181 37.435 64.5021 38.6188C63.6392 40.2739 63.3436 41.7089 63.6151 42.9237C63.739 43.4778 64.0307 43.9115 64.4904 44.2251C64.95 44.5386 65.4391 44.6374 65.9576 44.5215C66.4608 44.4091 66.9421 44.1627 67.4014 43.7825C67.5628 43.645 67.8935 43.3096 68.3933 42.7763C68.7307 42.4234 69.0011 42.2242 69.2044 42.1787C69.5094 42.1106 69.7936 42.1644 70.0571 42.3404C70.3019 42.5045 70.4544 42.7212 70.5146 42.9906C70.5816 43.2905 70.508 43.5818 70.2937 43.8645C69.1595 45.3562 67.868 46.2639 66.4194 46.5877C65.2758 46.8434 64.2168 46.6424 63.2427 45.9849C62.3109 45.35 61.7234 44.4886 61.4803 43.4009C61.0997 41.6981 61.4558 39.7933 62.5486 37.6865C63.4779 35.8991 64.6034 34.8576 65.9249 34.5623C66.1486 34.5123 66.351 34.475 66.5323 34.4505C66.7187 34.4248 66.884 34.4119 67.028 34.4117C67.2028 34.1432 67.4478 33.9737 67.7629 33.9033C68.2814 33.7874 68.6681 34.0131 68.923 34.5806C69.1048 34.9882 69.2594 35.4767 69.3866 36.046C69.4434 36.3001 69.4214 36.5479 69.3206 36.7892C69.1888 37.1069 68.9399 37.3066 68.5739 37.3884ZM80.1228 43.4287C79.6247 43.54 79.2256 43.3544 78.9256 42.8717C78.543 42.2581 77.8675 41.5045 76.8993 40.6109C75.6839 39.495 74.7763 39.004 74.1765 39.1381L73.6275 39.2608C73.6843 39.5149 73.7732 39.9247 73.8943 40.49C74.0073 41.0198 74.0985 41.4397 74.1678 41.7497C74.186 41.8311 74.228 41.9951 74.2939 42.2419C74.3648 42.4876 74.4167 42.6841 74.4497 42.8315C74.7189 44.0362 74.4749 44.7231 73.7175 44.8924C73.4176 44.9594 73.143 44.9248 72.8937 44.7883C72.6495 44.6508 72.4945 44.4346 72.4286 44.1398C72.3479 43.7789 72.2416 43.2317 72.1096 42.498C71.9777 41.7643 71.8713 41.217 71.7907 40.8562C71.6373 40.17 71.3824 39.1489 71.0259 37.793C70.6695 36.437 70.4146 35.4159 70.2612 34.7298C70.0476 33.7742 70.3042 33.2151 71.0311 33.0527C71.3361 32.9845 71.6092 33.0248 71.8506 33.1737C72.096 33.3163 72.2511 33.5325 72.3158 33.8222C72.4317 34.3407 72.7099 35.4659 73.1504 37.198C73.8213 36.952 74.3067 36.4139 74.6068 35.5836C74.8347 34.8602 75.062 34.1343 75.2888 33.4058C75.6432 32.6275 76.2295 32.1469 77.0479 31.964C77.3122 31.9049 77.5994 31.9127 77.9097 31.9875C78.2826 32.0802 78.4964 32.2486 78.5509 32.4926C78.5964 32.6959 78.5774 32.8976 78.4941 33.0977C78.4 33.3215 78.2462 33.4573 78.0327 33.505C77.6312 33.5947 77.3241 34.2024 77.1113 35.328C76.9334 36.275 76.5395 37.0195 75.9295 37.5615C76.8643 37.9236 77.9055 38.6301 79.053 39.6812C80.1994 40.7271 80.8436 41.5678 80.9856 42.2031C81.0492 42.4878 80.9928 42.7486 80.8163 42.9855C80.6386 43.2173 80.4074 43.365 80.1228 43.4287ZM88.5489 33.564C88.1214 34.1826 87.5283 35.1343 86.7695 36.4193C86.211 37.5262 85.6155 38.8014 84.9829 40.245C84.8082 40.6576 84.5407 41.2751 84.1801 42.0975C83.9998 42.4847 83.7394 42.7163 83.3989 42.7925C83.0583 42.8686 82.758 42.8263 82.4979 42.6656C82.2367 42.4999 82.0805 42.2546 82.0293 41.9298C81.5539 38.9674 81.2793 37.321 81.2054 36.9906C80.9089 35.664 80.606 34.4401 80.2967 33.3191C80.2735 33.239 80.2128 33.039 80.1146 32.7194C80.0375 32.4698 79.9813 32.2662 79.9461 32.1087C79.8813 31.8189 79.9265 31.5553 80.0815 31.3179C80.2417 31.0793 80.4742 30.9259 80.7792 30.8577C81.0842 30.7896 81.3574 30.8299 81.5988 30.9788C81.8453 31.1265 82.0009 31.3452 82.0657 31.6349C82.0986 31.7823 82.1545 31.9726 82.2333 32.2058C82.3246 32.495 82.3825 32.6822 82.4069 32.7674C82.5896 33.4417 82.794 34.2846 83.0201 35.2961C83.2019 36.1094 83.3631 36.9139 83.5036 37.7097C84.3053 35.9722 85.3169 34.2304 86.5384 32.4844C86.7442 32.1875 86.9739 31.7706 87.2274 31.2336C87.5345 30.5779 87.7455 30.1492 87.8605 29.9474C87.8983 29.4479 88.1815 29.1391 88.7102 29.021C89.0151 28.9528 89.2897 28.9875 89.534 29.125C89.7833 29.2614 89.9409 29.477 90.0068 29.7718C90.0772 30.087 90.1701 30.5625 90.2856 31.1985C90.3999 31.8294 90.4918 32.2998 90.5611 32.6099C90.6406 32.9657 90.7554 33.5031 90.9054 34.222C91.0543 34.9359 91.1685 35.4708 91.248 35.8266C91.3514 36.2891 91.4862 36.9875 91.6523 37.9216C91.8235 38.8547 91.9613 39.555 92.0659 40.0227C92.1295 40.3073 92.0812 40.5689 91.9211 40.8075C91.761 41.0461 91.5309 41.1989 91.231 41.266C90.9261 41.3341 90.6503 41.2944 90.4038 41.1466C90.1574 40.9989 90.0023 40.7828 89.9387 40.4981C89.833 40.0254 89.6935 39.3175 89.52 38.3743C89.3505 37.4248 89.2134 36.7163 89.1089 36.2487C89.0328 35.9081 88.9379 35.4597 88.8242 34.9034C88.685 34.2087 88.5932 33.7622 88.5489 33.564ZM104.966 38.6763C104.983 38.7525 105.015 38.8627 105.064 39.0067C105.113 39.1557 105.146 39.2684 105.163 39.3446C105.228 39.6344 105.18 39.8985 105.02 40.1371C104.86 40.3757 104.627 40.5291 104.322 40.5973C103.86 40.7007 103.502 40.5805 103.249 40.2368C103.088 40.0166 102.951 39.655 102.838 39.1518C102.798 38.9688 102.757 38.7163 102.717 38.3944C102.092 38.5341 100.938 38.8027 99.2549 39.2003C97.5962 39.587 96.4441 39.8526 95.7986 39.9968C95.9378 40.6915 96.0262 41.1227 96.0637 41.2905C96.1285 41.5802 96.0808 41.8444 95.9206 42.083C95.7656 42.3204 95.5356 42.4732 95.2306 42.5414C94.9256 42.6096 94.6499 42.5698 94.4034 42.4221C94.162 42.2733 94.0089 42.054 93.9441 41.7642C93.8941 41.5406 93.8242 41.204 93.7344 40.7544C93.6446 40.3049 93.5747 39.9682 93.5247 39.7446C93.4551 39.6001 93.4174 39.5151 93.4117 39.4897C93.2958 38.9712 93.5879 38.559 94.2881 38.2531C94.815 35.8832 94.7888 33.4021 94.2094 30.8098C94.1673 30.6217 94.0755 30.354 93.9338 30.0068C93.7961 29.6533 93.7085 29.3927 93.671 29.225C93.521 28.554 93.9278 28.1055 94.8913 27.8795L98.761 26.9985C98.7458 27.0019 99.1363 26.8986 99.9326 26.6886C100.076 26.5659 100.244 26.4829 100.437 26.4397C100.742 26.3716 101.018 26.4113 101.265 26.559C101.511 26.7067 101.667 26.9254 101.731 27.2152C101.846 27.7285 102.025 28.4944 102.269 29.5126C102.511 30.5258 102.689 31.2865 102.803 31.7948C102.996 32.6589 103.294 34.1214 103.696 36.1823L103.764 36.1992C104.278 36.2336 104.592 36.5024 104.704 37.0056C104.745 37.1886 104.789 37.467 104.835 37.8409C104.881 38.2149 104.925 38.4933 104.966 38.6763ZM99.8777 28.8783C99.5891 28.9482 99.2079 29.0334 98.734 29.134C98.1421 29.2556 97.7598 29.3357 97.587 29.3744C97.2617 29.4471 96.7983 29.5587 96.1968 29.7091C96.2048 29.7447 96.2542 29.9658 96.3451 30.3724C96.5735 31.3941 96.719 32.5704 96.7816 33.9012C96.8461 35.3598 96.7852 36.6035 96.599 37.6325C96.9548 37.553 97.5156 37.4116 98.2814 37.2084C99.0127 37.0183 99.5766 36.8789 99.9731 36.7903C100.314 36.7141 100.827 36.6127 101.514 36.4858C101.418 36.0323 101.281 35.3345 101.102 34.3925C100.937 33.5114 100.795 32.804 100.676 32.2703C100.632 32.0721 100.366 30.9414 99.8777 28.8783ZM113.7 35.9233C113.202 36.0347 112.803 35.849 112.503 35.3664C112.121 34.7528 111.445 33.9992 110.477 33.1055C109.262 31.9896 108.354 31.4987 107.754 31.6328L107.205 31.7555C107.262 32.0096 107.351 32.4194 107.472 32.9847C107.585 33.5145 107.676 33.9344 107.746 34.2444C107.764 34.3257 107.806 34.4898 107.872 34.7366C107.942 34.9822 107.994 35.1788 108.027 35.3262C108.297 36.5308 108.053 37.2178 107.295 37.3871C106.995 37.4541 106.721 37.4194 106.471 37.283C106.227 37.1455 106.072 36.9293 106.006 36.6345C105.926 36.2736 105.819 35.7263 105.687 34.9927C105.555 34.259 105.449 33.7117 105.368 33.3508C105.215 32.6646 104.96 31.6436 104.604 30.2876C104.247 28.9317 103.992 27.9106 103.839 27.2244C103.625 26.2688 103.882 25.7098 104.609 25.5473C104.914 25.4792 105.187 25.5195 105.428 25.6684C105.674 25.811 105.829 26.0272 105.893 26.3169C106.009 26.8353 106.288 27.9606 106.728 29.6927C107.399 29.4467 107.884 28.9085 108.184 28.0783C108.412 27.3549 108.64 26.629 108.866 25.9005C109.221 25.1222 109.807 24.6416 110.626 24.4586C110.89 24.3996 111.177 24.4074 111.487 24.4821C111.86 24.5749 112.074 24.7433 112.129 24.9872C112.174 25.1906 112.155 25.3923 112.072 25.5923C111.978 25.8162 111.824 25.9519 111.61 25.9997C111.209 26.0894 110.902 26.6971 110.689 27.8227C110.511 28.7697 110.117 29.5142 109.507 30.0562C110.442 30.4182 111.483 31.1248 112.631 32.1758C113.777 33.2218 114.421 34.0624 114.563 34.6978C114.627 34.9824 114.57 35.2432 114.394 35.4802C114.216 35.712 113.985 35.8597 113.7 35.9233ZM124.695 33.6099C124.29 33.6844 123.78 33.3021 123.166 32.4628C122.762 31.9232 122.376 31.2836 122.008 30.544C121.645 30.684 121.042 30.8774 120.201 31.1242C119.41 31.3596 118.81 31.5632 118.4 31.7348C118.291 32.3462 118.073 33.2783 117.744 34.5312C117.602 34.9471 117.333 35.1994 116.937 35.288C116.657 35.3505 116.385 35.3127 116.119 35.1747C115.852 35.0315 115.686 34.8125 115.62 34.5177C115.562 34.2585 115.736 33.2962 116.143 31.6309C116.037 31.4892 115.973 31.3486 115.953 31.2091C115.919 30.9606 116.123 30.7149 116.565 30.472C117.007 29.0602 117.52 27.5846 118.105 26.045C118.945 23.8346 119.512 22.6964 119.807 22.6305C120.366 22.5055 120.815 22.76 121.155 23.394C121.378 23.9152 121.72 24.6952 122.182 25.7341C122.819 27.1286 123.572 28.7188 124.441 30.5046C124.509 30.639 124.713 30.9455 125.055 31.4241C125.336 31.8203 125.5 32.1277 125.549 32.3463C125.615 32.6411 125.558 32.9126 125.379 33.1608C125.205 33.4079 124.977 33.5576 124.695 33.6099ZM120.103 26.423C119.858 27.1927 119.519 28.2425 119.085 29.5723C119.303 29.4704 119.649 29.3502 120.126 29.2117C120.687 29.0489 121.039 28.9408 121.182 28.8876C120.912 28.2541 120.552 27.4325 120.103 26.423ZM140.994 29.7426C140.867 29.771 140.664 29.795 140.386 29.8146C140.111 29.8279 139.915 29.8476 139.798 29.8738L137.555 30.3672C137.362 30.4104 137.075 30.5011 136.695 30.6394C136.314 30.7726 136.025 30.8614 135.826 30.9057C135.77 30.9182 135.687 30.9262 135.575 30.9297C135.464 30.9333 135.381 30.9413 135.325 30.9538C134.867 31.056 134.516 30.9398 134.27 30.6051C134.116 30.394 133.985 30.0445 133.876 29.5565C133.663 28.606 133.696 27.7634 133.975 27.0287C134.19 26.4629 134.606 25.8523 135.223 25.1968C135.808 24.591 136.391 23.9884 136.972 23.3888C137.644 22.6248 137.898 21.8717 137.732 21.1296C137.689 20.9365 137.486 20.7816 137.124 20.6652C136.76 20.5436 136.426 20.5169 136.121 20.585C135.582 20.7055 135.064 21.0747 134.568 21.6928C134.075 22.3047 133.716 22.6356 133.493 22.6856C133.223 22.7458 132.972 22.7325 132.739 22.6458C132.449 22.54 132.271 22.3422 132.206 22.0525C132.137 21.7424 132.204 21.4472 132.409 21.1667C132.902 20.4854 133.35 19.969 133.751 19.6177C134.332 19.1091 134.975 18.7759 135.681 18.618C136.561 18.4214 137.405 18.4754 138.215 18.7801C139.142 19.128 139.7 19.729 139.891 20.5829C140.084 21.447 140.05 22.2258 139.789 22.9193C139.587 23.4715 139.201 24.0513 138.633 24.6587C138.087 25.2023 137.541 25.7433 136.994 26.2818C136.169 27.1279 135.812 27.963 135.921 28.7871C136.193 28.6891 136.595 28.5564 137.129 28.3891C138.199 28.0912 138.968 27.8899 139.436 27.7854C139.873 27.6877 140.326 27.6852 140.795 27.7778C141.376 27.8935 141.707 28.1343 141.789 28.5002C141.848 28.7645 141.806 29.0168 141.662 29.2571C141.511 29.5149 141.289 29.6767 140.994 29.7426ZM147.228 28.8375C145.672 29.1852 144.402 28.8874 143.418 27.944C143.247 27.7793 143.142 27.608 143.103 27.4301C143.041 27.1556 143.098 26.8973 143.274 26.6553C143.449 26.4133 143.677 26.2611 143.956 26.1986C144.241 26.135 144.509 26.1872 144.76 26.3552C145.198 26.6467 145.436 26.8018 145.472 26.8204C145.82 26.9668 146.258 26.981 146.786 26.8628C147.569 26.6879 148.158 26.2547 148.553 25.5633C148.933 24.8968 149.034 24.1696 148.858 23.3818C148.689 22.6244 148.435 22.0861 148.097 21.7667C147.764 21.4463 147.343 21.3428 146.835 21.4565C145.94 21.6564 145.286 22.1069 144.871 22.8079C144.712 23.0996 144.55 23.3893 144.385 23.6771C144.169 23.9977 143.905 24.1926 143.595 24.2619C143.306 24.3267 143.037 24.2827 142.789 24.1299C142.547 23.976 142.395 23.7643 142.335 23.4949C142.309 23.378 142.253 22.9261 142.168 22.1393C142.003 20.6125 141.865 19.6026 141.755 19.1096C141.728 18.9876 141.645 18.8301 141.506 18.637C141.371 18.4429 141.291 18.2848 141.263 18.1628C141.207 17.9086 141.293 17.6865 141.523 17.4964C141.703 17.3493 141.931 17.2451 142.205 17.1837C142.307 17.161 142.462 17.1371 142.67 17.112C142.881 17.0806 143.038 17.0536 143.14 17.0309L146.809 16.2188C146.9 16.1983 147.093 16.1394 147.386 16.0418C147.679 15.9443 147.874 15.8847 147.97 15.8632C148.245 15.8018 148.491 15.8402 148.708 15.9783C148.925 16.1114 149.064 16.3152 149.125 16.5896C149.295 17.347 148.609 17.8978 147.069 18.242C146.947 18.2693 146.791 18.3014 146.602 18.3384C146.418 18.3742 146.295 18.3989 146.235 18.4125L143.962 18.9204C144.016 19.2339 144.068 19.7614 144.116 20.5031C144.709 20.029 145.468 19.6885 146.393 19.4817C147.629 19.2057 148.669 19.456 149.515 20.2329C150.218 20.871 150.698 21.7644 150.955 22.9131C151.264 24.2956 151.093 25.5347 150.441 26.6304C149.763 27.7746 148.692 28.5103 147.228 28.8375ZM154.053 18.8664C153.245 19.047 152.546 18.9177 151.957 18.4783C151.415 18.0819 151.06 17.5075 150.891 16.7552C150.764 16.1859 150.941 15.594 151.423 14.9793C151.879 14.3918 152.394 14.0338 152.968 13.9054C153.802 13.7191 154.525 13.8377 155.137 14.2612C155.717 14.6599 156.095 15.2506 156.27 16.0334C156.424 16.7246 156.251 17.3477 155.751 17.9025C155.31 18.3906 154.744 18.7119 154.053 18.8664ZM159.619 14.2201C159.499 14.5456 159.386 14.9686 159.278 15.489C159.124 16.2332 159.034 16.6644 159.007 16.7825C158.812 17.5357 158.541 18.6719 158.192 20.1908C158.183 20.2462 157.868 21.5227 157.246 24.0205C157.173 24.4318 157.04 25.0432 156.848 25.8547C156.73 26.2599 156.489 26.5034 156.123 26.5852C155.879 26.6397 155.639 26.6053 155.403 26.4819C155.167 26.3584 155.021 26.1696 154.964 25.9155C154.904 25.6461 155.086 24.6581 155.511 22.9515L156.296 19.8779C156.56 18.8105 156.921 17.2059 157.382 15.0643C157.614 13.785 157.991 13.0869 158.515 12.9698C158.769 12.913 159.013 12.952 159.245 13.0867C159.482 13.2152 159.629 13.404 159.684 13.6531C159.721 13.8157 159.699 14.0047 159.619 14.2201ZM162.007 25.1899C161.234 25.3626 160.541 25.2827 159.928 24.9501C159.279 24.6041 158.872 24.0574 158.705 23.3102C158.529 22.5224 158.618 21.8113 158.972 21.177C159.353 20.4941 159.963 20.059 160.802 19.8715C161.554 19.7034 162.266 19.7578 162.936 20.035C163.696 20.356 164.16 20.8901 164.327 21.6373C164.51 22.4557 164.384 23.2044 163.948 23.8834C163.518 24.5612 162.871 24.9968 162.007 25.1899ZM153.349 15.7175C153.181 15.755 153.038 15.843 152.92 15.9816C152.8 16.1151 152.752 16.2326 152.775 16.3343C152.84 16.6291 152.946 16.8377 153.091 16.9601C153.24 17.0814 153.427 17.117 153.651 17.067C153.885 17.0148 154.071 16.9278 154.209 16.8062C154.346 16.6795 154.403 16.5628 154.379 16.456C154.31 16.146 154.189 15.93 154.018 15.8082C153.847 15.6864 153.624 15.6562 153.349 15.7175ZM161.204 21.6709C160.925 21.7333 160.733 21.8669 160.629 22.0715C160.53 22.2699 160.518 22.542 160.596 22.8876C160.647 23.1163 160.769 23.2704 160.963 23.3498C161.162 23.4281 161.432 23.4292 161.772 23.3531C162.118 23.2758 162.337 23.1442 162.429 22.9582C162.524 22.766 162.527 22.4666 162.436 22.06C162.398 21.8922 162.256 21.7693 162.009 21.691C161.767 21.6117 161.499 21.605 161.204 21.6709ZM59.6506 56.2741C59.6319 56.6679 59.6532 57.002 59.7146 57.2765C59.7464 57.4188 59.7806 57.6433 59.8171 57.95C59.8576 58.2505 59.8937 58.4719 59.9255 58.6142C60.0335 59.0971 60.1682 59.8195 60.3299 60.7813C60.4915 61.7432 60.6263 62.4656 60.7342 62.9485C60.8171 63.3195 60.9689 63.8673 61.1896 64.5918C61.4102 65.3163 61.562 65.8641 61.645 66.2352C61.7075 66.5147 61.6612 66.7733 61.5061 67.0107C61.3511 67.2482 61.1261 67.3999 60.8313 67.4657C60.5314 67.5328 60.2506 67.4941 59.9889 67.3499C59.7283 67.2106 59.5673 67.0038 59.5059 66.7293C59.423 66.3583 59.2808 65.8057 59.0794 65.0715C58.883 64.3362 58.7433 63.7831 58.6604 63.412C58.5956 63.1223 58.5433 62.8645 58.5035 62.6385C57.7134 62.8525 56.7552 63.1974 55.6288 63.6734C54.6926 64.0694 53.757 64.468 52.822 64.8691C52.8891 65.217 52.9825 65.8019 53.1021 66.6237C53.2104 67.3467 53.315 67.9343 53.4161 68.3867C53.4786 68.6663 53.4323 68.9248 53.2773 69.1622C53.1222 69.3997 52.8973 69.5514 52.6025 69.6173C52.3077 69.6832 52.0396 69.6417 51.7982 69.4929C51.5568 69.344 51.4048 69.1298 51.3423 68.8503C51.2276 68.3369 51.0992 67.5597 50.9573 66.5187C50.8204 65.4766 50.6946 64.6989 50.5798 64.1855C50.4344 63.5349 50.2309 62.553 49.9695 61.2399C49.7068 59.9217 49.5028 58.9373 49.3574 58.2867C49.2949 58.0071 49.3412 57.7486 49.4962 57.5111C49.6513 57.2737 49.8762 57.122 50.171 57.0561C50.4658 56.9902 50.734 57.0317 50.9754 57.1805C51.2168 57.3294 51.3687 57.5436 51.4312 57.8231C51.5176 58.2094 51.6324 58.7948 51.7757 59.5793C51.923 60.3576 52.0398 60.9399 52.1262 61.3262C52.1546 61.4533 52.1913 61.7012 52.2364 62.0701C52.2809 62.4124 52.3255 62.6719 52.3704 62.8486L55.1754 61.6453C56.2737 61.1863 57.2336 60.849 58.0553 60.6333C57.9995 60.2882 57.828 59.3659 57.5409 57.8664C57.4636 57.4727 57.4825 56.9962 57.5976 56.4368C57.7425 55.748 57.9954 55.3632 58.3563 55.2826C58.6257 55.2223 58.8845 55.2579 59.1326 55.3892C59.3994 55.5324 59.5652 55.7488 59.63 56.0385C59.647 56.1148 59.6539 56.1933 59.6506 56.2741ZM72.1525 64.8231C71.7475 64.8977 71.2378 64.5153 70.6232 63.676C70.2198 63.1364 69.834 62.4968 69.4659 61.7572C69.1023 61.8972 68.4997 62.0906 67.6583 62.3374C66.8677 62.5728 66.2674 62.7764 65.8575 62.948C65.7487 63.5594 65.5301 64.4915 65.2017 65.7444C65.0599 66.1603 64.7907 66.4126 64.3942 66.5013C64.1147 66.5637 63.842 66.5259 63.5764 66.3879C63.3095 66.2447 63.1432 66.0257 63.0773 65.7309C63.0193 65.4717 63.1938 64.5094 63.6008 62.8441C63.4944 62.7024 63.431 62.5618 63.4104 62.4223C63.3762 62.1738 63.5802 61.9281 64.0222 61.6852C64.4645 60.2734 64.9779 58.7978 65.5623 57.2582C66.4025 55.0478 66.9699 53.9096 67.2648 53.8437C67.8239 53.7187 68.273 53.9732 68.6122 54.6072C68.8354 55.1284 69.1779 55.9084 69.6396 56.9473C70.2768 58.3418 71.0299 59.932 71.8987 61.7178C71.9661 61.8522 72.1707 62.1587 72.5125 62.6373C72.7932 63.0335 72.9579 63.3409 73.0068 63.5595C73.0727 63.8543 73.016 64.1258 72.8366 64.374C72.6624 64.6211 72.4343 64.7708 72.1525 64.8231ZM67.5601 57.6362C67.3159 58.406 66.9768 59.4557 66.5429 60.7855C66.7603 60.6836 67.107 60.5634 67.583 60.4249C68.1444 60.2621 68.4965 60.1541 68.6393 60.1008C68.3696 59.4673 68.0099 58.6458 67.5601 57.6362ZM91.0152 60.6069C90.6102 60.6814 90.1005 60.2991 89.4859 59.4598C89.0825 58.9202 88.6967 58.2806 88.3286 57.541C87.9649 57.681 87.3624 57.8744 86.5209 58.1212C85.7303 58.3566 85.1301 58.5602 84.7202 58.7318C84.6113 59.3432 84.3927 60.2753 84.0644 61.5282C83.9225 61.9441 83.6534 62.1964 83.2569 62.285C82.9773 62.3475 82.7047 62.3097 82.439 62.1717C82.1722 62.0285 82.0058 61.8095 81.9399 61.5147C81.882 61.2555 82.0565 60.2932 82.4634 58.6279C82.3571 58.4862 82.2936 58.3456 82.2731 58.2061C82.2389 57.9576 82.4428 57.7119 82.8849 57.469C83.3271 56.0572 83.8405 54.5816 84.425 53.042C85.2651 50.8316 85.8326 49.6934 86.1274 49.6275C86.6865 49.5025 87.1357 49.757 87.4749 50.391C87.6981 50.9122 88.0405 51.6922 88.5022 52.7311C89.1395 54.1256 89.8925 55.7158 90.7613 57.5016C90.8287 57.636 91.0333 57.9425 91.3751 58.4211C91.6558 58.8173 91.8206 59.1247 91.8695 59.3433C91.9354 59.6381 91.8786 59.9096 91.6993 60.1578C91.525 60.4049 91.297 60.5546 91.0152 60.6069ZM86.4228 53.42C86.1785 54.1897 85.8395 55.2395 85.4056 56.5693C85.6229 56.4674 85.9696 56.3472 86.4457 56.2087C87.007 56.0459 87.3591 55.9379 87.502 55.8846C87.2323 55.2511 86.8726 54.4295 86.4228 53.42ZM97.1789 59.1011C96.94 59.1545 96.6099 59.2177 96.1885 59.2905C95.7062 59.3769 95.3755 59.4375 95.1965 59.4722C95.0914 59.5277 94.983 59.5679 94.8712 59.5929C94.124 59.7599 93.6334 59.3199 93.3994 58.2728C93.3687 58.1356 93.3083 57.6981 93.2181 56.9605C93.1011 55.9833 92.9494 55.0779 92.7631 54.2443C92.654 53.7563 92.4661 53.0352 92.1994 52.0808C91.9327 51.1264 91.7449 50.4052 91.6358 49.9173C91.4972 49.2971 91.4571 48.8791 91.5156 48.6633C91.6174 48.283 91.9809 48.0229 92.6061 47.8832C92.9873 47.798 93.5599 47.662 94.3241 47.4752C95.0921 47.2821 95.6693 47.1424 96.0556 47.0561L97.9769 46.6266C98.2819 46.5585 98.5551 46.5988 98.7965 46.7476C99.0419 46.8903 99.1969 47.1064 99.2617 47.3962C99.3264 47.6859 99.2787 47.9501 99.1186 48.1887C98.9624 48.421 98.7318 48.5713 98.4268 48.6395C97.8728 48.7633 96.3519 49.1219 93.8642 49.7154C94.0316 50.345 94.2248 51.0303 94.4438 51.7712C94.7058 51.702 94.9232 51.6481 95.0961 51.6094C96.7124 51.2481 97.9558 51.2237 98.8262 51.5362C99.9209 51.9212 100.637 52.8686 100.974 54.3782C101.261 55.6591 101.007 56.7217 100.214 57.5662C99.5376 58.2884 98.5258 58.8001 97.1789 59.1011ZM95.8704 53.5337C95.6213 53.5894 95.3065 53.6731 94.9259 53.7849C94.956 53.8956 94.9846 54.0119 95.0119 54.1339C95.1346 54.6829 95.3113 55.7481 95.5421 57.3296C96.0221 57.233 96.4172 57.15 96.7273 57.0807C98.3894 56.7092 99.096 55.9668 98.8472 54.8537C98.6745 54.0811 98.3451 53.6103 97.8591 53.4415C97.4635 53.2951 96.8006 53.3258 95.8704 53.5337ZM108.391 56.9713C106.886 57.3076 105.509 57.1619 104.258 56.5341C102.923 55.8613 102.091 54.7903 101.763 53.3214C101.377 51.5932 101.566 49.8965 102.33 48.2313C103.187 46.3586 104.538 45.2161 106.383 44.8037C108.157 44.4072 109.577 44.5167 110.643 45.1323C111.71 45.7479 112.425 46.8714 112.79 48.5031C113.176 50.2312 113.028 51.9081 112.345 53.5337C111.559 55.4119 110.241 56.5578 108.391 56.9713ZM106.845 46.8699C105.712 47.1232 104.863 47.8892 104.301 49.1677C103.773 50.3638 103.649 51.587 103.928 52.8374C104.117 53.6811 104.598 54.2941 105.372 54.6761C106.116 55.0435 106.968 55.1199 107.929 54.9051C109.047 54.6552 109.857 53.8978 110.359 52.6328C110.821 51.4781 110.91 50.2629 110.625 48.9871C110.386 47.9196 109.981 47.2309 109.41 46.9209C108.864 46.6267 108.009 46.6097 106.845 46.8699ZM123.848 41.9247C123.829 42.3185 123.85 42.6526 123.912 42.9271C123.943 43.0694 123.978 43.2939 124.014 43.6006C124.055 43.9011 124.091 44.1225 124.123 44.2648C124.231 44.7477 124.365 45.4701 124.527 46.4319C124.689 47.3938 124.823 48.1162 124.931 48.599C125.014 48.9701 125.166 49.5179 125.387 50.2424C125.607 50.9669 125.759 51.5147 125.842 51.8858C125.905 52.1653 125.858 52.4238 125.703 52.6613C125.548 52.8988 125.323 53.0504 125.028 53.1163C124.729 53.1834 124.448 53.1447 124.186 53.0004C123.925 52.8612 123.764 52.6544 123.703 52.3799C123.62 52.0088 123.478 51.4562 123.276 50.7221C123.08 49.9868 122.94 49.4336 122.857 49.0626C122.793 48.7729 122.74 48.515 122.701 48.2891C121.911 48.5031 120.952 48.848 119.826 49.3239C118.89 49.72 117.954 50.1186 117.019 50.5197C117.086 50.8676 117.18 51.4525 117.299 52.2743C117.407 52.9972 117.512 53.5849 117.613 54.0373C117.676 54.3169 117.629 54.5754 117.474 54.8128C117.319 55.0503 117.094 55.202 116.8 55.2679C116.505 55.3338 116.237 55.2923 115.995 55.1434C115.754 54.9946 115.602 54.7804 115.539 54.5008C115.425 53.9875 115.296 53.2103 115.154 52.1693C115.017 51.1272 114.892 50.3495 114.777 49.8361C114.632 49.1855 114.428 48.2036 114.167 46.8905C113.904 45.5723 113.7 44.5879 113.554 43.9372C113.492 43.6577 113.538 43.3992 113.693 43.1617C113.848 42.9243 114.073 42.7726 114.368 42.7067C114.663 42.6408 114.931 42.6823 115.172 42.8311C115.414 42.9799 115.566 43.1941 115.628 43.4737C115.715 43.86 115.829 44.4454 115.973 45.2299C116.12 46.0082 116.237 46.5905 116.323 46.9768C116.352 47.1039 116.388 47.3518 116.433 47.7207C116.478 48.0629 116.523 48.3225 116.567 48.4992L119.373 47.2959C120.471 46.8369 121.431 46.4996 122.252 46.2839C122.197 45.9388 122.025 45.0165 121.738 43.517C121.661 43.1233 121.68 42.6468 121.795 42.0874C121.94 41.3986 122.192 41.0138 122.553 40.9331C122.823 40.8729 123.082 40.9085 123.33 41.0398C123.597 41.183 123.762 41.3994 123.827 41.6891C123.844 41.7654 123.851 41.8439 123.848 41.9247ZM133.781 42.9225C133.354 43.541 132.761 44.4928 132.002 45.7778C131.443 46.8846 130.848 48.1598 130.215 49.6034C130.041 50.016 129.773 50.6336 129.412 51.456C129.232 51.8432 128.972 52.0748 128.631 52.1509C128.291 52.2271 127.99 52.1848 127.73 52.0241C127.469 51.8583 127.313 51.6131 127.262 51.2883C126.786 48.3259 126.512 46.6795 126.438 46.3491C126.141 45.0224 125.838 43.7986 125.529 42.6776C125.506 42.5974 125.445 42.3975 125.347 42.0779C125.27 41.8283 125.214 41.6247 125.178 41.4671C125.114 41.1774 125.159 40.9138 125.314 40.6764C125.474 40.4378 125.707 40.2844 126.012 40.2162C126.316 40.148 126.59 40.1884 126.831 40.3372C127.078 40.4849 127.233 40.7036 127.298 40.9934C127.331 41.1408 127.387 41.3311 127.466 41.5643C127.557 41.8534 127.615 42.0406 127.639 42.1259C127.822 42.8002 128.026 43.6431 128.252 44.6546C128.434 45.4679 128.595 46.2724 128.736 47.0682C129.538 45.3306 130.549 43.5888 131.771 41.8428C131.976 41.546 132.206 41.1291 132.46 40.5921C132.767 39.9364 132.978 39.5077 133.093 39.3058C133.131 38.8064 133.414 38.4976 133.942 38.3794C134.247 38.3113 134.522 38.346 134.766 38.4835C135.016 38.6199 135.173 38.8355 135.239 39.1303C135.309 39.4455 135.402 39.921 135.518 40.557C135.632 41.1878 135.724 41.6583 135.793 41.9684C135.873 42.3242 135.988 42.8616 136.138 43.5805C136.287 44.2944 136.401 44.8292 136.48 45.185C136.584 45.6476 136.718 46.3459 136.885 47.2801C137.056 48.2132 137.194 48.9135 137.298 49.3811C137.362 49.6658 137.314 49.9274 137.153 50.166C136.993 50.4046 136.763 50.5574 136.463 50.6244C136.158 50.6926 135.883 50.6528 135.636 50.5051C135.39 50.3574 135.235 50.1412 135.171 49.8566C135.065 49.3839 134.926 48.6759 134.752 47.7327C134.583 46.7833 134.446 46.0748 134.341 45.6071C134.265 45.2666 134.17 44.8182 134.057 44.2618C133.917 43.5672 133.825 43.1207 133.781 42.9225ZM141.136 42.8396C141.091 43.7142 141.048 45.0286 141.008 46.7827C141.04 47.3786 141.074 47.9715 141.11 48.5612C141.062 49.3296 140.759 49.7762 140.2 49.9012C139.85 49.9796 139.546 49.9221 139.289 49.7286C139.071 49.5639 138.93 49.3418 138.868 49.0623C138.684 48.2388 138.635 47.1958 138.721 45.933C138.848 44.0421 138.91 42.9955 138.908 42.7933C138.88 41.9775 138.855 41.1613 138.833 40.3444C138.82 39.2157 138.907 38.4439 139.092 38.029C139.28 37.6079 139.578 37.3519 139.985 37.261C140.447 37.1577 140.84 37.3153 141.163 37.7341C141.465 38.1309 141.886 38.9868 142.425 40.3018C142.946 41.5785 143.598 42.9324 144.382 44.3635C144.624 42.7243 144.792 40.9469 144.887 39.0311L144.922 37.1821C145.034 36.3938 145.377 35.9356 145.952 35.8072C146.506 35.6833 147.012 36.0132 147.47 36.7967C147.658 37.1123 147.919 37.721 148.254 38.6227C149.033 40.7221 149.819 42.4945 150.611 43.9397C151.415 45.4092 151.832 46.2126 151.863 46.3498C151.93 46.6497 151.866 46.928 151.673 47.1847C151.49 47.4177 151.259 47.5654 150.98 47.6279C150.426 47.7517 149.925 47.4473 149.479 46.7146L148.639 44.9649C148.191 44.1045 147.633 42.8497 146.965 41.2004C146.889 41.9326 146.749 43.0872 146.547 44.6642L146.403 46.1693C146.339 46.7654 146.245 47.264 146.121 47.6653C145.957 48.1982 145.634 48.5186 145.151 48.6266C144.673 48.7334 144.244 48.5331 143.864 48.0257L143.12 46.703C142.432 45.4904 141.771 44.2026 141.136 42.8396ZM158.504 35.0188C158.402 35.0415 158.292 35.0502 158.174 35.0446C157.3 35.0051 156.475 35.0722 155.697 35.246C155.316 35.3312 154.913 35.4532 154.49 35.6119C154.066 35.7706 153.622 35.966 153.156 36.1982C153.307 36.8742 153.509 37.8832 153.76 39.2252C154.041 39.1412 155.013 38.8251 156.679 38.2767C157.628 37.9632 158.232 37.7774 158.491 37.7195C158.791 37.6524 159.069 37.6916 159.326 37.8371C159.582 37.9774 159.745 38.2051 159.815 38.5203C159.95 39.1252 159.704 39.5404 159.077 39.766C158.677 39.8874 158.081 40.074 157.289 40.3258C156.585 40.5685 155.519 40.9107 154.092 41.3526C154.201 42.006 154.299 42.531 154.388 42.9275C154.611 43.9237 154.796 44.4774 154.943 44.5885C155.014 44.6421 155.342 44.6036 155.926 44.4729C156.241 44.4025 156.715 44.2886 157.347 44.1313C157.979 43.9741 158.452 43.8602 158.767 43.7898C158.869 43.7671 159.016 43.7183 159.207 43.6435C159.398 43.5687 159.542 43.5205 159.639 43.4989C159.934 43.433 160.204 43.4606 160.45 43.5818C160.731 43.7164 160.909 43.9541 160.986 44.2946C161.113 44.8639 160.892 45.2709 160.322 45.5157C159.835 45.7259 158.791 46.0099 157.19 46.3678C155.533 46.7382 154.403 46.7559 153.8 46.4211C153.136 46.0519 152.62 45.0464 152.253 43.4047C152.101 42.7235 151.921 41.6911 151.713 40.3073C151.509 38.9173 151.331 37.8842 151.18 37.2082C151.14 37.0303 151.057 36.7742 150.928 36.4399C150.799 36.1006 150.715 35.8419 150.675 35.664C150.502 34.8914 150.772 34.4256 151.483 34.2666C151.707 34.2166 151.927 34.2341 152.144 34.3191C152.7 34.0399 153.235 33.8057 153.748 33.6164C154.264 33.4208 154.759 33.2702 155.232 33.1646C156.513 32.8782 157.57 32.7967 158.403 32.92C158.911 32.9933 159.216 33.2638 159.321 33.7315C159.38 33.9958 159.341 34.2501 159.203 34.4943C159.052 34.7735 158.819 34.9484 158.504 35.0188ZM171.073 31.3688C171.054 31.7626 171.076 32.0967 171.137 32.3712C171.169 32.5135 171.203 32.738 171.239 33.0448C171.28 33.3452 171.316 33.5666 171.348 33.709C171.456 34.1918 171.591 34.9142 171.752 35.8761C171.914 36.8379 172.049 37.5603 172.157 38.0432C172.24 38.4142 172.391 38.962 172.612 39.6866C172.833 40.4111 172.984 40.9589 173.067 41.3299C173.13 41.6095 173.084 41.868 172.928 42.1054C172.773 42.3429 172.549 42.4946 172.254 42.5605C171.954 42.6275 171.673 42.5889 171.411 42.4446C171.151 42.3054 170.99 42.0985 170.928 41.824C170.845 41.453 170.703 40.9004 170.502 40.1662C170.305 39.431 170.166 38.8778 170.083 38.5067C170.018 38.217 169.966 37.9592 169.926 37.7333C169.136 37.9472 168.178 38.2922 167.051 38.7681C166.115 39.1641 165.179 39.5627 164.244 39.9638C164.311 40.3117 164.405 40.8966 164.524 41.7184C164.633 42.4414 164.737 43.0291 164.839 43.4814C164.901 43.761 164.855 44.0195 164.7 44.257C164.545 44.4944 164.32 44.6461 164.025 44.712C163.73 44.7779 163.462 44.7364 163.221 44.5876C162.979 44.4387 162.827 44.2245 162.765 43.945C162.65 43.4316 162.522 42.6544 162.38 41.6135C162.243 40.5713 162.117 39.7936 162.002 39.2802C161.857 38.6296 161.653 37.6477 161.392 36.3346C161.129 35.0164 160.925 34.032 160.78 33.3814C160.717 33.1018 160.764 32.8433 160.919 32.6059C161.074 32.3684 161.299 32.2167 161.593 32.1508C161.888 32.0849 162.156 32.1264 162.398 32.2753C162.639 32.4241 162.791 32.6383 162.854 32.9179C162.94 33.3042 163.055 33.8896 163.198 34.6741C163.345 35.4523 163.462 36.0346 163.549 36.4209C163.577 36.548 163.614 36.796 163.659 37.1648C163.703 37.5071 163.748 37.7666 163.793 37.9434L166.598 36.74C167.696 36.2811 168.656 35.9437 169.478 35.7281C169.422 35.383 169.25 34.4607 168.963 32.9611C168.886 32.5675 168.905 32.0909 169.02 31.5315C169.165 30.8427 169.418 30.458 169.779 30.3773C170.048 30.3171 170.307 30.3526 170.555 30.484C170.822 30.6271 170.988 30.8436 171.052 31.1333C171.069 31.2095 171.076 31.288 171.073 31.3688ZM181.831 30.4691C181.435 30.5578 180.811 30.6679 179.96 30.7994C179.139 30.9241 178.516 31.0368 178.09 31.1373C178.24 31.7122 178.539 32.7287 178.988 34.1868C179.388 35.4743 179.673 36.4993 179.843 37.2617C179.882 37.4345 179.957 37.6872 180.069 38.0198C180.18 38.3524 180.255 38.6052 180.294 38.778C180.379 39.1592 180.375 39.5205 180.28 39.8618C180.159 40.2998 179.906 40.5619 179.519 40.6483C179.24 40.7107 178.973 40.6769 178.72 40.5467C178.437 40.4019 178.262 40.1795 178.195 39.8796C178.179 39.8085 178.168 39.6989 178.161 39.5509C178.154 39.3978 178.142 39.2831 178.124 39.2069C178.072 38.9731 177.975 38.6238 177.834 38.159C177.698 37.6931 177.603 37.3407 177.55 37.1018C177.398 36.4207 177.138 35.5101 176.771 34.37C176.35 33.0605 176.073 32.1538 175.939 31.6501L175.543 31.7387C174.409 31.992 173.491 32.1118 172.789 32.098C172.194 32.0869 171.838 31.817 171.719 31.2884C171.662 31.0291 171.701 30.7749 171.837 30.5256C171.995 30.2288 172.25 30.0545 172.601 30.0026C172.781 29.973 173.195 29.9259 173.842 29.8613C174.358 29.8047 174.771 29.7418 175.081 29.6725C175.391 29.6032 175.852 29.4947 176.465 29.3471C177.083 29.1983 177.547 29.0893 177.857 29.02C178.243 28.9336 178.829 28.832 179.614 28.7153C180.398 28.5934 180.983 28.4893 181.369 28.4029C181.674 28.3348 181.951 28.3771 182.198 28.5299C182.451 28.6815 182.61 28.9022 182.674 29.1919C182.739 29.4817 182.69 29.7515 182.527 30.0014C182.368 30.2451 182.136 30.401 181.831 30.4691ZM78.1875 79.1085C77.9843 79.25 77.6994 79.778 77.3327 80.6925C77.001 81.5245 76.8088 82.1091 76.7561 82.4465C76.6861 82.9211 76.4198 83.2101 75.9573 83.3135C75.7031 83.3703 75.4605 83.3471 75.2293 83.244C74.9732 83.1252 74.8162 82.9361 74.7583 82.6769C74.6651 82.2601 74.7959 81.6038 75.1507 80.7079C75.4903 79.8635 75.8767 79.1687 76.3099 78.6236C76.0775 78.4674 75.8219 78.207 75.5429 77.8424C75.226 77.4276 74.991 77.1519 74.8377 77.0154C74.6658 76.867 74.5265 76.8048 74.4197 76.8286C74.2011 76.8775 74.0042 76.8441 73.829 76.7285C73.6576 76.6067 73.5476 76.4365 73.4987 76.218C73.4533 76.0147 73.5598 75.7987 73.8182 75.5702C74.0456 75.3699 74.2762 75.2436 74.5101 75.1914C75.0031 75.0812 75.4549 75.2043 75.8655 75.5609C75.9769 75.6534 76.2838 76.0117 76.7862 76.6359C76.9418 76.8306 77.0626 76.953 77.1485 77.0032C77.2706 77.072 77.4444 77.0972 77.6697 77.0788C77.5052 76.4859 77.3803 75.9988 77.2951 75.6176C77.1235 74.85 77.3758 74.3907 78.0518 74.2396C78.3263 74.1783 78.5788 74.2099 78.8095 74.3344C79.0441 74.4528 79.1898 74.639 79.2466 74.8932C79.3216 75.2286 79.4655 75.8129 79.6784 76.6459C79.9906 76.5387 80.1989 76.3481 80.303 76.074C80.3682 75.7926 80.4365 75.5131 80.5079 75.2356C80.6299 74.7547 80.756 74.4117 80.8863 74.2065C81.0982 73.8655 81.4101 73.6491 81.8218 73.557C82.0505 73.5059 82.3104 73.5225 82.6015 73.6069C82.9326 73.7037 83.1209 73.8537 83.1664 74.057C83.2152 74.2756 83.1855 74.477 83.0773 74.6613C82.9742 74.8445 82.8133 74.9605 82.5947 75.0094C82.4372 75.0446 82.2827 75.3326 82.1314 75.8734C82.0561 76.2051 81.9777 76.5348 81.8962 76.8626C81.8276 77.0807 81.7445 77.2701 81.647 77.4307C82.271 77.7395 82.9165 78.2036 83.5833 78.8231C84.2857 79.4826 84.6835 80.0207 84.7767 80.4375C84.8358 80.7019 84.7742 80.9398 84.592 81.1513C84.4267 81.343 84.217 81.4672 83.9628 81.5241C83.5003 81.6274 83.1369 81.4819 82.8726 81.0873C82.6813 80.8045 82.2615 80.3593 81.6134 79.7517C80.8996 79.0894 80.4139 78.7309 80.1563 78.6765C80.1801 78.7832 80.2321 79.0278 80.3122 79.4101C80.3742 79.7111 80.4262 79.9557 80.4682 80.1438C80.483 80.2098 80.5111 80.3236 80.5525 80.4851C80.5991 80.6455 80.6325 80.7715 80.653 80.863C80.8654 81.8135 80.626 82.366 79.9348 82.5205C79.6654 82.5807 79.4196 82.5556 79.1974 82.4451C78.9527 82.3291 78.8008 82.1389 78.7417 81.8746C78.6906 81.6458 78.6212 81.2877 78.5336 80.8003C78.4499 80.3067 78.3826 79.9455 78.3314 79.7168C78.2826 79.4982 78.2346 79.2955 78.1875 79.1085ZM93.9667 81.2253C93.4838 81.3332 93.1176 81.1989 92.868 80.8224C92.7084 80.5859 92.5768 80.1884 92.4733 79.6298L88.5468 80.5075C88.5061 80.5165 88.1636 80.6198 87.5193 80.8172C87.5375 80.8985 87.569 81.0275 87.6138 81.2043C87.6598 81.3862 87.6936 81.5254 87.7152 81.6219C87.7799 81.9117 87.7317 82.1733 87.5704 82.4068C87.4142 82.6392 87.1836 82.7895 86.8787 82.8576C86.1467 83.0212 85.6802 82.6532 85.4791 81.7535C85.4382 81.5705 85.3882 81.3229 85.329 81.0105C85.2699 80.6982 85.2205 80.4531 85.1807 80.2752C85.1148 79.9804 85.1625 79.7162 85.3238 79.4827C85.4732 79.2679 85.6942 79.1224 85.9867 79.0463C86.2959 78.3048 86.4362 77.4756 86.4073 76.5587C86.3845 75.9074 86.2595 75.0735 86.0322 74.0569C85.8084 73.0555 86.2404 72.4333 87.3281 72.1902C87.4552 72.1618 87.6938 72.1191 88.044 72.0622C88.3981 71.999 88.6769 71.9447 88.8802 71.8993C89.0733 71.8561 89.3571 71.7767 89.7315 71.661C90.1059 71.5453 90.377 71.4687 90.5447 71.4312C91.053 71.3176 91.4336 71.4326 91.6866 71.7763C91.8393 71.9824 91.9754 72.3522 92.0947 72.8859C92.1435 73.1045 92.201 73.4332 92.2671 73.8721C92.3382 74.3098 92.3982 74.6379 92.4471 74.8565C92.4903 75.0496 92.7103 75.9744 93.1072 77.6309C93.8449 77.5407 94.2797 77.7904 94.4115 78.38C94.4558 78.5783 94.5211 78.8465 94.6073 79.1848C94.6936 79.5231 94.7584 79.7888 94.8015 79.982C94.8663 80.2717 94.818 80.5333 94.6568 80.7668C94.5017 81.0043 94.2717 81.1571 93.9667 81.2253ZM88.1937 78.6411L90.9613 78.0225C90.5621 76.3559 90.3483 75.459 90.3199 75.332C90.2744 75.1287 90.2196 74.8234 90.1552 74.4161C90.0744 73.9112 90.0214 73.6028 89.9965 73.491C89.1025 73.7175 88.5064 73.8561 88.2081 73.9067C88.5555 75.6756 88.5507 77.2538 88.1937 78.6411ZM99.3423 78.3426C98.1275 78.6141 97.0691 78.5465 96.1669 78.1397C95.1699 77.6902 94.5412 76.8834 94.2811 75.7194C93.9936 74.4334 94.0885 73.2701 94.5657 72.2295C95.0975 71.0753 96.0014 70.3556 97.2772 70.0704C98.1616 69.8727 98.9279 69.8509 99.5761 70.0049C100.428 70.2094 100.942 70.7082 101.119 71.5011C101.244 72.0603 101.042 72.6257 100.514 73.1975C100.274 73.4594 99.7664 73.8769 98.9926 74.4501L96.6772 76.1605C96.9802 76.3702 97.3193 76.5026 97.6945 76.5575C98.0697 76.6124 98.4809 76.5898 98.9282 76.4899C99.6093 76.3376 100.155 76.0689 100.565 75.6837C100.931 75.3403 101.242 75.1402 101.496 75.0834C102.024 74.9653 102.346 75.1629 102.461 75.6762C102.59 76.2557 102.272 76.8233 101.505 77.379C100.861 77.843 100.14 78.1642 99.3423 78.3426ZM97.6896 71.9155C97.2169 72.0212 96.848 72.2691 96.583 72.6592C96.318 73.0493 96.1542 73.5822 96.0918 74.258C96.6105 73.8805 97.1272 73.5062 97.642 73.135C98.2589 72.6715 98.7411 72.2622 99.0886 71.907C98.7049 71.79 98.2386 71.7928 97.6896 71.9155ZM99.0134 67.9532C98.7135 68.0202 98.4132 68.002 98.1126 67.8984C97.7543 67.7757 97.5422 67.5669 97.4763 67.2721C97.3172 66.5605 97.7663 66.0865 98.8235 65.8502C99.098 65.7889 99.3904 65.8196 99.7007 65.9423C100.057 66.0814 100.268 66.2959 100.333 66.5856C100.409 66.9261 100.295 67.2291 99.9916 67.4944C99.741 67.7105 99.415 67.8634 99.0134 67.9532ZM95.7273 68.6877C94.7819 68.899 94.2285 68.6438 94.0672 67.922C94.0126 67.6781 94.1191 67.4141 94.3865 67.1302C94.637 66.866 94.902 66.7027 95.1816 66.6403C96.1626 66.421 96.7324 66.6779 96.8909 67.411C96.9477 67.6651 96.8215 67.9361 96.5123 68.2241C96.2431 68.4764 95.9815 68.6309 95.7273 68.6877ZM108.194 69.6637C108.056 69.6944 107.849 69.7353 107.573 69.7865C107.3 69.8315 107.095 69.8693 106.958 69.9C106.881 69.917 106.799 69.9408 106.709 69.9715C107.326 72.2298 107.74 73.8292 107.95 74.7695C108.204 75.9081 107.961 76.5603 107.218 76.7262C106.944 76.7875 106.684 76.7576 106.438 76.6365C106.175 76.5086 106.012 76.3074 105.951 76.0329C105.911 75.855 105.858 75.5839 105.793 75.2196C105.726 74.8502 105.673 74.5766 105.634 74.3987C105.478 73.7023 105.137 72.3935 104.612 70.4723C104.52 70.4928 104.294 70.5433 103.933 70.624C103.415 70.7399 103.025 70.7762 102.765 70.7331C102.35 70.6658 102.094 70.4161 101.997 69.9841C101.936 69.7096 101.977 69.4522 102.121 69.212C102.268 68.9655 102.495 68.8081 102.8 68.74L107.306 67.7328C108.297 67.5112 108.869 67.741 109.021 68.4221C109.084 68.7068 109.039 68.9678 108.884 69.2053C108.734 69.4416 108.504 69.5944 108.194 69.6637ZM122.329 66.5041C122.192 66.5348 121.985 66.5757 121.708 66.6269C121.435 66.6719 121.23 66.7097 121.093 66.7404C121.017 66.7574 120.934 66.7812 120.845 66.8119C121.462 69.0702 121.875 70.6696 122.085 71.6099C122.34 72.7485 122.096 73.4007 121.354 73.5666C121.08 73.6279 120.819 73.598 120.573 73.4769C120.31 73.349 120.148 73.1478 120.086 72.8733C120.047 72.6954 119.994 72.4243 119.929 72.06C119.862 71.6906 119.809 71.417 119.769 71.2391C119.613 70.5427 119.273 69.2339 118.747 67.3127C118.656 67.3332 118.43 67.3837 118.069 67.4644C117.55 67.5803 117.161 67.6166 116.9 67.5735C116.485 67.5062 116.229 67.2565 116.133 66.8245C116.071 66.55 116.112 66.2926 116.256 66.0524C116.404 65.8059 116.63 65.6485 116.935 65.5804L121.441 64.5732C122.432 64.3516 123.004 64.5814 123.156 65.2625C123.22 65.5472 123.174 65.8082 123.019 66.0457C122.869 66.282 122.639 66.4348 122.329 66.5041ZM129.581 71.5837C128.366 71.8552 127.307 71.7876 126.405 71.3809C125.408 70.9313 124.779 70.1245 124.519 68.9605C124.232 67.6745 124.327 66.5113 124.804 65.4706C125.336 64.3164 126.24 63.5967 127.515 63.3115C128.4 63.1138 129.166 63.092 129.814 63.246C130.666 63.4506 131.18 63.9493 131.358 64.7423C131.482 65.3014 131.281 65.8668 130.752 66.4386C130.512 66.7005 130.005 67.118 129.231 67.6912L126.915 69.4016C127.218 69.6114 127.558 69.7437 127.933 69.7986C128.308 69.8535 128.719 69.831 129.166 69.731C129.848 69.5787 130.393 69.31 130.803 68.9248C131.17 68.5814 131.48 68.3813 131.734 68.3245C132.263 68.2064 132.584 68.404 132.699 68.9174C132.829 69.4968 132.51 70.0644 131.743 70.6201C131.099 71.0841 130.379 71.4053 129.581 71.5837ZM127.928 65.1566C127.455 65.2623 127.086 65.5102 126.821 65.9003C126.556 66.2904 126.392 66.8234 126.33 67.4991C126.849 67.1216 127.365 66.7473 127.88 66.3761C128.497 65.9126 128.979 65.5033 129.327 65.1481C128.943 65.0311 128.477 65.0339 127.928 65.1566ZM138.304 59.2511C138.175 59.3224 137.776 59.4331 137.105 59.583C136.434 59.733 135.935 59.9726 135.608 60.3018C135.287 60.6298 135.068 61.1058 134.951 61.7296C135.307 61.506 135.751 61.3346 136.285 61.2153C137.398 60.9665 138.346 61.2455 139.13 62.0524C139.755 62.7024 140.187 63.5585 140.424 64.6209C140.679 65.7594 140.595 66.8188 140.174 67.7989C139.689 68.9214 138.843 69.6173 137.639 69.8866C136.338 70.1774 135.257 69.8692 134.398 68.9619C133.705 68.2255 133.202 67.1584 132.89 65.7606C132.557 64.2713 132.561 62.7974 132.902 61.3389C133.341 59.4798 134.274 58.3559 135.703 57.9671C135.823 57.9297 136.038 57.8763 136.348 57.807C136.77 57.7127 137.058 57.6296 137.213 57.5577C137.271 57.0802 137.501 56.7966 137.903 56.7069C138.233 56.633 138.552 56.7112 138.86 56.9413C139.143 57.1556 139.316 57.4076 139.381 57.6973C139.511 58.2768 139.151 58.7947 138.304 59.2511ZM136.646 63.296C136.041 63.4312 135.62 63.8136 135.381 64.4432C135.166 65.009 135.136 65.6375 135.291 66.3288C135.404 66.8371 135.627 67.2356 135.958 67.5245C136.315 67.8342 136.723 67.9379 137.18 67.8356C137.76 67.7061 138.154 67.3805 138.363 66.8588C138.552 66.3897 138.574 65.8324 138.429 65.1869C138.105 63.7331 137.51 63.1029 136.646 63.296ZM148.06 67.373C147.76 67.4401 147.483 67.406 147.229 67.2707C146.958 67.1338 146.79 66.9204 146.725 66.6307C146.694 66.4884 146.585 66.0484 146.398 65.3109C145.666 65.7841 144.761 66.7015 143.683 68.0632C143.492 68.3035 143.256 68.4549 142.976 68.5174C142.682 68.5833 142.399 68.5478 142.128 68.4108C141.861 68.2677 141.697 68.0563 141.634 67.7767C141.527 67.2989 142.105 66.4706 143.368 65.2917C142.178 65.0028 141.496 64.4721 141.323 63.6995C141.06 62.5203 141.679 61.3758 143.181 60.2661C143.8 59.8078 144.718 59.4423 145.938 59.1696C146.294 59.0901 146.616 59.1436 146.903 59.3303C147.194 59.5107 147.377 59.7661 147.45 60.0965C147.6 60.7674 147.849 61.7738 148.197 63.1156C148.549 64.4512 148.801 65.457 148.952 66.1331C149.015 66.4177 148.956 66.6791 148.775 66.9171C148.593 67.1552 148.355 67.3072 148.06 67.373ZM145.375 61.3049C144.984 61.4189 144.588 61.6541 144.188 62.0105C143.725 62.4235 143.512 62.8073 143.549 63.162C143.829 63.4622 144.203 63.6188 144.67 63.6318C144.967 63.6456 145.389 63.5885 145.937 63.4608C145.806 62.9937 145.619 62.2751 145.375 61.3049ZM158.606 58.3235C158.291 58.3939 158.008 58.3584 157.757 58.2169C157.512 58.0743 157.357 57.8581 157.292 57.5684C157.28 57.5125 157.248 57.4289 157.196 57.3177C157.15 57.2053 157.12 57.1186 157.106 57.0577C157.042 56.773 157.097 56.5153 157.269 56.2846C157.446 56.0477 157.684 55.8957 157.984 55.8287C158.746 55.6583 159.24 56.0763 159.465 57.0827C159.53 57.3724 159.479 57.6346 159.313 57.8693C159.151 58.1028 158.916 58.2542 158.606 58.3235ZM159.881 63.4579C159.094 63.634 158.567 63.1274 158.301 61.938C158.237 61.6533 158.298 61.3889 158.484 61.1446C158.663 60.9178 158.899 60.7715 159.194 60.7056C159.967 60.5329 160.484 61.0336 160.747 62.2078C160.812 62.4975 160.761 62.7622 160.596 63.002C160.43 63.2366 160.192 63.3886 159.881 63.4579ZM166.202 66.2719C165.974 66.4671 165.755 66.5879 165.547 66.6345C165.288 66.6925 165.039 66.6546 164.801 66.521C164.563 66.3875 164.416 66.1936 164.359 65.9394C164.291 65.6345 164.382 65.3259 164.632 65.0138C164.853 64.7615 165.071 64.5073 165.286 64.2511C166.155 62.9095 166.322 61.0417 165.787 58.6476C165.578 57.7124 165.228 56.79 164.736 55.8805C164.182 54.857 163.576 54.1146 162.917 53.6533C162.608 53.461 162.298 53.2688 161.988 53.0765C161.584 52.7985 161.356 52.5426 161.304 52.3088C161.246 52.0496 161.294 51.7987 161.448 51.5561C161.601 51.3085 161.814 51.154 162.089 51.0927C162.277 51.0506 162.52 51.0871 162.818 51.2019C164.039 51.6761 165.146 52.6269 166.137 54.0544C167.018 55.3198 167.61 56.6337 167.915 57.9959C168.763 61.7928 168.193 64.5515 166.202 66.2719Z" fill="white"/>
</svg>
