<svg width="199" height="141" viewBox="0 0 199 141" fill="none" xmlns="http://www.w3.org/2000/svg">
<path d="M78.4816 47.2166C78.6914 48.018 78.2118 48.8377 77.4103 49.0475C76.6089 49.2573 75.7892 48.7777 75.5794 47.9763L78.4816 47.2166ZM24.5378 31.0351L28.3717 14.1442L41.0827 25.9099L24.5378 31.0351ZM26.5162 26.6923C27.1083 26.1129 28.058 26.1232 28.6374 26.7153C29.2168 27.3074 29.2065 28.2571 28.6144 28.8365L26.5162 26.6923ZM35.3288 23.6569C34.6118 24.0717 33.6942 23.8267 33.2793 23.1097C32.8644 22.3926 33.1094 21.475 33.8265 21.0601L35.3288 23.6569ZM42.5697 17.7532C43.3839 17.6001 44.168 18.1361 44.321 18.9503C44.474 19.7645 43.938 20.5485 43.1238 20.7015L42.5697 17.7532ZM51.3784 20.753C50.5662 20.5897 50.0402 19.7989 50.2036 18.9867C50.3669 18.1745 51.1577 17.6485 51.9698 17.8119L51.3784 20.753ZM60.6688 21.2532C61.3775 21.6822 61.6043 22.6044 61.1754 23.3132C60.7464 24.0219 59.8241 24.2487 59.1154 23.8197L60.6688 21.2532ZM65.6383 29.1819C65.0733 28.576 65.1065 27.6268 65.7124 27.0618C66.3183 26.4969 67.2674 26.53 67.8324 27.1359L65.6383 29.1819ZM73.2972 34.5353C73.7151 35.2505 73.474 36.1692 72.7587 36.5871C72.0435 37.005 71.1248 36.7639 70.7069 36.0487L73.2972 34.5353ZM74.3105 43.8492C74.0332 43.0685 74.4413 42.2109 75.2219 41.9336C76.0026 41.6563 76.8602 42.0643 77.1375 42.845L74.3105 43.8492ZM33.8265 21.0601C36.7097 19.392 39.6433 18.3032 42.5697 17.7532L43.1238 20.7015C40.5504 21.1852 37.9357 22.1487 35.3288 23.6569L33.8265 21.0601ZM51.9698 17.8119C55.0116 18.4236 57.9351 19.5986 60.6688 21.2532L59.1154 23.8197C56.6545 22.3302 54.054 21.291 51.3784 20.753L51.9698 17.8119ZM67.8324 27.1359C69.8579 29.3081 71.6939 31.7911 73.2972 34.5353L70.7069 36.0487C69.2087 33.4844 67.5034 31.1821 65.6383 29.1819L67.8324 27.1359ZM77.1375 42.845C77.6402 44.2602 78.0895 45.7188 78.4816 47.2166L75.5794 47.9763C75.2087 46.5601 74.7844 45.1831 74.3105 43.8492L77.1375 42.845Z" fill="white"/>
<path d="M51.9882 77.075C51.5513 77.2448 51.1388 77.1396 50.7509 76.7596C50.5689 76.5788 50.4208 76.4855 50.3068 76.4795C50.2207 76.4739 50.0224 76.5314 49.7117 76.6521C49.1 76.8899 48.5786 77.6401 48.1473 78.9029C47.5429 80.6689 47.4661 82.132 47.917 83.2923C48.1226 83.8214 48.4762 84.2065 48.9778 84.4474C49.4793 84.6883 49.9777 84.7126 50.4728 84.5201C50.9535 84.3334 51.3923 84.0175 51.7894 83.5727C51.9283 83.4125 52.2048 83.0312 52.6189 82.4289C52.8994 82.0293 53.1368 81.7917 53.331 81.7163C53.6222 81.6031 53.9113 81.6137 54.1982 81.748C54.4649 81.8735 54.6483 82.0649 54.7483 82.3222C54.8596 82.6086 54.8305 82.9076 54.6611 83.2193C53.7638 84.8644 52.6233 85.9558 51.2398 86.4935C50.1475 86.918 49.0704 86.8784 48.0085 86.3747C46.992 85.8869 46.2818 85.1236 45.878 84.0847C45.246 82.4584 45.312 80.5217 46.0759 78.2747C46.7263 76.3679 47.6826 75.1693 48.9448 74.6787C49.1584 74.5957 49.353 74.5285 49.5285 74.477C49.7089 74.4237 49.8704 74.3861 50.0128 74.3643C50.1452 74.0725 50.362 73.8681 50.6629 73.7512C51.1581 73.5587 51.5743 73.7239 51.9116 74.2466C52.1526 74.6223 52.3787 75.082 52.59 75.6257C52.6844 75.8684 52.6998 76.1167 52.6364 76.3704C52.5538 76.7043 52.3377 76.9391 51.9882 77.075ZM64.3133 81.3122C63.8375 81.4971 63.4151 81.3735 63.046 80.9414C62.5755 80.3922 61.7946 79.7486 60.7031 79.0105C59.3339 78.0898 58.3628 77.7407 57.79 77.9634L57.2657 78.1671C57.36 78.4099 57.5095 78.8016 57.714 79.3423C57.9054 79.8491 58.0586 80.2506 58.1737 80.5467C58.2039 80.6244 58.2701 80.7802 58.3722 81.0144C58.4792 81.2466 58.5601 81.4331 58.6148 81.5739C59.0619 82.7244 58.9238 83.4402 58.2005 83.7213C57.9141 83.8326 57.6374 83.8396 57.3704 83.7422C57.1083 83.6429 56.9226 83.4524 56.8131 83.1709C56.6792 82.8262 56.4919 82.3011 56.2512 81.5956C56.0105 80.89 55.8232 80.3649 55.6893 80.0203C55.4346 79.3649 55.0292 78.3937 54.4731 77.1067C53.9171 75.8196 53.5117 74.8484 53.257 74.1931C52.9023 73.2804 53.0721 72.6892 53.7663 72.4194C54.0576 72.3062 54.3337 72.305 54.5947 72.4159C54.8587 72.5201 55.0445 72.7105 55.152 72.9872C55.3445 73.4824 55.7885 74.5531 56.4842 76.1994C57.1105 75.8554 57.5096 75.2505 57.6816 74.3846C57.7982 73.6352 57.914 72.8833 58.0287 72.1291C58.2622 71.3063 58.7697 70.7431 59.5513 70.4394C59.8037 70.3412 60.0889 70.3058 60.4069 70.3332C60.7895 70.3688 61.0262 70.5032 61.1167 70.7362C61.1922 70.9304 61.2037 71.1327 61.1514 71.343C61.092 71.5784 60.9603 71.7357 60.7565 71.815C60.3729 71.964 60.1606 72.6109 60.1193 73.7557C60.0857 74.7187 59.808 75.5139 59.2863 76.1414C60.2649 76.3589 61.4004 76.9011 62.6928 77.7679C63.9832 78.6298 64.7464 79.3641 64.9822 79.971C65.0879 80.2428 65.0712 80.5091 64.9323 80.7699C64.7915 81.0258 64.5851 81.2065 64.3133 81.3122ZM71.1622 70.2939C70.8325 70.9696 70.389 71.9997 69.8318 73.3841C69.4459 74.5622 69.0487 75.9124 68.64 77.4347C68.5294 77.8688 68.3576 78.5195 68.1246 79.3867C68.0045 79.7966 67.7819 80.0648 67.4566 80.1912C67.1313 80.3176 66.8281 80.3209 66.5468 80.2011C66.2637 80.0764 66.0724 79.8574 65.973 79.544C65.0581 76.6866 64.5393 75.1001 64.4167 74.7845C63.9242 73.5175 63.441 72.353 62.9668 71.2912C62.9318 71.2154 62.8418 71.0269 62.6968 70.7256C62.583 70.4905 62.4969 70.2976 62.4384 70.1471C62.3309 69.8704 62.3359 69.603 62.4535 69.345C62.576 69.085 62.7829 68.8985 63.0742 68.7853C63.3655 68.6721 63.6416 68.6709 63.9026 68.7818C64.1685 68.8908 64.3552 69.0837 64.4628 69.3604C64.5175 69.5012 64.6013 69.6809 64.7143 69.8997C64.848 70.1718 64.9333 70.3482 64.9702 70.4288C65.2521 71.068 65.5808 71.8707 65.9563 72.8367C66.2581 73.6135 66.5383 74.3847 66.7968 75.1503C67.3284 73.3121 68.067 71.4381 69.0123 69.5285C69.1712 69.2041 69.3357 68.7574 69.5057 68.1884C69.7108 67.494 69.8551 67.0385 69.9385 66.8217C69.9008 66.3222 70.1344 65.9744 70.6393 65.7782C70.9306 65.665 71.2073 65.658 71.4694 65.7573C71.7363 65.8547 71.9245 66.0442 72.034 66.3258C72.1509 66.6268 72.3143 67.083 72.5239 67.6944C72.7317 68.3009 72.8932 68.7523 73.0082 69.0484C73.1403 69.3882 73.3345 69.9023 73.5908 70.5905C73.8452 71.274 74.0385 71.7856 74.1705 72.1254C74.3422 72.5672 74.5803 73.2374 74.8849 74.136C75.1943 75.0328 75.4357 75.7044 75.6093 76.1511C75.715 76.4229 75.7065 76.6888 75.5841 76.9488C75.4616 77.2087 75.2571 77.3943 74.9707 77.5056C74.6794 77.6188 74.4008 77.6209 74.135 77.5119C73.8691 77.4029 73.6833 77.2125 73.5777 76.9406C73.4022 76.4892 73.1579 75.8102 72.8447 74.9037C72.5345 73.9905 72.2926 73.3106 72.1191 72.864C71.9927 72.5387 71.8315 72.1096 71.6356 71.5767C71.3935 70.9108 71.2357 70.4832 71.1622 70.2939ZM88.1606 72.8825C88.1889 72.9554 88.2376 73.0593 88.3069 73.1945C88.3781 73.3344 88.4278 73.4408 88.4561 73.5137C88.5637 73.7904 88.5562 74.0587 88.4337 74.3186C88.3112 74.5786 88.1043 74.7652 87.813 74.8784C87.3713 75.05 86.9995 74.985 86.6978 74.6831C86.5053 74.4897 86.3157 74.1527 86.1289 73.6721C86.061 73.4973 85.9831 73.2538 85.8953 72.9415C85.2981 73.1736 84.1975 73.6125 82.5933 74.2583C81.0115 74.8898 79.9123 75.3253 79.2958 75.5649C79.5378 76.2308 79.69 76.6439 79.7522 76.8041C79.8598 77.0808 79.8523 77.3491 79.7298 77.6091C79.6122 77.8671 79.4077 78.0527 79.1164 78.1659C78.8251 78.2791 78.5466 78.2812 78.2807 78.1722C78.0197 78.0613 77.8354 77.8675 77.7278 77.5908C77.6448 77.3772 77.5252 77.0549 77.3689 76.6239C77.2125 76.193 77.0929 75.8707 77.0099 75.6571C76.9193 75.5246 76.8693 75.4463 76.8598 75.422C76.6674 74.9268 76.8943 74.4754 77.5405 74.0678C77.7056 71.6456 77.307 69.1966 76.3448 66.7207C76.275 66.5411 76.144 66.2903 75.9518 65.9683C75.7625 65.6395 75.6368 65.395 75.5745 65.2348C75.3255 64.594 75.6603 64.0895 76.5789 63.7213L80.2724 62.2691C80.2579 62.2748 80.6284 62.114 81.3842 61.7868C81.5074 61.6439 81.6613 61.5366 81.8458 61.4649C82.1371 61.3517 82.4156 61.3496 82.6815 61.4586C82.9474 61.5676 83.1341 61.7605 83.2416 62.0372C83.4322 62.5275 83.7244 63.2577 84.1181 64.2278C84.51 65.1931 84.8003 65.9185 84.989 66.4039C85.3097 67.2292 85.8235 68.6304 86.5305 70.6076L86.6 70.6141C87.114 70.5708 87.4644 70.7894 87.6512 71.27C87.7191 71.4448 87.804 71.7136 87.9059 72.0763C88.0077 72.439 88.0926 72.7078 88.1606 72.8825ZM81.6587 63.9599C81.3839 64.0723 81.0198 64.2138 80.5665 64.3844C79.9995 64.5935 79.6336 64.7302 79.4685 64.7943C79.1578 64.9151 78.7164 65.095 78.1444 65.3341C78.1576 65.368 78.2397 65.5792 78.3906 65.9676C78.7698 66.9434 79.0904 68.0844 79.3522 69.3908C79.635 70.8231 79.7616 72.0619 79.732 73.1072C80.0718 72.9751 80.605 72.7511 81.3316 72.4352C82.0261 72.1374 82.5627 71.9149 82.9413 71.7677C83.2666 71.6413 83.7592 71.4639 84.4191 71.2353C84.2561 70.8014 84.0156 70.1321 83.6975 69.2276C83.4022 68.3812 83.1554 67.7032 82.9573 67.1935C82.8837 67.0042 82.4509 65.9263 81.6587 63.9599ZM96.3828 68.8489C95.9071 69.0338 95.4847 68.9102 95.1156 68.4781C94.6451 67.9289 93.8641 67.2853 92.7726 66.5472C91.4034 65.6265 90.4324 65.2775 89.8595 65.5001L89.3353 65.7039C89.4296 65.9466 89.579 66.3383 89.7836 66.8791C89.975 67.3858 90.1282 67.7873 90.2433 68.0834C90.2734 68.1611 90.3396 68.317 90.4418 68.5511C90.5488 68.7833 90.6296 68.9698 90.6844 69.1106C91.1315 70.2611 90.9934 70.977 90.2701 71.2581C89.9836 71.3694 89.7069 71.3763 89.44 71.2789C89.1779 71.1796 88.9921 70.9892 88.8827 70.7076C88.7487 70.3629 88.5614 69.8378 88.3208 69.1323C88.0801 68.4268 87.8928 67.9017 87.7588 67.557C87.5041 66.9016 87.0988 65.9304 86.5427 64.6434C85.9867 63.3564 85.5813 62.3852 85.3266 61.7298C84.9719 60.8171 85.1416 60.2259 85.8359 59.9561C86.1271 59.8429 86.4033 59.8418 86.6643 59.9527C86.9283 60.0568 87.1141 60.2473 87.2216 60.524C87.414 61.0191 87.8581 62.0899 88.5538 63.7361C89.18 63.3922 89.5792 62.7872 89.7511 61.9213C89.8678 61.1719 89.9835 60.4201 90.0983 59.6658C90.3318 58.8431 90.8393 58.2798 91.6209 57.9761C91.8733 57.878 92.1585 57.8426 92.4764 57.8699C92.8591 57.9056 93.0957 58.0399 93.1863 58.273C93.2618 58.4671 93.2733 58.6694 93.2209 58.8797C93.1616 59.1152 93.0299 59.2725 92.826 59.3517C92.4425 59.5008 92.2301 60.1477 92.1889 61.2924C92.1552 62.2555 91.8776 63.0507 91.3559 63.6781C92.3345 63.8957 93.47 64.4378 94.7623 65.3046C96.0528 66.1665 96.816 66.9009 97.0518 67.5077C97.1575 67.7796 97.1408 68.0459 97.0019 68.3066C96.861 68.5625 96.6547 68.7433 96.3828 68.8489ZM106.905 64.9105C106.516 65.045 105.955 64.7435 105.221 64.006C104.741 63.5332 104.264 62.9588 103.789 62.2829C103.45 62.4759 102.883 62.7576 102.089 63.1279C101.342 63.4794 100.779 63.7708 100.4 64.0021C100.384 64.6229 100.308 65.5773 100.172 66.8652C100.094 67.2978 99.8656 67.5876 99.4869 67.7348C99.2199 67.8385 98.9447 67.8421 98.6613 67.7455C98.376 67.6441 98.1787 67.4525 98.0692 67.171C97.973 66.9234 98.001 65.9458 98.1532 64.2382C98.0268 64.1142 97.9429 63.9847 97.9017 63.8499C97.8306 63.6093 97.9953 63.3357 98.3958 63.0292C98.621 61.5671 98.907 60.031 99.2536 58.4212C99.7522 56.1096 100.142 54.8991 100.424 54.7897C100.958 54.5821 101.44 54.7663 101.871 55.3422C102.17 55.8239 102.625 56.5436 103.238 57.5014C104.077 58.7844 105.061 60.2434 106.188 61.8785C106.275 62.0012 106.523 62.2735 106.933 62.6954C107.27 63.0449 107.479 63.3241 107.56 63.5329C107.669 63.8144 107.654 64.0914 107.514 64.3637C107.379 64.6342 107.176 64.8164 106.905 64.9105ZM101.285 58.4948C101.16 59.2925 100.982 60.3813 100.753 61.7612C100.952 61.6277 101.277 61.4568 101.727 61.2485C102.257 61.0032 102.589 60.8435 102.723 60.7693C102.361 60.1835 101.882 59.4253 101.285 58.4948ZM122.438 58.6391C122.317 58.6863 122.12 58.7404 121.848 58.8016C121.578 58.856 121.388 58.9049 121.276 58.9483L119.132 59.773C118.948 59.8447 118.678 59.9775 118.323 60.1713C117.966 60.3603 117.693 60.4915 117.504 60.5651C117.451 60.5859 117.369 60.6063 117.26 60.6265C117.15 60.6467 117.069 60.6672 117.015 60.688C116.578 60.8578 116.213 60.7957 115.92 60.5017C115.737 60.3161 115.554 59.9903 115.373 59.5242C115.02 58.6164 114.926 57.7784 115.092 57.0101C115.219 56.4185 115.539 55.7523 116.05 55.0116C116.537 54.3248 117.023 53.6414 117.508 52.9614C118.058 52.1051 118.195 51.3225 117.92 50.6137C117.848 50.4292 117.624 50.3066 117.249 50.2459C116.871 50.1802 116.537 50.204 116.245 50.3172C115.731 50.5172 115.274 50.9601 114.876 51.6458C114.48 52.3247 114.176 52.7057 113.962 52.7887C113.705 52.8887 113.455 52.9133 113.211 52.8626C112.908 52.8016 112.703 52.6327 112.595 52.356C112.48 52.0599 112.503 51.7578 112.662 51.4499C113.048 50.7022 113.413 50.1245 113.757 49.7168C114.255 49.1268 114.841 48.7007 115.515 48.4385C116.355 48.1121 117.198 48.0387 118.045 48.2182C119.013 48.4231 119.655 48.9333 119.972 49.7489C120.293 50.5742 120.376 51.3493 120.222 52.0741C120.105 52.6504 119.811 53.2815 119.34 53.9675C118.883 54.5868 118.424 55.2037 117.964 55.8182C117.276 56.7787 117.048 57.658 117.28 58.4563C117.533 58.3186 117.912 58.1269 118.414 57.8814C119.427 57.4261 120.157 57.1117 120.604 56.9381C121.021 56.7759 121.469 56.7053 121.946 56.7264C122.538 56.7535 122.902 56.9419 123.038 57.2914C123.136 57.5438 123.132 57.7996 123.026 58.0588C122.916 58.3362 122.72 58.5297 122.438 58.6391ZM128.466 56.808C126.98 57.3853 125.68 57.2816 124.565 56.4969C124.372 56.3595 124.242 56.2059 124.176 56.036C124.074 55.7739 124.092 55.51 124.229 55.2444C124.366 54.9788 124.568 54.7941 124.835 54.6904C125.107 54.5847 125.379 54.5961 125.653 54.7245C126.13 54.9468 126.388 55.0645 126.427 55.0774C126.793 55.17 127.228 55.1182 127.733 54.922C128.48 54.6314 128.998 54.1147 129.284 53.3718C129.559 52.6559 129.551 51.9217 129.258 51.1692C128.977 50.4459 128.645 49.9518 128.263 49.6868C127.885 49.4201 127.454 49.381 126.969 49.5697C126.114 49.9017 125.535 50.4454 125.23 51.2007C125.117 51.5129 125 51.8237 124.88 52.133C124.714 52.4825 124.483 52.7148 124.187 52.8298C123.91 52.9374 123.638 52.9342 123.37 52.8204C123.108 52.7046 122.926 52.5181 122.826 52.2608C122.783 52.1491 122.66 51.7107 122.457 50.9456C122.065 49.461 121.777 48.4832 121.594 48.0123C121.549 47.8958 121.443 47.7525 121.276 47.5826C121.114 47.4108 121.011 47.2666 120.966 47.1501C120.871 46.9074 120.923 46.6748 121.122 46.4524C121.278 46.2798 121.488 46.1426 121.75 46.0407C121.847 46.003 121.996 45.9561 122.198 45.9C122.403 45.8372 122.554 45.787 122.651 45.7493L126.156 44.3953C126.244 44.3614 126.425 44.2742 126.7 44.1337C126.975 43.9933 127.159 43.9051 127.251 43.8693C127.513 43.7674 127.762 43.7684 127.998 43.8723C128.232 43.9713 128.4 44.1519 128.502 44.414C128.783 45.1374 128.188 45.7849 126.717 46.3565C126.601 46.4018 126.452 46.4569 126.27 46.5219C126.094 46.5849 125.976 46.6278 125.918 46.6504L123.748 47.4938C123.848 47.7956 123.978 48.3095 124.137 49.0355C124.653 48.4776 125.352 48.027 126.236 47.6836C127.415 47.2252 128.482 47.3164 129.435 47.9574C130.226 48.4826 130.834 49.2938 131.261 50.391C131.774 51.7114 131.791 52.9622 131.311 54.1433C130.812 55.3764 129.864 56.2646 128.466 56.808ZM133.716 45.9249C132.944 46.2248 132.234 46.2019 131.585 45.856C130.99 45.5455 130.552 45.031 130.273 44.3125C130.062 43.7688 130.148 43.1569 130.532 42.4769C130.894 41.8276 131.35 41.3963 131.898 41.1831C132.694 40.8737 133.427 40.8824 134.096 41.2091C134.729 41.5161 135.191 42.0435 135.482 42.7911C135.738 43.4513 135.661 44.0932 135.25 44.7169C134.887 45.2656 134.376 45.6683 133.716 45.9249ZM138.521 40.4953C138.452 40.8351 138.403 41.2703 138.374 41.801C138.334 42.5599 138.309 42.9997 138.3 43.1206C138.221 43.8945 138.123 45.0586 138.006 46.6127C138.006 46.6688 137.886 47.9782 137.647 50.5409C137.636 50.9586 137.597 51.583 137.529 52.4141C137.473 52.8324 137.271 53.1094 136.921 53.2453C136.688 53.3358 136.446 53.3378 136.194 53.2512C135.943 53.1646 135.77 52.9999 135.675 52.7572C135.575 52.4999 135.607 51.4957 135.77 49.7448L136.086 46.588C136.186 45.4931 136.302 43.8524 136.436 41.6659C136.473 40.3663 136.741 39.6194 137.241 39.4251C137.484 39.3307 137.731 39.3327 137.981 39.4309C138.235 39.5224 138.408 39.6871 138.5 39.9249C138.561 40.0803 138.567 40.2704 138.521 40.4953ZM142.529 50.9821C141.791 51.2688 141.094 51.2939 140.438 51.0572C139.745 50.8125 139.26 50.3333 138.982 49.6197C138.69 48.8672 138.671 48.1508 138.927 47.4705C139.201 46.7381 139.738 46.2162 140.539 45.9049C141.258 45.6257 141.969 45.5727 142.674 45.746C143.473 45.9493 144.012 46.4077 144.289 47.1213C144.593 47.9029 144.581 48.6621 144.252 49.3988C143.929 50.1336 143.354 50.6613 142.529 50.9821ZM132.547 42.9174C132.387 42.9797 132.259 43.0882 132.162 43.243C132.064 43.3929 132.034 43.5164 132.072 43.6135C132.181 43.8951 132.317 44.0855 132.478 44.1848C132.644 44.2821 132.834 44.2893 133.048 44.2063C133.271 44.1195 133.442 44.0056 133.561 43.8646C133.677 43.7188 133.716 43.5948 133.676 43.4929C133.561 43.1968 133.409 43.0014 133.222 42.9067C133.034 42.812 132.809 42.8155 132.547 42.9174ZM141.207 47.6235C140.94 47.7272 140.771 47.8881 140.699 48.1059C140.63 48.3171 140.66 48.5877 140.788 48.9178C140.873 49.1363 141.017 49.2702 141.221 49.3196C141.429 49.3671 141.696 49.3277 142.021 49.2013C142.352 49.073 142.548 48.91 142.611 48.7123C142.677 48.5079 142.634 48.2116 142.483 47.8232C142.421 47.663 142.262 47.5628 142.006 47.5225C141.755 47.4804 141.489 47.514 141.207 47.6235ZM46.0026 97.0866C46.0432 97.4788 46.1145 97.8059 46.2163 98.0681C46.2692 98.204 46.3367 98.4208 46.4189 98.7186C46.504 99.0096 46.573 99.223 46.6258 99.359C46.8051 99.8201 47.0468 100.514 47.3511 101.441C47.6553 102.367 47.8971 103.061 48.0763 103.523C48.214 103.877 48.4464 104.396 48.7733 105.079C49.1003 105.762 49.3326 106.281 49.4704 106.635C49.5741 106.902 49.5672 107.165 49.4496 107.423C49.3319 107.681 49.1323 107.865 48.8508 107.974C48.5643 108.085 48.2809 108.089 48.0005 107.986C47.7219 107.887 47.5317 107.707 47.4298 107.445C47.2921 107.091 47.0685 106.566 46.7591 105.87C46.4545 105.173 46.2333 104.647 46.0956 104.292C45.9881 104.016 45.8977 103.769 45.8243 103.551C45.0754 103.881 44.1798 104.366 43.1376 105.006C42.2716 105.538 41.4065 106.073 40.5423 106.61C40.6609 106.944 40.841 107.508 41.0828 108.302C41.2984 109.001 41.4901 109.566 41.658 109.998C41.7618 110.265 41.7548 110.528 41.6372 110.786C41.5196 111.044 41.32 111.228 41.0384 111.337C40.7568 111.446 40.4855 111.446 40.2245 111.335C39.9635 111.224 39.7811 111.035 39.6773 110.768C39.4868 110.278 39.2432 109.529 38.9465 108.521C38.6546 107.511 38.4134 106.761 38.2229 106.271C37.9814 105.649 37.6328 104.709 37.177 103.45C36.7194 102.186 36.3698 101.244 36.1284 100.622C36.0246 100.355 36.0315 100.093 36.1492 99.8348C36.2668 99.5767 36.4664 99.393 36.748 99.2835C37.0295 99.1741 37.3008 99.1748 37.5619 99.2857C37.8229 99.3966 38.0053 99.5856 38.109 99.8526C38.2524 100.222 38.4539 100.783 38.7134 101.537C38.9759 102.284 39.1789 102.843 39.3222 103.212C39.3694 103.333 39.443 103.573 39.5429 103.93C39.6383 104.262 39.7215 104.512 39.7924 104.68L42.3849 103.069C43.4017 102.45 44.3001 101.973 45.0801 101.636C44.9731 101.303 44.665 100.417 44.1559 98.9778C44.0204 98.6002 43.9675 98.1262 43.9973 97.5558C44.0371 96.8531 44.2293 96.4347 44.574 96.3008C44.8313 96.2008 45.0925 96.197 45.3575 96.2896C45.6428 96.3911 45.8393 96.5802 45.9468 96.8569C45.9751 96.9297 45.9937 97.0063 46.0026 97.0866ZM59.6466 103.661C59.2575 103.796 58.6961 103.494 57.9624 102.757C57.4825 102.284 57.005 101.709 56.53 101.033C56.1915 101.226 55.6249 101.508 54.8301 101.878C54.0838 102.23 53.5209 102.521 53.1414 102.753C53.1256 103.373 53.0495 104.328 52.913 105.616C52.8353 106.048 52.6071 106.338 52.2284 106.485C51.9614 106.589 51.6862 106.593 51.4028 106.496C51.1175 106.395 50.9201 106.203 50.8107 105.922C50.7145 105.674 50.7425 104.696 50.8947 102.989C50.7682 102.865 50.6844 102.735 50.6432 102.6C50.572 102.36 50.7367 102.086 51.1373 101.78C51.3625 100.318 51.6484 98.7816 51.995 97.1717C52.4937 94.8602 52.8837 93.6497 53.1653 93.5402C53.6993 93.3327 54.1816 93.5169 54.6121 94.0927C54.9111 94.5744 55.3668 95.2942 55.9793 96.2519C56.8188 97.535 57.8021 98.994 58.9293 100.629C59.0161 100.752 59.2644 101.024 59.6742 101.446C60.0112 101.796 60.2203 102.075 60.3014 102.283C60.4109 102.565 60.3956 102.842 60.2556 103.114C60.1204 103.385 59.9174 103.567 59.6466 103.661ZM54.0269 97.2454C53.9011 98.0431 53.7235 99.1319 53.4942 100.512C53.6938 100.378 54.0186 100.207 54.4684 99.999C54.9989 99.7537 55.3308 99.594 55.4641 99.5199C55.1023 98.9341 54.6232 98.1759 54.0269 97.2454ZM77.6621 96.6597C77.2729 96.7942 76.7115 96.4927 75.9779 95.7552C75.498 95.2823 75.0205 94.708 74.5455 94.032C74.207 94.2251 73.6403 94.5067 72.8455 94.8771C72.0992 95.2286 71.5364 95.52 71.1569 95.7513C71.1411 96.3721 71.065 97.3265 70.9285 98.6144C70.8507 99.047 70.6225 99.3368 70.2439 99.484C69.9769 99.5877 69.7017 99.5913 69.4182 99.4947C69.1329 99.3932 68.9356 99.2017 68.8262 98.9202C68.7299 98.6726 68.7579 97.695 68.9101 95.9874C68.7837 95.8634 68.6999 95.7339 68.6586 95.599C68.5875 95.3585 68.7522 95.0849 69.1527 94.7784C69.378 93.3162 69.6639 91.7802 70.0105 90.1703C70.5091 87.8588 70.8992 86.6483 71.1808 86.5389C71.7148 86.3313 72.1971 86.5155 72.6276 87.0913C72.9266 87.5731 73.3823 88.2928 73.9948 89.2505C74.8343 90.5336 75.8176 91.9926 76.9448 93.6277C77.0316 93.7504 77.2799 94.0227 77.6897 94.4445C78.0267 94.7941 78.2358 95.0733 78.3169 95.282C78.4263 95.5636 78.411 95.8406 78.271 96.1129C78.1359 96.3834 77.9329 96.5656 77.6621 96.6597ZM72.0424 90.244C71.9165 91.0417 71.739 92.1305 71.5097 93.5104C71.7093 93.3769 72.034 93.206 72.4839 92.9976C73.0144 92.7524 73.3463 92.5926 73.4795 92.5185C73.1177 91.9327 72.6387 91.1745 72.0424 90.244ZM83.5297 94.2452C83.3016 94.3339 82.9847 94.4459 82.5791 94.5812C82.1152 94.7391 81.7973 94.8486 81.6255 94.9098C81.5301 94.9804 81.4289 95.0365 81.3221 95.078C80.6085 95.3554 80.0573 94.994 79.6687 93.994C79.6178 93.8629 79.4923 93.4395 79.2924 92.7237C79.0299 91.7752 78.744 90.9028 78.4346 90.1067C78.2535 89.6406 77.9594 88.9559 77.5524 88.0524C77.1454 87.1488 76.8513 86.4641 76.6702 85.998C76.44 85.4058 76.3376 84.9985 76.363 84.7763C76.4065 84.385 76.7268 84.0734 77.324 83.8413C77.6881 83.6998 78.2338 83.4793 78.9612 83.1799C79.6915 82.8737 80.2412 82.6489 80.6101 82.5055L82.4452 81.7924C82.7365 81.6792 83.0126 81.678 83.2736 81.7889C83.5376 81.8931 83.7234 82.0835 83.8309 82.3602C83.9385 82.6369 83.931 82.9052 83.8085 83.1652C83.689 83.4184 83.4836 83.6016 83.1923 83.7148C82.6631 83.9204 81.2134 84.5034 78.843 85.4637C79.1031 86.0611 79.397 86.7096 79.7248 87.4093C79.9734 87.3014 80.1803 87.2155 80.3454 87.1513C81.8891 86.5514 83.1147 86.3405 84.0221 86.5187C85.1623 86.7349 86.0125 87.564 86.5729 89.0058C87.0483 90.2292 86.9573 91.3178 86.2999 92.2718C85.7396 93.0874 84.8162 93.7452 83.5297 94.2452ZM81.3999 88.9375C81.1621 89.0299 80.8634 89.16 80.5038 89.3276C80.5502 89.4326 80.596 89.5433 80.6413 89.6598C80.8451 90.1841 81.1798 91.2107 81.6454 92.7396C82.1055 92.572 82.4837 92.4306 82.7798 92.3155C84.3673 91.6986 84.9544 90.8585 84.5412 89.7954C84.2544 89.0575 83.8581 88.6415 83.3522 88.5476C82.9391 88.4623 82.2883 88.5922 81.3999 88.9375ZM94.2943 90.4557C92.8574 91.0141 91.4737 91.0769 90.1432 90.6441C88.7221 90.1794 87.7389 89.2455 87.1937 87.8425C86.5522 86.192 86.4843 84.4861 86.9901 82.725C87.5561 80.7449 88.7202 79.4124 90.4824 78.7275C92.1766 78.0691 93.5971 77.9641 94.7436 78.4125C95.8902 78.861 96.7663 79.8644 97.3719 81.4227C98.0134 83.0733 98.1187 84.7534 97.6879 86.4631C97.1926 88.4381 96.0614 89.7689 94.2943 90.4557ZM91.2493 80.7009C90.1667 81.1216 89.4433 82.0063 89.0789 83.3549C88.7367 84.6166 88.7976 85.8446 89.2617 87.0388C89.5749 87.8447 90.1427 88.3784 90.9652 88.6399C91.7558 88.8914 92.6099 88.8389 93.5274 88.4823C94.5954 88.0672 95.2825 87.1967 95.5886 85.8708C95.8723 84.6597 95.7774 83.4449 95.3038 82.2264C94.9076 81.207 94.404 80.5869 93.793 80.3661C93.2089 80.1573 92.361 80.2689 91.2493 80.7009ZM107.316 73.2582C107.357 73.6503 107.428 73.9774 107.53 74.2396C107.583 74.3755 107.65 74.5923 107.733 74.8901C107.818 75.1811 107.887 75.3945 107.94 75.5305C108.119 75.9917 108.361 76.6856 108.665 77.6123C108.969 78.539 109.211 79.2329 109.39 79.6941C109.528 80.0485 109.76 80.5672 110.087 81.2504C110.414 81.9336 110.646 82.4523 110.784 82.8067C110.888 83.0737 110.881 83.3363 110.763 83.5943C110.646 83.8524 110.446 84.0361 110.165 84.1455C109.878 84.2569 109.595 84.2608 109.314 84.1575C109.036 84.059 108.845 83.8787 108.744 83.6165C108.606 83.2621 108.382 82.7372 108.073 82.0416C107.768 81.3441 107.547 80.8182 107.409 80.4638C107.302 80.1871 107.211 79.9401 107.138 79.7227C106.389 80.0529 105.494 80.5378 104.451 81.1775C103.585 81.7097 102.72 82.2443 101.856 82.7813C101.975 83.1152 102.155 83.6794 102.397 84.4739C102.612 85.1724 102.804 85.7377 102.972 86.1698C103.076 86.4368 103.069 86.6993 102.951 86.9573C102.833 87.2154 102.634 87.3991 102.352 87.5086C102.071 87.618 101.799 87.6173 101.538 87.5064C101.277 87.3955 101.095 87.2065 100.991 86.9395C100.801 86.4492 100.557 85.7001 100.26 84.6923C99.9684 83.6825 99.7272 82.9325 99.5366 82.4422C99.2951 81.8208 98.9465 80.8806 98.4908 79.6217C98.0332 78.3579 97.6836 77.4153 97.4421 76.7939C97.3383 76.5269 97.3453 76.2643 97.4629 76.0063C97.5805 75.7482 97.7802 75.5645 98.0617 75.4551C98.3433 75.3456 98.6146 75.3464 98.8756 75.4573C99.1366 75.5682 99.319 75.7571 99.4228 76.0241C99.5662 76.3931 99.7676 76.9546 100.027 77.7086C100.29 78.456 100.493 79.0141 100.636 79.3831C100.683 79.5044 100.757 79.7441 100.857 80.1019C100.952 80.4337 101.035 80.6835 101.106 80.8516L103.699 79.2406C104.715 78.6219 105.614 78.1442 106.394 77.8076C106.287 77.4747 105.979 76.5887 105.47 75.1493C105.334 74.7717 105.281 74.2977 105.311 73.7274C105.351 73.0246 105.543 72.6062 105.888 72.4723C106.145 72.3723 106.406 72.3686 106.671 72.4611C106.957 72.5626 107.153 72.7517 107.261 73.0284C107.289 73.1012 107.307 73.1778 107.316 73.2582ZM117.287 72.7527C116.957 73.4285 116.514 74.4585 115.957 75.8429C115.571 77.0211 115.173 78.3713 114.765 79.8935C114.654 80.3276 114.482 80.9783 114.249 81.8456C114.129 82.2555 113.907 82.5236 113.581 82.65C113.256 82.7764 112.953 82.7797 112.672 82.6599C112.388 82.5353 112.197 82.3162 112.098 82.0028C111.183 79.1454 110.664 77.5589 110.541 77.2434C110.049 75.9763 109.566 74.8119 109.092 73.7501C109.057 73.6743 108.967 73.4857 108.822 73.1845C108.708 72.9493 108.622 72.7565 108.563 72.606C108.456 72.3293 108.461 72.0619 108.578 71.8038C108.701 71.5439 108.908 71.3573 109.199 71.2441C109.49 71.1309 109.766 71.1297 110.027 71.2406C110.293 71.3497 110.48 71.5425 110.588 71.8192C110.642 71.96 110.726 72.1398 110.839 72.3585C110.973 72.6306 111.058 72.807 111.095 72.8877C111.377 73.5269 111.706 74.3295 112.081 75.2956C112.383 76.0723 112.663 76.8435 112.922 77.6092C113.453 75.7709 114.192 73.897 115.137 71.9873C115.296 71.6629 115.46 71.2162 115.631 70.6473C115.836 69.9529 115.98 69.4973 116.063 69.2805C116.026 68.781 116.259 68.4332 116.764 68.237C117.055 68.1238 117.332 68.1169 117.594 68.2162C117.861 68.3136 118.049 68.5031 118.159 68.7846C118.276 69.0856 118.439 69.5418 118.649 70.1532C118.857 70.7598 119.018 71.2111 119.133 71.5072C119.265 71.8471 119.459 72.3611 119.716 73.0494C119.97 73.7328 120.163 74.2444 120.295 74.5842C120.467 75.026 120.705 75.6962 121.01 76.5948C121.319 77.4916 121.561 78.1633 121.734 78.6099C121.84 78.8818 121.831 79.1477 121.709 79.4076C121.586 79.6675 121.382 79.8532 121.095 79.9645C120.804 80.0777 120.526 80.0798 120.26 79.9708C119.994 79.8618 119.808 79.6713 119.702 79.3995C119.527 78.948 119.283 78.269 118.97 77.3626C118.659 76.4494 118.417 75.7695 118.244 75.3228C118.117 74.9976 117.956 74.5685 117.76 74.0356C117.518 73.3697 117.361 72.9421 117.287 72.7527ZM124.545 71.5663C124.633 72.4376 124.788 73.7434 125.012 75.4837C125.133 76.0681 125.255 76.6492 125.379 77.2269C125.448 77.9936 125.215 78.4807 124.681 78.6882C124.346 78.8184 124.037 78.8071 123.755 78.6544C123.514 78.5244 123.342 78.3259 123.238 78.0589C122.933 77.2724 122.727 76.2486 122.623 74.9873C122.464 73.0987 122.369 72.0546 122.336 71.855C122.186 71.0527 122.039 70.2494 121.894 69.4452C121.712 68.3311 121.682 67.5551 121.802 67.1172C121.926 66.6725 122.181 66.3747 122.57 66.2238C123.012 66.0521 123.424 66.149 123.806 66.5145C124.164 66.8614 124.709 67.6444 125.44 68.8635C126.146 70.0476 126.994 71.2881 127.984 72.5852C127.977 70.9283 127.877 69.1457 127.683 67.2375L127.44 65.4041C127.432 64.608 127.702 64.1034 128.251 63.8902C128.78 63.6846 129.33 63.9347 129.9 64.6406C130.134 64.9243 130.483 65.4868 130.95 66.328C132.035 68.2867 133.078 69.9209 134.079 71.2306C135.094 72.5628 135.627 73.2944 135.678 73.4255C135.789 73.7119 135.769 73.9966 135.616 74.2794C135.47 74.5372 135.264 74.718 134.997 74.8217C134.468 75.0274 133.927 74.8015 133.376 74.1442L132.283 72.5405C131.711 71.7572 130.97 70.6004 130.063 69.07C130.097 69.8055 130.133 70.9679 130.169 72.5574L130.253 74.0671C130.279 74.666 130.261 75.1731 130.199 75.5884C130.117 76.1399 129.846 76.5053 129.384 76.6845C128.928 76.8618 128.474 76.7282 128.022 76.2837L127.087 75.0878C126.226 73.9921 125.378 72.8183 124.545 71.5663ZM140.542 61.2256C140.445 61.2633 140.338 61.2884 140.219 61.3007C139.35 61.3928 138.544 61.5831 137.801 61.8718C137.437 62.0133 137.058 62.1943 136.663 62.4148C136.268 62.6353 135.858 62.8953 135.432 63.1948C135.683 63.8405 136.034 64.8078 136.484 66.0967C136.749 65.9716 137.663 65.5129 139.227 64.7207C140.118 64.2681 140.688 63.9937 140.935 63.8975C141.222 63.7862 141.503 63.7831 141.778 63.8884C142.052 63.9888 142.247 64.1894 142.364 64.4904C142.589 65.0681 142.408 65.5156 141.822 65.8329C141.445 66.013 140.883 66.287 140.138 66.6549C139.479 67.0005 138.477 67.4989 137.131 68.1501C137.337 68.7799 137.514 69.2841 137.661 69.6627C138.03 70.6142 138.297 71.1338 138.459 71.2215C138.537 71.2639 138.855 71.1766 139.414 70.9596C139.715 70.8426 140.166 70.6589 140.767 70.4085C141.368 70.1581 141.819 69.9745 142.12 69.8575C142.217 69.8198 142.355 69.7495 142.533 69.6468C142.711 69.5441 142.846 69.4748 142.938 69.439C143.22 69.3296 143.491 69.3163 143.752 69.3991C144.05 69.4901 144.262 69.6982 144.389 70.0234C144.6 70.5672 144.443 71.0028 143.916 71.3303C143.467 71.6112 142.477 72.0488 140.948 72.6431C139.365 73.2582 138.251 73.4455 137.604 73.2051C136.892 72.9398 136.231 72.0232 135.622 70.4551C135.369 69.8046 135.036 68.8109 134.622 67.474C134.212 66.1304 133.881 65.1358 133.63 64.4901C133.564 64.3202 133.443 64.0796 133.266 63.7684C133.087 63.4523 132.965 63.2092 132.899 63.0393C132.612 62.3014 132.809 61.8004 133.488 61.5363C133.702 61.4533 133.922 61.4375 134.149 61.4891C134.657 61.1295 135.151 60.8176 135.629 60.5534C136.111 60.2825 136.577 60.0593 137.029 59.8838C138.252 59.4084 139.285 59.169 140.127 59.1657C140.64 59.162 140.983 59.3835 141.157 59.8301C141.255 60.0826 141.254 60.3398 141.155 60.6019C141.047 60.9007 140.843 61.1086 140.542 61.2256ZM152.421 55.7292C152.461 56.1214 152.532 56.4485 152.634 56.7106C152.687 56.8466 152.755 57.0634 152.837 57.3611C152.922 57.6522 152.991 57.8656 153.044 58.0015C153.223 58.4627 153.465 59.1567 153.769 60.0833C154.073 61.01 154.315 61.704 154.494 62.1651C154.632 62.5195 154.864 63.0383 155.191 63.7215C155.518 64.4046 155.751 64.9234 155.888 65.2778C155.992 65.5448 155.985 65.8073 155.868 66.0654C155.75 66.3234 155.55 66.5072 155.269 66.6166C154.982 66.7279 154.699 66.7319 154.418 66.6286C154.14 66.5301 153.95 66.3497 153.848 66.0876C153.71 65.7332 153.486 65.2082 153.177 64.5127C152.872 63.8152 152.651 63.2893 152.514 62.9349C152.406 62.6582 152.316 62.4111 152.242 62.1938C151.493 62.524 150.598 63.0089 149.556 63.6486C148.69 64.1808 147.824 64.7153 146.96 65.2523C147.079 65.5862 147.259 66.1504 147.501 66.945C147.716 67.6435 147.908 68.2088 148.076 68.6408C148.18 68.9078 148.173 69.1704 148.055 69.4284C147.938 69.6865 147.738 69.8702 147.456 69.9796C147.175 70.0891 146.903 70.0883 146.642 69.9774C146.381 69.8665 146.199 69.6776 146.095 69.4106C145.905 68.9203 145.661 68.1712 145.364 67.1633C145.073 66.1536 144.831 65.4036 144.641 64.9132C144.399 64.2919 144.051 63.3517 143.595 62.0927C143.137 60.8289 142.788 59.8863 142.546 59.2649C142.443 58.9979 142.449 58.7354 142.567 58.4773C142.685 58.2193 142.884 58.0355 143.166 57.9261C143.447 57.8167 143.719 57.8174 143.98 57.9283C144.241 58.0392 144.423 58.2282 144.527 58.4952C144.67 58.8641 144.872 59.4256 145.131 60.1797C145.394 60.927 145.597 61.4852 145.74 61.8541C145.787 61.9755 145.861 62.2151 145.961 62.573C146.056 62.9047 146.139 63.1546 146.21 63.3226L148.803 61.7116C149.82 61.0929 150.718 60.6153 151.498 60.2786C151.391 59.9458 151.083 59.0597 150.574 57.6203C150.438 57.2428 150.385 56.7688 150.415 56.1984C150.455 55.4957 150.647 55.0773 150.992 54.9434C151.249 54.8434 151.51 54.8396 151.775 54.9322C152.061 55.0337 152.257 55.2227 152.365 55.4995C152.393 55.5723 152.412 55.6489 152.421 55.7292ZM162.922 53.224C162.543 53.3711 161.943 53.5737 161.121 53.8316C160.328 54.0782 159.729 54.2831 159.323 54.4464C159.558 54.9923 160.006 55.9523 160.669 57.3265C161.257 58.5394 161.693 59.5099 161.976 60.2381C162.04 60.4031 162.153 60.6417 162.313 60.9537C162.473 61.2658 162.586 61.5044 162.65 61.6694C162.791 62.0335 162.841 62.3914 162.799 62.743C162.745 63.1942 162.534 63.4915 162.165 63.6348C161.898 63.7386 161.629 63.7452 161.359 63.6545C161.058 63.5538 160.851 63.3603 160.74 63.0739C160.713 63.0059 160.686 62.8992 160.657 62.7539C160.627 62.6037 160.598 62.4921 160.569 62.4193C160.482 62.196 160.334 61.8652 160.125 61.4269C159.92 60.9868 159.774 60.6526 159.685 60.4245C159.432 59.7739 159.039 58.9126 158.505 57.8406C157.892 56.6091 157.482 55.7544 157.274 55.2765L156.895 55.4236C155.812 55.8443 154.923 56.1006 154.227 56.1924C153.637 56.2708 153.244 56.0575 153.048 55.5526C152.951 55.305 152.952 55.0477 153.049 54.7808C153.161 54.4637 153.386 54.2531 153.726 54.1491C153.9 54.0928 154.302 53.984 154.932 53.8229C155.433 53.6895 155.832 53.5653 156.128 53.4502C156.424 53.3351 156.864 53.1586 157.448 52.9206C158.036 52.6807 158.478 52.5032 158.775 52.3881C159.144 52.2448 159.707 52.0564 160.466 51.823C161.223 51.5848 161.786 51.394 162.155 51.2506C162.446 51.1374 162.725 51.1377 162.993 51.2516C163.266 51.3636 163.456 51.5579 163.563 51.8346C163.671 52.1113 163.663 52.3855 163.539 52.657C163.419 52.9218 163.213 53.1108 162.922 53.224ZM67.7587 116.878C67.579 117.048 67.3766 117.613 67.1515 118.572C66.9485 119.445 66.8463 120.052 66.8449 120.393C66.8469 120.873 66.6271 121.199 66.1853 121.37C65.9426 121.465 65.6992 121.478 65.4552 121.411C65.1842 121.332 65.0005 121.168 64.9043 120.921C64.7496 120.523 64.7804 119.854 64.9966 118.915C65.2055 118.029 65.4832 117.285 65.8296 116.681C65.5764 116.561 65.2845 116.342 64.954 116.023C64.5784 115.661 64.3046 115.424 64.1325 115.312C63.9403 115.191 63.7932 115.15 63.6912 115.19C63.4825 115.271 63.2828 115.268 63.0922 115.18C62.9045 115.085 62.7701 114.933 62.689 114.724C62.6135 114.53 62.6864 114.301 62.9075 114.036C63.1023 113.804 63.3113 113.644 63.5347 113.558C64.0056 113.375 64.4707 113.428 64.9302 113.719C65.0542 113.794 65.4115 114.102 66.002 114.644C66.185 114.813 66.3228 114.916 66.4153 114.953C66.5464 115.002 66.7219 115.001 66.942 114.949C66.6902 114.388 66.4936 113.925 66.3521 113.561C66.0672 112.828 66.2476 112.336 66.8933 112.085C67.1554 111.983 67.4099 111.976 67.6566 112.065C67.9063 112.146 68.0783 112.309 68.1727 112.551C68.2972 112.872 68.5272 113.428 68.8628 114.219C69.1554 114.067 69.3327 113.847 69.3945 113.56C69.4166 113.272 69.4422 112.986 69.4711 112.701C69.5195 112.207 69.5927 111.849 69.6906 111.626C69.849 111.257 70.1248 110.996 70.518 110.844C70.7365 110.759 70.9959 110.736 71.2963 110.776C71.6383 110.822 71.847 110.942 71.9224 111.136C72.0036 111.345 72.0045 111.548 71.9251 111.747C71.8506 111.943 71.709 112.082 71.5003 112.163C71.3498 112.222 71.2404 112.53 71.172 113.087C71.1474 113.426 71.1194 113.764 71.0881 114.101C71.0529 114.327 70.9992 114.526 70.9269 114.7C71.5903 114.911 72.2981 115.273 73.0504 115.785C73.8439 116.332 74.3181 116.804 74.4728 117.202C74.5709 117.455 74.5457 117.699 74.3974 117.936C74.2627 118.15 74.0741 118.304 73.8313 118.399C73.3896 118.57 73.0084 118.481 72.6878 118.131C72.4562 117.88 71.9744 117.503 71.2423 116.999C70.4372 116.452 69.9032 116.17 69.6402 116.155C69.6799 116.257 69.768 116.491 69.9046 116.857C70.0111 117.145 70.0992 117.379 70.169 117.559C70.1936 117.622 70.2384 117.73 70.3037 117.884C70.3737 118.035 70.4258 118.155 70.4597 118.242C70.8125 119.15 70.6588 119.732 69.9986 119.989C69.7413 120.089 69.4945 120.101 69.2583 120.025C68.9989 119.947 68.8202 119.782 68.722 119.529C68.6371 119.311 68.5148 118.967 68.355 118.499C68.1981 118.023 68.0773 117.676 67.9924 117.458C67.9112 117.249 67.8333 117.056 67.7587 116.878ZM83.6768 116.601C83.2157 116.78 82.8334 116.702 82.5301 116.368C82.3368 116.158 82.147 115.784 81.9608 115.248L78.2106 116.705C78.1718 116.72 77.8487 116.874 77.2413 117.166C77.2715 117.243 77.322 117.366 77.3929 117.534C77.4657 117.707 77.52 117.84 77.5558 117.932C77.6634 118.209 77.6549 118.475 77.5306 118.73C77.411 118.983 77.2056 119.166 76.9144 119.279C76.2153 119.551 75.6988 119.257 75.3649 118.398C75.2969 118.223 75.2103 117.986 75.1049 117.686C74.9995 117.386 74.9138 117.151 74.8478 116.981C74.7384 116.7 74.7458 116.431 74.8702 116.176C74.9857 115.941 75.1823 115.764 75.4601 115.645C75.6545 114.866 75.6685 114.025 75.5024 113.123C75.382 112.482 75.1331 111.676 74.7558 110.705C74.3841 109.749 74.7177 109.069 75.7566 108.665C75.8779 108.618 76.1075 108.54 76.4451 108.431C76.7857 108.316 77.0531 108.22 77.2473 108.145C77.4318 108.073 77.7004 107.952 78.0532 107.781C78.406 107.61 78.6625 107.494 78.8227 107.432C79.3081 107.243 79.7017 107.3 80.0034 107.602C80.1854 107.782 80.3755 108.127 80.5736 108.637C80.6547 108.846 80.7609 109.162 80.8921 109.586C81.0282 110.008 81.1368 110.324 81.2179 110.533C81.2896 110.717 81.6461 111.598 82.2873 113.176C83.0031 112.976 83.4704 113.158 83.6892 113.721C83.7628 113.91 83.8676 114.166 84.0038 114.487C84.1399 114.809 84.2438 115.062 84.3155 115.246C84.423 115.523 84.4146 115.789 84.2902 116.044C84.1726 116.302 83.9681 116.488 83.6768 116.601ZM77.5812 114.913L80.2245 113.886C79.5795 112.298 79.2334 111.443 79.1863 111.322C79.1108 111.128 79.0107 110.834 78.8859 110.441C78.7302 109.954 78.6315 109.657 78.59 109.551C77.7402 109.909 77.1716 110.135 76.8844 110.23C77.4935 111.927 77.7258 113.488 77.5812 114.913ZM88.5586 112.943C87.3983 113.394 86.3417 113.487 85.3887 113.22C84.3354 112.925 83.5927 112.222 83.1607 111.11C82.6834 109.882 82.6025 108.718 82.918 107.617C83.2704 106.396 84.0559 105.549 85.2744 105.075C86.1191 104.747 86.8734 104.61 87.5374 104.665C88.41 104.74 88.9935 105.155 89.2878 105.913C89.4954 106.447 89.3808 107.036 88.944 107.681C88.7457 107.976 88.3071 108.465 87.6282 109.148L85.5959 111.186C85.927 111.348 86.2821 111.428 86.6613 111.426C87.0405 111.424 87.4437 111.34 87.8709 111.174C88.5214 110.921 89.0205 110.574 89.3682 110.131C89.6787 109.737 89.9553 109.492 90.198 109.398C90.7029 109.202 91.0506 109.349 91.2412 109.839C91.4563 110.392 91.2264 111.001 90.5515 111.666C89.985 112.221 89.3207 112.647 88.5586 112.943ZM85.9593 106.838C85.5078 107.013 85.1803 107.313 84.9769 107.739C84.7735 108.164 84.6916 108.716 84.7314 109.393C85.1875 108.942 85.6422 108.495 86.0953 108.05C86.6356 107.499 87.0509 107.022 87.3412 106.619C86.9442 106.561 86.4836 106.634 85.9593 106.838ZM86.673 102.721C86.3865 102.833 86.0869 102.86 85.7741 102.802C85.4014 102.735 85.1604 102.56 85.0509 102.279C84.7868 101.599 85.1596 101.063 86.1694 100.671C86.4315 100.569 86.7252 100.555 87.0504 100.63C87.4239 100.714 87.6644 100.894 87.772 101.171C87.8984 101.496 87.8314 101.813 87.5711 102.121C87.3559 102.372 87.0565 102.572 86.673 102.721ZM83.5345 103.941C82.6315 104.292 82.0461 104.123 81.7782 103.433C81.6876 103.2 81.7532 102.923 81.9749 102.603C82.1829 102.304 82.4204 102.103 82.6874 101.999C83.6244 101.635 84.2262 101.803 84.4931 102.504C84.5874 102.747 84.5033 103.034 84.2409 103.365C84.0127 103.655 83.7772 103.847 83.5345 103.941ZM96.0059 103.034C95.8748 103.085 95.6763 103.156 95.4104 103.248C95.1474 103.334 94.9504 103.402 94.8193 103.453C94.7465 103.481 94.6683 103.517 94.5847 103.561C95.5338 105.701 96.1828 107.22 96.5318 108.118C96.9544 109.206 96.8114 109.887 96.1026 110.162C95.8404 110.264 95.5787 110.274 95.3174 110.191C95.0378 110.104 94.847 109.93 94.7451 109.667C94.6791 109.498 94.5864 109.237 94.467 108.887C94.3457 108.532 94.2521 108.269 94.186 108.099C93.9276 107.434 93.3943 106.192 92.5862 104.371C92.4988 104.405 92.2828 104.489 91.9381 104.623C91.4429 104.815 91.0634 104.91 90.7993 104.906C90.3786 104.902 90.0881 104.694 89.9277 104.281C89.8259 104.019 89.8279 103.758 89.934 103.499C90.043 103.233 90.2431 103.044 90.5344 102.931L94.838 101.258C95.7847 100.89 96.3844 101.031 96.6372 101.682C96.7429 101.954 96.7369 102.219 96.6192 102.477C96.5065 102.733 96.302 102.919 96.0059 103.034ZM109.507 97.7869C109.375 97.8378 109.177 97.9094 108.911 98.0016C108.648 98.087 108.451 98.1552 108.32 98.2061C108.247 98.2344 108.169 98.2704 108.085 98.3141C109.034 100.454 109.683 101.973 110.033 102.871C110.455 103.959 110.312 104.64 109.603 104.916C109.341 105.018 109.079 105.027 108.818 104.944C108.538 104.857 108.348 104.683 108.246 104.421C108.18 104.251 108.087 103.991 107.968 103.64C107.846 103.285 107.753 103.023 107.687 102.853C107.428 102.188 106.895 100.945 106.087 99.1243C106 99.1582 105.783 99.2422 105.439 99.3761C104.944 99.5686 104.564 99.663 104.3 99.6594C103.879 99.6553 103.589 99.4469 103.428 99.0343C103.327 98.7721 103.329 98.5115 103.435 98.2523C103.544 97.9865 103.744 97.7969 104.035 97.6837L108.339 96.0112C109.285 95.6433 109.885 95.7846 110.138 96.4351C110.244 96.707 110.238 96.9719 110.12 97.23C110.007 97.4862 109.803 97.6718 109.507 97.7869ZM117.439 101.72C116.278 102.171 115.222 102.263 114.269 101.996C113.215 101.701 112.473 100.998 112.041 99.8865C111.563 98.6583 111.483 97.4939 111.798 96.3934C112.151 95.1724 112.936 94.3251 114.155 93.8516C114.999 93.5233 115.754 93.3866 116.417 93.4415C117.29 93.5159 117.874 93.9317 118.168 94.689C118.375 95.223 118.261 95.8124 117.824 96.4571C117.626 96.7521 117.187 97.241 116.508 97.924L114.476 99.9627C114.807 100.125 115.162 100.204 115.541 100.202C115.921 100.2 116.324 100.116 116.751 99.9502C117.401 99.6974 117.901 99.3498 118.248 98.9073C118.559 98.5129 118.835 98.2685 119.078 98.1741C119.583 97.9779 119.931 98.125 120.121 98.6153C120.336 99.1687 120.106 99.7777 119.432 100.442C118.865 100.998 118.201 101.424 117.439 101.72ZM114.839 95.6138C114.388 95.7893 114.06 96.0897 113.857 96.5153C113.654 96.9408 113.572 97.4922 113.611 98.1697C114.068 97.7186 114.522 97.2709 114.975 96.8266C115.516 96.2757 115.931 95.7986 116.221 95.3953C115.824 95.3372 115.364 95.41 114.839 95.6138ZM124.21 88.2169C124.094 88.3067 123.716 88.4761 123.075 88.7251C122.434 88.9742 121.977 89.2859 121.704 89.6605C121.435 90.0331 121.29 90.5365 121.268 91.1708C121.586 90.8964 122 90.6601 122.51 90.462C123.573 90.0488 124.552 90.1822 125.448 90.8623C126.164 91.411 126.719 92.1926 127.114 93.2072C127.536 94.2947 127.613 95.3545 127.344 96.3868C127.032 97.5695 126.301 98.3845 125.151 98.8316C123.908 99.3146 122.794 99.1721 121.808 98.4041C121.012 97.7802 120.355 96.8007 119.836 95.4657C119.283 94.0433 119.066 92.5855 119.184 91.0923C119.338 89.1884 120.092 87.937 121.447 87.3381C121.559 87.2831 121.764 87.198 122.06 87.083C122.463 86.9264 122.735 86.8009 122.877 86.7065C122.864 86.2257 123.049 85.9108 123.432 85.7617C123.748 85.6391 124.075 85.6684 124.414 85.8497C124.725 86.0191 124.935 86.2422 125.042 86.5189C125.258 87.0723 124.98 87.6383 124.21 88.2169ZM123.179 92.4649C122.601 92.6894 122.242 93.1308 122.101 93.789C121.974 94.3807 122.038 95.0066 122.295 95.6668C122.483 96.1523 122.763 96.5129 123.134 96.7487C123.534 97.0012 123.952 97.0426 124.389 96.8728C124.943 96.6577 125.284 96.2766 125.412 95.7294C125.528 95.2373 125.466 94.683 125.226 94.0664C124.687 92.678 124.004 92.1442 123.179 92.4649ZM135.076 94.7814C134.79 94.8927 134.511 94.9006 134.239 94.8051C133.951 94.7103 133.753 94.5246 133.645 94.2479C133.592 94.112 133.419 93.6934 133.124 92.9922C132.471 93.5699 131.714 94.6129 130.853 96.121C130.699 96.3874 130.489 96.5725 130.222 96.6763C129.94 96.7857 129.656 96.793 129.367 96.6983C129.082 96.5969 128.887 96.4126 128.784 96.1456C128.606 95.6893 129.053 94.7835 130.125 93.4284C128.904 93.3216 128.151 92.8992 127.864 92.1613C127.426 91.0351 127.867 89.8106 129.186 88.4878C129.728 87.9418 130.581 87.4425 131.746 86.9897C132.086 86.8576 132.412 86.8622 132.724 87.0036C133.039 87.1383 133.258 87.3634 133.381 87.6789C133.63 88.3197 134.027 89.2773 134.572 90.5516C135.121 91.8193 135.521 92.7759 135.772 93.4216C135.877 93.6934 135.858 93.9607 135.714 94.2233C135.571 94.4859 135.358 94.672 135.076 94.7814ZM131.51 89.1853C131.141 89.3568 130.785 89.6487 130.442 90.0613C130.047 90.539 129.894 90.9505 129.983 91.2957C130.306 91.5504 130.699 91.649 131.163 91.5917C131.458 91.5608 131.867 91.441 132.389 91.2324C132.19 90.7903 131.897 90.108 131.51 89.1853ZM144.143 84.2506C143.842 84.3676 143.557 84.3749 143.288 84.2727C143.024 84.1685 142.839 83.9781 142.731 83.7014C142.71 83.648 142.666 83.5702 142.598 83.4679C142.536 83.3638 142.493 83.2826 142.47 83.2244C142.365 82.9525 142.38 82.6896 142.516 82.4356C142.655 82.1748 142.867 81.9888 143.154 81.8775C143.882 81.5945 144.433 81.9336 144.806 82.8948C144.914 83.1715 144.903 83.4384 144.774 83.6954C144.649 83.9504 144.439 84.1355 144.143 84.2506ZM146.175 89.1352C145.423 89.4276 144.826 89.0059 144.385 87.8699C144.279 87.598 144.299 87.3274 144.446 87.058C144.589 86.807 144.801 86.6268 145.083 86.5173C145.821 86.2306 146.407 86.6479 146.843 87.7693C146.951 88.046 146.941 88.3153 146.813 88.5771C146.684 88.8341 146.472 89.0201 146.175 89.1352ZM152.847 90.9679C152.65 91.1952 152.453 91.3475 152.254 91.4249C152.006 91.5211 151.755 91.5211 151.499 91.4247C151.244 91.3284 151.069 91.1589 150.975 90.9161C150.861 90.6249 150.905 90.3061 151.106 89.9599C151.287 89.6773 151.464 89.3932 151.638 89.1077C152.296 87.6508 152.18 85.7791 151.291 83.4925C150.944 82.5993 150.459 81.74 149.837 80.9146C149.135 79.986 148.424 79.343 147.704 78.9858C147.369 78.8423 147.034 78.6987 146.699 78.5552C146.258 78.341 145.994 78.1222 145.907 77.8989C145.811 77.6513 145.821 77.3961 145.937 77.1332C146.05 76.8654 146.238 76.6806 146.501 76.5787C146.68 76.5089 146.926 76.5084 147.238 76.5772C148.516 76.8626 149.753 77.6364 150.948 78.8988C152.008 80.0176 152.792 81.2276 153.297 82.5286C154.707 86.155 154.556 88.9681 152.847 90.9679Z" fill="white"/>
</svg>
