<svg width="530" height="261" viewBox="0 0 530 261" fill="none" xmlns="http://www.w3.org/2000/svg">
<path style="mix-blend-mode:multiply" opacity="0.85" d="M307.529 246.274C302.205 229.086 238.58 233.532 165.42 256.193C92.2592 278.854 37.2588 311.152 42.5827 328.34C47.905 345.523 111.532 341.076 184.693 318.415C257.854 295.754 312.851 263.457 307.529 246.274Z" fill="url(#paint0_radial_27_13807)"/>
<path d="M49.7683 198.286C49.7682 198.286 47.395 197.989 48.1342 200.376L80.6029 305.198C81.5916 308.39 94.7287 306.674 97.0239 306.721C105.265 306.887 156.845 305.737 174.327 305.617C178.239 305.591 181.844 305.005 185.755 304.95L150.62 191.017L52.1902 196.364L49.7683 198.286Z" fill="url(#paint1_linear_27_13807)"/>
<path d="M233.962 144.103L266.081 252.016L185.764 304.949L150.318 190.514L233.962 144.103Z" fill="url(#paint2_linear_27_13807)"/>
<path opacity="0.6" d="M157.855 193.177L196.717 193.75L229.978 149.403L200.72 199.445L157.855 193.177Z" fill="#AA1F1F"/>
<path opacity="0.3" d="M215.429 242.807L188.553 302.678L219.705 256.613L263.082 254.21L215.429 242.807Z" fill="#5B0909"/>
<path style="mix-blend-mode:multiply" opacity="0.6" d="M245.334 252.762L237.985 257.659L237.597 267.852L230.81 260.717L222.074 262.635L225.675 253.577L221.064 244.792L229.925 246.243L235.728 238.85L237.401 248.694L245.334 252.762Z" fill="url(#paint3_linear_27_13807)"/>
<path d="M225.618 142.651C216.817 143.108 207.996 143.701 199.187 144.077C184.233 144.715 169.304 145.785 154.366 146.55C142.831 147.141 132.968 148.187 122.981 154.282C116.464 158.26 109.626 161.775 102.981 165.542C88.0129 174.025 72.9706 182.386 57.9552 190.787C54.4946 192.723 51.0346 194.66 47.5752 196.6L150.469 191.852L213.858 154.112L231.556 144.188L225.618 142.651Z" fill="#DD3636"/>
<path d="M234.042 144.988L191.249 211.2L203.9 252.044L266.151 252.754L234.042 144.988Z" fill="#D33737"/>
<path d="M203.434 222.796C211.43 214.758 239.445 188.137 245.269 182.671L240.552 166.842C235.055 171.34 203.276 199.326 199.658 201.584L191.247 211.196L196.773 229.037C199.049 227.016 201.288 224.952 203.434 222.796Z" fill="url(#paint4_linear_27_13807)"/>
<path style="mix-blend-mode:multiply" opacity="0.6" d="M238.707 241.532L228.597 239.944L220.081 248.335L220.109 236.921L211.225 231.701L221.529 226.799L224.712 215.684L230.993 223.877L241.81 222.124L235.308 231.836L238.707 241.532Z" fill="url(#paint5_linear_27_13807)"/>
<path opacity="0.4" d="M201.423 194.496C201.423 194.496 210.013 194.357 213.877 201.671C217.741 208.985 236.876 237.733 222.021 252.737L212.987 251.437L195.863 204.414L201.423 194.496Z" fill="#AA1F1F"/>
<path d="M149.795 191.75L217.432 194.591L229.152 230.362L188.019 302.257L184.259 303.215L149.795 191.75Z" fill="url(#paint6_linear_27_13807)"/>
<path style="mix-blend-mode:multiply" opacity="0.6" d="M194.084 224.568L183.835 224.845L177.012 234.626L174.918 223.417L165.202 219.907L174.435 213.225L175.503 201.738L183.209 208.638L193.533 204.954L188.936 215.667L194.084 224.568Z" fill="url(#paint7_linear_27_13807)"/>
<path style="mix-blend-mode:multiply" opacity="0.3" d="M70.0236 235.319L78.5719 229.554L89.8943 234.295L85.0319 223.047L90.9234 214.21L79.4475 213.653L71.8353 204.012L69.5774 214.7L58.9683 217.463L69.0147 224.343L70.0236 235.319Z" fill="url(#paint8_linear_27_13807)"/>
<path style="mix-blend-mode:multiply" opacity="0.6" d="M217.377 234.371L211.876 237.657L211.219 245.033L206.566 239.615L200.168 240.691L203.109 234.253L200.092 227.718L206.457 229.089L210.932 223.938L211.783 231.135L217.377 234.371Z" fill="url(#paint9_linear_27_13807)"/>
<path style="mix-blend-mode:multiply" opacity="0.6" d="M132.999 244.596L139.072 246.932L140.867 254.199L144.745 247.972L151.386 247.941L147.422 242.008L149.474 234.946L143.242 237.42L137.923 233.04L138.166 240.389L132.999 244.596Z" fill="url(#paint10_linear_27_13807)"/>
<path style="mix-blend-mode:multiply" opacity="0.6" d="M108.446 227.498L119.665 226.797L127.928 236.817L129.289 224.366L139.615 219.579L128.976 213.183L126.862 200.738L119.012 209.032L107.429 206.016L113.334 217.27L108.446 227.498Z" fill="url(#paint11_linear_27_13807)"/>
<path style="mix-blend-mode:multiply" opacity="0.4" d="M102.428 269.069L112.105 265.289L122.276 271.735L119.878 260.444L127.588 253.337L116.372 250.735L110.916 240.43L106.398 249.911L95.3276 250.537L103.778 258.73L102.428 269.069Z" fill="url(#paint12_linear_27_13807)"/>
<path style="mix-blend-mode:multiply" opacity="0.6" d="M226.82 201.794L221.318 205.081L220.66 212.457L216.008 207.039L209.609 208.115L212.551 201.677L209.534 195.142L215.899 196.513L220.374 191.362L221.225 198.559L226.82 201.794Z" fill="url(#paint13_linear_27_13807)"/>
<path style="mix-blend-mode:multiply" opacity="0.6" d="M199.511 178.31L194.009 181.596L193.352 188.973L188.699 183.555L182.3 184.63L185.242 178.193L182.225 171.657L188.59 173.029L193.065 167.878L193.915 175.074L199.511 178.31Z" fill="url(#paint14_linear_27_13807)"/>
<path d="M140.014 196.489C140.014 196.489 148.352 198.635 151.996 214.528C155.64 230.422 183.504 304.379 173.051 305.725L181.786 305.542L153.942 206.36C153.942 206.36 152.218 194.6 140.014 196.489Z" fill="#FF4A4A"/>
<path d="M197.945 200.817C197.159 201.044 196.321 201.015 195.556 200.735C183.938 210.396 172.069 219.753 159.949 228.806C162.738 238.023 165.631 248.326 168.335 258.311C181.362 245.584 194.357 232.854 207.91 220.665C210.451 218.38 213.005 216.109 215.57 213.851C212.405 206.11 207.195 198.344 197.945 200.817Z" fill="url(#paint15_linear_27_13807)"/>
<path d="M159.732 188.609C178.846 172.448 234.785 146.342 234.785 146.342C233.878 140.318 221.65 143.16 221.65 143.16C221.65 143.16 156.504 185.72 149.364 189.508C142.225 193.295 52.0944 194.419 52.0944 194.419C43.7234 197.327 48.0904 200.072 48.0904 200.072C56.0408 194.773 140.045 195.547 147.419 197.676C154.792 199.805 180.447 305.338 180.447 305.338C184.952 306.465 188.802 302.893 188.509 302.656C188.523 302.664 188.538 302.671 188.553 302.678L222.93 246.83C225.43 243.172 228.483 238.203 229.702 234.182C231.95 226.763 220.57 197.819 217.078 194.802C213.586 191.786 168.122 195.361 157.856 193.182C157.856 193.182 157.04 191.839 159.732 188.609ZM162.555 198.031C172.91 200.497 213.537 193.692 215.992 199.553C218.786 206.224 222.815 216.98 225.209 223.806C227.847 231.325 220.833 243.99 217.119 251.252C212.601 260.084 206.688 266.323 201.709 274.91C198.43 280.565 195.429 286.185 191.452 291.433C185.202 299.683 182.201 291.186 180.073 284.891C177.247 276.533 174.516 268.173 171.837 259.769C167.73 246.89 163.833 233.943 160.052 220.965C159.179 217.97 158.315 214.973 157.459 211.974C156.982 210.305 156.63 206.022 155.431 204.797C155.667 205.039 155.812 205.163 155.812 205.163C155.812 205.163 152.199 195.564 162.555 198.031Z" fill="#FF4A4A"/>
<path style="mix-blend-mode:multiply" opacity="0.6" d="M176.679 241.124L171.049 247.603L165.028 246.307C166.418 251.265 167.792 256.284 169.111 261.192L171.186 260.843L177.039 267.657L177.865 258.379L184.787 254.245L177.749 250.176L176.679 241.124Z" fill="url(#paint16_linear_27_13807)"/>
<path style="mix-blend-mode:multiply" opacity="0.6" d="M213.882 257.309L204.057 260.815L196.351 253.914L195.282 265.402L186.05 272.084L195.765 275.594L197.746 286.197L213.882 257.309Z" fill="url(#paint17_linear_27_13807)"/>
<path d="M226.678 150.11C226.678 150.11 232.813 144.112 237.308 160.687C241.803 177.263 261.622 243.31 261.622 243.31C261.622 243.31 264.586 251.848 263.079 254.207L266.154 252.757C266.154 252.757 235.836 146.643 234.045 144.991C232.254 143.339 226.678 150.11 226.678 150.11Z" fill="#FF4A4A"/>
<path style="mix-blend-mode:hard-light" d="M234.881 149.771C234.881 149.771 235.32 143.961 223.019 149.663C210.718 155.365 160.369 183.254 155.344 189.223C151.181 194.17 157.823 194.13 176.832 197.698C176.832 197.698 153.934 193.443 151.608 195.739C149.584 197.738 157.01 218.338 157.01 218.338C157.01 218.338 149.452 197.038 141.876 195.286L103.711 193.869C103.711 193.869 137.416 194.304 148.838 190.923C153.96 189.408 200.596 158.815 221.609 148.209C224.597 146.7 232.501 141.052 234.881 149.771Z" fill="url(#paint18_linear_27_13807)"/>
<path style="mix-blend-mode:hard-light" d="M218.274 252.006C218.274 252.006 228.748 237.328 228.722 232.063C228.658 219.474 220.679 207.13 220.679 207.13C220.679 207.13 227.37 224.601 226.769 232.983C226.35 238.826 218.274 252.006 218.274 252.006Z" fill="url(#paint19_linear_27_13807)"/>
<path style="mix-blend-mode:multiply" opacity="0.6" d="M236.429 163.58L225.567 160.247L228.414 170.082L220.518 178.473L232.489 178.03L238.732 186.016L242.956 176.581L243.37 176.48L239.054 161.991L236.429 163.58Z" fill="url(#paint20_linear_27_13807)"/>
<path style="mix-blend-mode:multiply" opacity="0.6" d="M249.901 198.203L248.861 199.399L242.496 198.028L245.513 204.563L242.572 211.001L248.971 209.925L253.624 215.343L253.941 211.764L249.901 198.203Z" fill="url(#paint21_linear_27_13807)"/>
<path style="mix-blend-mode:multiply" opacity="0.6" d="M266.159 252.756L262.994 242.132L252.497 238.91L255.346 248.746L251.729 252.59L266.159 252.756Z" fill="url(#paint22_linear_27_13807)"/>
<path style="mix-blend-mode:multiply" opacity="0.3" d="M71.585 254.339L63.9729 244.698L63.1191 248.742L69.939 270.76L70.7095 270.24L82.0319 274.981L77.1697 263.734L83.0605 254.896L71.585 254.339Z" fill="url(#paint23_linear_27_13807)"/>
<path style="mix-blend-mode:multiply" opacity="0.6" d="M165.205 246.88L159.642 247.471L165.206 253.736L162.482 262.146L169.111 261.193L165.205 246.88Z" fill="url(#paint24_linear_27_13807)"/>
<path opacity="0.4" d="M82.2128 180.825L97.9882 178.904L115.112 172.695L110.85 177.888L123.67 177.603L104.36 183.097L94.1749 189.527L87.6687 187.259L69.7172 191.048L84.0212 184.55L82.2128 180.825Z" fill="url(#paint25_linear_27_13807)"/>
<path d="M136.279 173.749L152.055 171.828L169.179 165.62L164.916 170.812L177.737 170.527L158.426 176.021L148.242 182.451L141.735 180.184L123.784 183.972L138.088 177.474L136.279 173.749Z" fill="url(#paint26_linear_27_13807)"/>
<path opacity="0.4" d="M119.111 159.674L130.811 158.249L143.512 153.644L140.35 157.496L149.86 157.284L135.538 161.358L127.983 166.128L123.157 164.446L109.843 167.256L120.452 162.436L119.111 159.674Z" fill="url(#paint27_linear_27_13807)"/>
<path d="M177.315 152.15L189.015 150.726L201.716 146.121L198.554 149.972L208.062 149.761L193.741 153.836L186.186 158.605L181.361 156.923L168.047 159.733L178.656 154.913L177.315 152.15Z" fill="url(#paint28_linear_27_13807)"/>
<path opacity="0.3" d="M172.62 145.578C169.625 145.683 166.74 146.206 163.873 146.366L164.228 147.098L157.126 150.325L166.04 148.444L169.271 149.569L174.328 146.377L177.809 145.386C176.076 145.44 174.345 145.518 172.62 145.578Z" fill="url(#paint29_linear_27_13807)"/>
<path opacity="0.5" d="M137.528 305.068L140.893 305.062L108.349 199.996C108.349 199.996 105.854 193.518 114.565 188.613L105.068 194.077C105.068 194.077 100.4 195.523 103.859 203.593C107.318 211.663 137.528 305.068 137.528 305.068Z" fill="#5B0909"/>
<path d="M137.232 306.526L104.495 198.773C104.495 198.773 102.799 194.674 106.452 192.703C110.103 190.731 189.531 143.012 189.531 143.012L161.256 144.625L83.0387 192.81C83.0387 192.81 80.046 194.157 81.8279 199.91L114.911 306.716L137.232 306.526Z" fill="url(#paint30_linear_27_13807)"/>
<path d="M155.141 162.754C133.318 175.749 108.65 190.485 106.109 192.204C101.407 195.386 103.654 200.503 103.936 201.092L136.649 306.704L137.816 306.343L105.089 200.688L105.049 200.59C104.951 200.402 102.706 195.963 106.793 193.197C109.266 191.524 133.721 176.915 155.459 163.97C155.285 163.585 155.177 163.175 155.141 162.754V162.754Z" fill="#FFC969"/>
<path opacity="0.5" d="M218.306 282.566L215.528 284.463L182.984 179.397C182.984 179.397 181.38 172.643 171.422 173.521L182.345 172.66C182.345 172.66 187.012 171.214 188.721 179.826C190.43 188.438 218.306 282.566 218.306 282.566Z" fill="#5B0909"/>
<path d="M219.377 283.618L185.473 176.226C185.473 176.226 184.554 171.886 180.428 172.324C176.301 172.762 81.3428 176.537 81.3428 176.537L105.935 163.035L199.801 159.179C199.801 159.179 203.032 158.598 204.813 164.351L237.896 271.156L219.377 283.618Z" fill="url(#paint31_linear_27_13807)"/>
<path d="M218.793 283.789L219.959 283.428L187.246 177.816C187.145 177.171 186.107 171.679 180.429 171.712C174.941 171.745 85.7886 176.078 82.0684 176.321L82.1393 177.524C83.0496 177.465 174.976 172.95 180.426 172.918C185.361 172.89 186.019 177.82 186.043 178.03L186.066 178.134L218.793 283.789Z" fill="#E55C00"/>
<path opacity="0.3" d="M103.577 188.252L127.175 174.637L110.264 175.776C110.264 175.776 103.165 181.758 103.577 188.252Z" fill="#5B0909"/>
<path opacity="0.3" d="M86.6443 190.355C86.6443 190.355 87.7856 202.297 104.884 197.632L86.6443 190.355Z" fill="#5B0909"/>
<path opacity="0.3" d="M124.44 163.821C116.254 164.149 93.8322 173.301 93.8322 173.301C93.8322 173.301 101.765 164.853 108.881 162.019L126.084 160.789C126.084 160.789 125.307 163.786 124.44 163.821Z" fill="#5B0909"/>
<path opacity="0.3" d="M187.634 164.42L183.315 159.767L152.029 160.945C152.029 160.945 139.283 162.463 133.65 165.408L124.84 164.952C124.84 164.952 115.507 166.898 111.43 175.412L127.175 174.634C127.175 174.634 144.606 172.072 151.889 166.282C152.868 166.12 154.021 166.523 154.978 166.337L187.634 164.42Z" fill="#5B0909"/>
<path d="M178.195 73.2989C163.65 70.3223 148.133 85.0653 143.858 96.1164C136.897 114.108 133.492 139.432 139.052 158.089C142.797 158.176 146.711 158.07 150.445 157.782C152.707 150.804 150.406 142.303 151.789 135.055C153.382 126.343 156.586 117.987 161.239 110.409C164.714 104.844 167.863 99.3001 175.029 98.7132C179.951 98.3098 188.234 102.644 185.598 108.68C185.598 108.68 188.611 75.4302 178.195 73.2989Z" fill="url(#paint32_linear_27_13807)"/>
<path d="M169.211 72.9375C170.003 72.9165 170.813 72.8716 171.633 72.821C170.824 72.8014 170.015 72.8403 169.211 72.9375V72.9375Z" fill="#FFE655"/>
<path d="M203.391 113.012C201.355 106.072 200.172 98.7361 197.337 92.0986C194.653 85.8146 190.322 76.7026 183.688 73.76C180.105 72.1701 175.748 72.5731 171.635 72.825C186.066 73.2092 185.667 94.3897 181.853 103.947C174.075 123.431 135.196 136.282 138.994 159.995L141.64 162.741C142.983 162.604 144.336 162.637 145.668 162.839C150.653 157.657 161.786 155.28 167.54 153.061C180.97 147.882 191.129 139.676 199.388 127.745C203.61 121.645 205.464 120.072 203.391 113.012Z" fill="url(#paint33_linear_27_13807)"/>
<path d="M141.525 147.64L140.463 147.055C140.69 146.655 146.226 137.113 161.955 124.925C178.311 112.251 186.526 102.044 183.107 84.4302C182.04 78.9374 179.615 75.5216 175.899 74.2787C169.547 72.155 161.173 76.8374 158.328 79.2994C158.048 79.542 157.715 79.8134 157.338 80.1212C151.381 84.979 135.556 97.8826 137.238 146.993L136.019 147.043C134.316 97.3362 150.48 84.1554 156.566 79.1931C156.933 78.8942 157.256 78.6309 157.528 78.3952C160.541 75.7885 169.447 70.8453 176.298 73.1359C180.457 74.527 183.15 78.2474 184.305 84.1938C187.842 102.417 179.443 112.901 162.703 125.871C147.166 137.911 141.579 147.544 141.525 147.64Z" fill="url(#paint34_linear_27_13807)"/>
<g style="mix-blend-mode:hard-light">
<path style="mix-blend-mode:hard-light" d="M183.516 97.8059C183.172 99.8988 182.615 101.953 181.853 103.938C180.541 107.226 178.34 110.325 175.61 113.319C179.617 114.351 183.602 115.438 187.571 116.226C193.04 117.313 198.543 118.688 203.942 120.118C204.46 118.25 204.325 116.184 203.392 113.003C202.168 108.829 201.25 104.514 200.097 100.293C195.421 99.6695 184.382 97.9331 183.516 97.8059Z" fill="url(#paint35_linear_27_13807)"/>
</g>
<path d="M128.751 156.833C121.391 156.132 113.832 151.2 106.107 149.596C98.3442 147.983 90.5081 146.987 83.0969 144.006C73.1349 139.998 60.7851 134.659 65.2242 121.757C60.3044 122.938 43.7218 140.496 46.9595 141.593L49.5574 154.877C53.9143 157.922 56.3092 161.626 62.0224 163.497C69.486 165.94 77.9855 166.279 85.7062 165.636C100.591 164.397 116.766 162.331 130.798 162.405C129.492 160.837 128.77 158.872 128.751 156.833V156.833Z" fill="url(#paint36_linear_27_13807)"/>
<path d="M115.343 128.789C105.7 114.957 91.8228 102.148 74.2854 99.0678C67.9775 97.9599 58.0372 96.482 53.8573 100.963C48.4711 106.736 46.0602 117.043 43.8708 124.35C41.287 132.975 38.261 139.986 43.1825 148.184C45.8183 152.574 50.5519 157.602 54.8237 160.058C52.0246 154.732 48.55 148.422 51.0799 142.402C53.9258 135.63 64.2665 130.956 71.2518 130.032C82.8563 128.497 95.5411 136.774 104.589 142.885C108.966 145.841 126.776 162.008 129.389 161.392L132.698 158.63C132.483 158.291 132.268 157.951 132.055 157.611C125.838 148.846 121.78 138.023 115.343 128.789Z" fill="url(#paint37_linear_27_13807)"/>
<path d="M74.2852 99.0719C74.2739 99.0697 74.2619 99.0681 74.2507 99.0661C74.5836 105.799 76.2734 126.396 76.569 129.98C82.4626 130.556 88.4465 133.114 93.939 136.183C94.8598 127.607 96.7523 119.17 98.8758 110.774C91.7507 105.022 83.5272 100.695 74.2852 99.0719Z" fill="url(#paint38_linear_27_13807)"/>
<path d="M125.018 162.491C124.898 162.509 111.736 164.509 81.9097 166.262C69.4018 166.997 60.3575 164.936 55.0292 160.136C51.0892 156.587 50.6679 152.782 50.6245 152.148C46.1934 137.66 61.6584 131.837 62.6888 131.469C72.3141 126.376 85.9987 129.712 103.366 141.38C111.325 146.763 118.769 152.853 125.607 159.576L125.35 160.812C124.948 160.406 85.2525 120.831 63.2192 132.551L63.1258 132.591C62.487 132.807 47.5284 138.023 51.8132 151.857L51.8393 152.013C51.8406 152.049 52.0318 155.819 55.8907 159.274C59.3863 162.403 66.7272 165.947 81.8471 165.058C111.604 163.31 125.02 161.525 125.139 161.507L125.018 162.491Z" fill="url(#paint39_linear_27_13807)"/>
<path d="M88.7598 181.806C85.9682 188.591 85.665 191.764 91.8627 194.24C96.412 196.057 101.549 196.592 106.091 198.282C102.008 179.612 116.737 160.992 134.98 163.706L131.092 157.345C115.204 157.273 95.1043 166.386 88.7598 181.806Z" fill="url(#paint40_linear_27_13807)"/>
<path d="M106.754 198.498L105.308 197.791C105.269 197.526 101.737 171.796 124.439 163.81L124.84 164.945C103.082 172.6 106.715 198.243 106.754 198.498Z" fill="url(#paint41_linear_27_13807)"/>
<path d="M141.602 154.098L141.535 164.206C142.862 160.046 157.056 158.722 161.522 158.032C170.012 156.719 181.051 157.103 186.824 163.859C187.193 158.258 183.54 150.73 186.718 145.134C174.833 134.498 151.44 144.833 141.602 154.098Z" fill="url(#paint42_linear_27_13807)"/>
<path d="M186.352 164.244C177.535 153.656 152.797 159.886 152.547 159.95L152.249 158.783C153.295 158.513 177.989 152.296 187.295 163.473L186.352 164.244Z" fill="url(#paint43_linear_27_13807)"/>
<path d="M125.031 146.362C127.85 152.193 124.615 165.064 123.93 165.487C128.894 172.244 139.704 166.5 146.265 163.949C151.695 161.838 152.584 161.663 152.373 156.494C152.211 152.543 151.562 150.696 151.088 146.902C140.815 143.309 133.75 149.837 125.031 146.362Z" fill="url(#paint44_linear_27_13807)"/>
<path style="mix-blend-mode:hard-light" d="M151.689 150.737C151.528 149.818 151.357 148.864 151.199 147.744C149.041 147.738 132.262 149.993 126.141 151.729C126.2 153.587 126.112 155.447 125.877 157.293C134.348 154.718 142.988 152.311 151.689 150.737Z" fill="url(#paint45_linear_27_13807)"/>
<path style="mix-blend-mode:hard-light" d="M210.271 181.954L206.84 170.875C201.519 176.19 195.998 181.302 190.398 186.332C189.949 186.735 195.833 205.616 196.248 204.93C200.615 197.701 209.148 183.742 210.271 181.954Z" fill="url(#paint46_linear_27_13807)"/>
<path style="mix-blend-mode:multiply" opacity="0.85" d="M495.451 315.19C498.291 292.464 422.173 264.251 325.441 252.162C228.709 240.073 147.984 248.684 145.144 271.41C142.305 294.128 218.427 322.342 315.159 334.431C411.891 346.52 492.612 337.909 495.451 315.19Z" fill="url(#paint47_radial_27_13807)"/>
<path d="M221.689 124.354C221.689 124.354 219.092 122.765 218.698 125.92L201.377 264.515C200.849 268.735 216.985 273.636 219.622 274.893C229.092 279.407 289.515 305.126 309.852 314.156C314.403 316.177 318.891 317.388 323.455 319.376L342.462 168.818L225.506 123.395L221.689 124.354Z" fill="url(#paint48_linear_27_13807)"/>
<path d="M463.719 158.117L444.372 300.112L323.464 319.377L342.374 168.073L463.719 158.117Z" fill="url(#paint49_linear_27_13807)"/>
<path opacity="0.6" d="M349.717 175.114L394.487 196.159L456.32 162.173L396.142 204.863L349.717 175.114Z" fill="#AA1F1F"/>
<path opacity="0.3" d="M390.458 262.868L327.888 318.207L388.176 281.122L439.741 301.085L390.458 262.868Z" fill="#5B0909"/>
<path d="M454.807 152.058C444.361 147.973 433.82 144.034 423.406 139.85C405.73 132.747 387.854 126.158 370.128 119.211C356.441 113.847 344.455 109.886 329.676 111.718C320.031 112.913 310.258 113.403 300.575 114.286C278.767 116.275 256.938 118.082 235.118 119.949C230.089 120.379 225.06 120.812 220.031 121.247L341.85 169.705L435.158 159.182L460.888 156.954L454.807 152.058Z" fill="#DD3636"/>
<path d="M463.351 159.187L378.996 213.532L372.247 267.535L444.069 301.007L463.351 159.187Z" fill="#D33737"/>
<path d="M387.044 233.369C400.533 228.242 446.985 212.061 456.606 208.776L459.438 187.945C450.703 190.279 399.17 206.067 393.79 206.789L378.994 213.524L376.046 237.114C379.746 235.964 383.425 234.745 387.044 233.369Z" fill="url(#paint50_linear_27_13807)"/>
<path style="mix-blend-mode:multiply" opacity="0.6" d="M418.126 273.6L407.234 266.456L392.957 271.721L398.976 258.498L391.41 247.786L405.931 247.504L415.452 236.283L418.44 249.079L431.904 252.719L419.27 260.572L418.126 273.6Z" fill="url(#paint51_linear_27_13807)"/>
<path opacity="0.4" d="M399.555 199.495C399.555 199.495 409.589 203.839 410.234 214.348C410.88 224.857 417.994 268.232 392.898 277.842L383.101 271.596L387.905 208.081L399.555 199.495Z" fill="#AA1F1F"/>
<path d="M341.118 169.23L418.069 207.998L412.9 255.63L327.491 317.435L322.627 316.575L341.118 169.23Z" fill="url(#paint52_linear_27_13807)"/>
<path style="mix-blend-mode:multiply" opacity="0.6" d="M375.273 230.52L363.242 225.465L350.199 233.23L353.649 219.133L344.222 209.967L358.434 207.059L365.697 194.298L371.016 206.342L384.92 207.484L373.971 217.497L375.273 230.52Z" fill="url(#paint53_linear_27_13807)"/>
<path style="mix-blend-mode:multiply" opacity="0.3" d="M225.756 177.922L238.693 175.719L249.338 187.156L249.597 171.561L261.065 164.403L248.048 157.738L244.276 142.564L236.052 153.776L222.299 151.416L230.342 164.664L225.756 177.922Z" fill="url(#paint54_linear_27_13807)"/>
<path style="mix-blend-mode:multiply" opacity="0.6" d="M397.145 254.106L389.041 255.031L384.411 263.241L381.856 254.518L373.871 252.41L380.659 246.486L380.588 237.325L387.25 242.253L395.142 238.626L392.354 247.418L397.145 254.106Z" fill="url(#paint55_linear_27_13807)"/>
<path style="mix-blend-mode:multiply" opacity="0.3" d="M215.476 254.323L224.497 257.742L227.413 268.497L232.881 259.244L242.647 259.153L236.59 250.388L239.337 239.912L230.266 243.619L222.277 237.167L222.915 248.054L215.476 254.323Z" fill="url(#paint56_linear_27_13807)"/>
<path style="mix-blend-mode:multiply" opacity="0.6" d="M293.925 221.713L299.743 227.607L298.013 236.976L305.777 231.789L313.495 235.236L312.01 226.276L318.092 219.162L309.568 218.762L305.697 210.893L302.124 219.544L293.925 221.713Z" fill="url(#paint57_linear_27_13807)"/>
<path style="mix-blend-mode:multiply" opacity="0.6" d="M287.038 270.991L296.059 274.41L298.976 285.165L304.443 275.912L314.209 275.82L308.153 267.056L310.9 256.579L301.829 260.287L293.84 253.835L294.477 264.722L287.038 270.991Z" fill="url(#paint58_linear_27_13807)"/>
<path style="mix-blend-mode:multiply" opacity="0.6" d="M274.417 189.006L287.796 194.077L292.124 210.031L300.232 196.305L314.718 196.169L305.735 183.171L309.81 167.63L296.355 173.131L284.505 163.559L285.451 179.708L274.417 189.006Z" fill="url(#paint59_linear_27_13807)"/>
<path style="mix-blend-mode:multiply" opacity="0.4" d="M245.633 234.059L258.839 234.75L267.253 247.56L270.395 233.208L283.063 229.01L271.42 220.109L270.497 205.297L260.285 213.922L247.118 208.842L252.621 222.776L245.633 234.059Z" fill="url(#paint60_linear_27_13807)"/>
<path style="mix-blend-mode:multiply" opacity="0.6" d="M425.182 221.28L417.077 222.205L412.446 230.415L409.892 221.691L401.906 219.584L408.695 213.66L408.624 204.499L415.286 209.427L423.178 205.8L420.389 214.593L425.182 221.28Z" fill="url(#paint61_linear_27_13807)"/>
<path style="mix-blend-mode:multiply" opacity="0.6" d="M405.829 179.721L397.725 180.646L393.094 188.856L390.54 180.133L382.555 178.024L389.342 172.102L389.272 162.94L395.934 167.869L403.825 164.241L401.037 173.034L405.829 179.721Z" fill="url(#paint62_linear_27_13807)"/>
<path d="M327.292 169.601C327.292 169.601 335.837 176.463 331.727 196.806C327.617 217.149 321.144 317.533 308.315 313.613L318.542 317.981L338.267 188.353C338.267 188.353 342.436 173.811 327.292 169.601Z" fill="#FF4A4A"/>
<path d="M392.209 205.003C391.178 204.854 390.221 204.381 389.481 203.655C370.94 208.765 352.268 213.392 333.464 217.535C331.865 229.687 329.816 243.153 327.715 256.152C349.498 248.223 371.245 240.275 393.356 233.247C397.501 231.93 401.654 230.635 405.813 229.363C406.202 218.725 404.233 206.987 392.209 205.003Z" fill="url(#paint63_linear_27_13807)"/>
<path d="M354.29 170.801C384.933 162.085 463.499 161.146 463.499 161.146C465.607 153.685 449.935 150.567 449.935 150.567C449.935 150.567 352.061 165.758 341.795 166.406C331.53 167.055 226.412 121.087 226.412 121.087C215.179 120.069 218.804 125.544 218.804 125.544C230.803 123.567 327.819 168.522 335.255 174.859C342.689 181.195 317.093 317.041 317.093 317.041C321.727 320.711 328.065 318.587 327.85 318.159C327.862 318.175 327.875 318.191 327.889 318.207L397.048 271.468C401.866 268.537 408.013 264.376 411.535 260.351C418.033 252.927 420.015 213.39 417.548 208.06C415.08 202.731 360.479 183.032 349.716 175.121C349.716 175.121 349.474 173.136 354.29 170.801ZM352.622 183.209C363.338 191.5 414.024 204.916 413.797 213C413.539 222.202 412.57 236.789 411.766 245.962C410.883 256.065 396.106 267.074 387.99 273.548C378.117 281.422 367.988 285.556 357.711 292.903C350.941 297.742 344.514 302.686 337.149 306.687C325.575 312.976 326.55 301.548 327.383 293.131C328.49 281.956 329.707 270.828 331.007 259.677C332.999 242.587 335.27 225.528 337.692 208.494C338.25 204.563 338.82 200.634 339.4 196.707C339.722 194.521 341.56 189.369 340.812 187.32C340.959 187.724 341.062 187.944 341.062 187.944C341.062 187.944 341.907 174.917 352.622 183.209Z" fill="#FF4A4A"/>
<path style="mix-blend-mode:multiply" opacity="0.6" d="M346.407 240.594L336.48 245.156L330.176 240.494C329.188 246.974 328.149 253.515 327.105 259.899L329.694 260.582L332.908 271.554L338.732 261.227L348.929 260.064L342.9 251.653L346.407 240.594Z" fill="url(#paint64_linear_27_13807)"/>
<path d="M452.121 161.265C452.121 161.265 462.382 157.526 458.901 179.106C455.42 200.686 443.765 287.678 443.765 287.678C443.765 287.678 442.725 299.135 439.74 301.08L444.066 301.011C444.066 301.011 464.559 162.046 463.349 159.191C462.138 156.337 452.121 161.265 452.121 161.265Z" fill="#FF4A4A"/>
<path style="mix-blend-mode:hard-light" d="M461.817 165.174C461.817 165.174 465.373 158.667 448.116 158.827C430.859 158.988 357.842 164.926 348.883 169.213C341.461 172.767 349.185 176.203 369.359 190.312C369.359 190.312 345.034 173.367 341.133 174.811C337.738 176.067 335.545 203.852 335.545 203.852C335.545 203.852 337.952 175.186 330.085 169.182L286.566 147.521C286.566 147.521 325.426 165.703 340.446 167.772C347.181 168.701 417.312 157.681 447.244 156.401C451.501 156.219 463.628 153.814 461.817 165.174Z" fill="url(#paint65_linear_27_13807)"/>
<path style="mix-blend-mode:hard-light" d="M388.932 275.027C388.932 275.027 408.778 263.498 411.508 257.377C418.038 242.744 415.258 224.244 415.258 224.244C415.258 224.244 413.854 248.015 408.761 257.42C405.211 263.977 388.932 275.027 388.932 275.027Z" fill="url(#paint66_linear_27_13807)"/>
<path style="mix-blend-mode:multiply" opacity="0.6" d="M456.365 181.999L445.515 172.437L443.659 185.336L430.101 190.926L444.216 196.691L447.268 209.226L457.116 200.499L457.649 200.6L460.243 181.533L456.365 181.999Z" fill="url(#paint67_linear_27_13807)"/>
<path style="mix-blend-mode:multiply" opacity="0.6" d="M453.831 229.218L451.998 230.06L445.335 225.132L445.407 234.292L438.619 240.216L446.604 242.325L449.159 251.048L451.404 247.063L453.831 229.218Z" fill="url(#paint68_linear_27_13807)"/>
<path style="mix-blend-mode:multiply" opacity="0.3" d="M217.59 200.8L213.819 185.626L210.707 189.869L207.069 218.98L208.235 218.782L218.88 230.218L219.14 214.625L230.607 207.464L217.59 200.8Z" fill="url(#paint69_linear_27_13807)"/>
<path style="mix-blend-mode:multiply" opacity="0.6" d="M330.077 241.251L323.315 239.019L326.482 249.202L318.913 257.527L327.1 259.899L330.077 241.251Z" fill="url(#paint70_linear_27_13807)"/>
<path opacity="0.4" d="M268.469 121.117L287.773 127.163L310.888 128.944L303.221 132.73L318.239 139.124L292.963 135.367L277.778 137.483L271.422 131.44L248.616 126.419L268.613 126.385L268.469 121.117Z" fill="url(#paint71_linear_27_13807)"/>
<path d="M334.887 141.268L354.19 147.313L377.307 149.095L369.638 152.88L384.657 159.274L359.381 155.518L344.197 157.633L337.84 151.591L315.034 146.57L335.031 146.537L334.887 141.268Z" fill="url(#paint72_linear_27_13807)"/>
<path opacity="0.4" d="M322.358 115.941L336.674 120.424L353.82 121.745L348.133 124.554L359.272 129.296L340.525 126.51L329.262 128.079L324.548 123.598L307.633 119.873L322.464 119.848L322.358 115.941Z" fill="url(#paint73_linear_27_13807)"/>
<path d="M393.8 137.738L408.117 142.222L425.262 143.544L419.574 146.352L430.712 151.093L411.967 148.308L400.704 149.876L395.99 145.395L379.075 141.671L393.907 141.646L393.8 137.738Z" fill="url(#paint74_linear_27_13807)"/>
<path opacity="0.3" d="M391.805 127.656C388.277 126.207 384.657 125.3 381.248 123.981L381.276 125.018L371.347 125.034L382.671 127.528L385.828 130.528L393.367 129.478L397.925 130.154C395.886 129.308 393.837 128.49 391.805 127.656Z" fill="url(#paint75_linear_27_13807)"/>
<path opacity="0.5" d="M267.463 294.216L271.368 295.974L288.729 157.057C288.729 157.057 289.234 148.237 301.909 147.117L288.029 148.473C288.029 148.473 281.857 147.701 281.636 158.874C281.415 170.048 267.463 294.216 267.463 294.216Z" fill="#5B0909"/>
<path d="M266.356 295.753L284.903 153.619C284.903 153.619 285.085 147.976 290.355 147.605C295.624 147.233 412.766 133.549 412.766 133.549L379.129 120.591L263.146 135.45C263.146 135.45 258.969 135.443 258.018 143.049L240.37 284.266L266.356 295.753Z" fill="url(#paint76_linear_27_13807)"/>
<path d="M362.527 138.407C330.402 142.032 294.066 146.184 290.218 146.845C283.096 148.07 283.018 155.183 283.036 156.013L265.584 295.652L267.127 295.845L284.586 156.149L284.59 156.014C284.575 155.745 284.301 149.42 290.49 148.356C294.236 147.713 330.259 143.596 362.259 139.983C362.258 139.446 362.349 138.914 362.527 138.407V138.407Z" fill="#FFC969"/>
<path opacity="0.5" d="M372.941 310.487L368.724 311.23L386.085 172.313C386.085 172.313 387.768 163.64 375.758 159.436L388.877 164.165C388.877 164.165 395.049 164.936 392.513 175.82C389.978 186.704 372.941 310.487 372.941 310.487Z" fill="#5B0909"/>
<path d="M373.632 312.268L390.637 169.941C390.637 169.941 391.847 164.426 386.832 162.77C381.817 161.114 269.71 115.689 269.71 115.689L305.312 112.928L416.195 157.685C416.195 157.685 420.245 158.707 419.295 166.312L401.646 307.529L373.632 312.268Z" fill="url(#paint77_linear_27_13807)"/>
<path d="M372.865 312.159L374.407 312.352L391.859 172.713C392.079 171.912 393.756 164.999 387.153 162.059C380.772 159.218 275.107 117.487 270.665 115.817L270.116 117.25C271.203 117.658 380.181 160.635 386.518 163.456C392.256 166.011 390.434 172.074 390.351 172.331L390.324 172.463L372.865 312.159Z" fill="#E55C00"/>
<path opacity="0.3" d="M289.357 140.935L323.864 137.522L303.654 129.974C303.654 129.974 292.284 133.189 289.357 140.935Z" fill="#5B0909"/>
<path opacity="0.3" d="M268.613 134.493C268.613 134.493 263.673 148.941 285.949 152.498L268.613 134.493Z" fill="#5B0909"/>
<path opacity="0.3" d="M326.366 123.542C316.7 119.629 285.896 118.484 285.896 118.484C285.896 118.484 299.527 112.847 309.266 113.292L329.862 120.888C329.862 120.888 327.389 123.956 326.366 123.542Z" fill="#5B0909"/>
<path opacity="0.3" d="M399.336 157.38L396.768 149.719L359.866 134.677C359.866 134.677 344.289 129.753 336.211 130.213L326.233 125.065C326.233 125.065 314.388 122.427 305.195 130.162L323.863 137.518C323.863 137.518 345.421 143.689 356.905 140.793C358.125 141.119 359.251 142.19 360.459 142.478L399.336 157.38Z" fill="#5B0909"/>
<path d="M436.174 46.7573C420.866 35.6766 395.139 44.6367 384.385 55.211C366.876 72.4257 349.645 100.009 346.309 124.562C350.606 126.626 355.2 128.557 359.683 130.181C365.966 123.274 367.755 112.209 373.161 104.528C379.577 95.2608 387.676 87.2508 397.046 80.9019C403.996 76.2704 410.554 71.4928 419.173 74.5707C425.093 76.684 432.426 86.0551 426.203 91.6726C426.203 91.6726 447.135 54.6917 436.174 46.7573Z" fill="url(#paint78_linear_27_13807)"/>
<path d="M425.945 41.623C426.875 42.014 427.837 42.3866 428.815 42.7582C427.888 42.3113 426.928 41.9319 425.945 41.623V41.623Z" fill="#FFE655"/>
<path d="M444.569 106.029C445.847 96.9128 448.322 87.7843 448.515 78.5996C448.699 69.9043 448.455 57.0656 442.304 50.1733C438.983 46.4507 433.719 44.6328 428.817 42.768C445.351 50.782 433.78 75.1364 424.345 84.2197C405.106 102.737 353.276 97.2497 345.245 126.742L346.872 131.315C348.501 131.86 350.054 132.609 351.493 133.542C359.991 130.146 374.15 133.228 381.987 133.672C400.279 134.709 416.364 130.521 432.199 121.015C440.295 116.155 443.27 115.304 444.569 106.029Z" fill="url(#paint79_linear_27_13807)"/>
<path d="M354.664 113.739L353.74 112.504C354.213 112.159 365.637 103.997 390.272 98.111C415.887 91.9906 430.768 84.4616 436.04 62.2414C437.684 55.3117 436.663 50.0785 433.005 46.688C426.752 40.8936 414.585 41.9322 409.994 43.2954C409.542 43.4297 409.014 43.5699 408.415 43.7294C398.959 46.2387 373.838 52.9036 350.033 110.741L348.592 110.16C372.687 51.6198 398.346 44.8111 408.007 42.2481C408.589 42.0937 409.101 41.9577 409.541 41.8272C414.402 40.3843 427.323 39.3225 434.067 45.572C438.16 49.3664 439.333 55.0937 437.553 62.5956C432.098 85.5848 416.859 93.3378 390.643 99.6008C366.309 105.415 354.778 113.657 354.664 113.739Z" fill="url(#paint80_linear_27_13807)"/>
<g style="mix-blend-mode:hard-light">
<path style="mix-blend-mode:hard-light" d="M429.495 77.9692C427.998 80.2157 426.275 82.3061 424.351 84.2083C421.104 87.3331 416.926 89.773 412.19 91.814C416.296 95.1119 420.347 98.4624 424.537 101.458C430.31 105.587 435.97 110.067 441.482 114.558C443.062 112.663 443.99 110.196 444.575 106.018C445.344 100.536 446.543 95.0497 447.421 89.55C442.324 86.3741 430.433 78.5711 429.495 77.9692Z" fill="url(#paint81_linear_27_13807)"/>
</g>
<path d="M335.026 117.703C326.859 113.03 320.679 103.346 312.562 97.4335C304.405 91.4922 295.839 86.227 288.808 78.883C279.357 69.0097 267.834 56.3412 279.749 43.7064C273.424 42.496 244.984 54.1615 248.163 57.1315L244.21 73.8994C247.665 79.7158 248.5 85.268 254.145 90.4339C261.519 97.1821 271.198 102.033 280.49 105.336C298.402 111.705 318.244 117.793 334.478 125.238C333.786 122.736 333.98 120.077 335.026 117.703V117.703Z" fill="url(#paint82_linear_27_13807)"/>
<path d="M334.186 78.1466C330.258 57.0478 320.881 34.9142 302.158 22.1443C295.424 17.5511 284.671 10.6238 277.473 13.6278C268.199 17.4983 259.997 28.187 253.625 35.5139C246.106 44.1613 238.919 50.705 240.328 62.7929C241.082 69.2665 243.935 77.5802 247.601 82.6694C247.148 75.0243 246.427 65.885 252.518 60.2302C259.371 53.869 273.815 53.8715 282.4 56.4637C296.663 60.7695 307.033 77.0215 314.322 88.8535C317.848 94.578 330.024 122.667 333.376 123.324L338.662 121.856C338.591 121.349 338.521 120.843 338.452 120.337C335.839 106.911 336.808 92.2314 334.186 78.1466Z" fill="url(#paint83_linear_27_13807)"/>
<path d="M302.155 22.1483C302.143 22.1398 302.131 22.1317 302.119 22.1235C298.974 30.1063 290.131 54.8793 288.594 59.1908C295.127 62.9503 300.725 69.0547 305.485 75.4951C311.051 66.0321 317.671 57.24 324.537 48.6167C319.29 38.2085 312.022 28.878 302.155 22.1483Z" fill="url(#paint84_linear_27_13807)"/>
<path d="M327.731 122.305C327.583 122.264 311.27 117.681 275.76 104.071C260.868 98.3633 251.46 91.2297 247.799 82.8679C245.091 76.6858 246.598 72.0517 246.88 71.2942C249.339 52.1678 270.328 53.5258 271.717 53.6388C285.551 52.7805 299.671 63.8271 313.693 86.4674C320.1 96.8842 325.539 107.851 329.943 119.234L328.997 120.532C328.744 119.852 303.464 53.1361 271.764 55.1727L271.635 55.1701C270.781 55.0847 250.697 53.2895 248.411 71.5795L248.359 71.7744C248.342 71.817 246.586 76.2897 249.25 82.3205C251.662 87.7829 258.318 95.7424 276.319 102.642C311.746 116.22 328.241 121.187 328.388 121.229L327.731 122.305Z" fill="url(#paint85_linear_27_13807)"/>
<path d="M275.552 125.688C268.756 132.093 266.74 135.613 272.629 141.736C276.952 146.23 282.629 149.544 287.01 153.886C292.067 130.092 318.914 116.222 338.647 128.939L337.475 119.522C319.087 111.106 290.997 111.133 275.552 125.688Z" fill="url(#paint86_linear_27_13807)"/>
<path d="M287.666 154.482L286.36 152.904C286.452 152.576 295.851 120.884 326.368 123.528L326.238 125.055C296.99 122.522 287.754 154.166 287.666 154.482Z" fill="url(#paint87_linear_27_13807)"/>
<path d="M351.365 121.268L345.986 132.956C349.707 128.827 366.863 134.737 372.404 136.278C382.939 139.208 395.539 145.443 398.691 156.306C402.057 150.004 401.768 139.358 408.389 134.535C400.183 115.966 367.634 115.683 351.365 121.268Z" fill="url(#paint88_linear_27_13807)"/>
<path d="M397.941 156.504C393.27 139.601 361.312 133.851 360.99 133.795L361.255 132.285C362.61 132.521 394.51 138.261 399.44 156.105L397.941 156.504Z" fill="url(#paint89_linear_27_13807)"/>
<path d="M336.201 103.606C336.413 111.847 325.91 125.077 324.894 125.208C327.107 135.648 342.657 134.656 351.603 135.138C359.008 135.538 360.131 135.802 362.597 129.695C364.481 125.028 364.698 122.547 366.138 117.898C356.108 108.344 344.491 112.209 336.201 103.606Z" fill="url(#paint90_linear_27_13807)"/>
<path style="mix-blend-mode:hard-light" d="M364.824 122.662C365.119 121.51 365.421 120.314 365.825 118.933C363.325 117.794 342.684 111.609 334.674 110.413C333.769 112.598 332.691 114.709 331.451 116.727C342.625 118.183 353.908 119.923 364.824 122.662Z" fill="url(#paint91_linear_27_13807)"/>
<path style="mix-blend-mode:hard-light" d="M416.393 189.593L418.224 174.944C409.266 178.317 400.182 181.35 391.049 184.246C390.318 184.478 387.239 209.461 388.08 208.883C396.935 202.789 414.152 191.077 416.393 189.593Z" fill="url(#paint92_linear_27_13807)"/>
<defs>
<radialGradient id="paint0_radial_27_13807" cx="0" cy="0" r="1" gradientUnits="userSpaceOnUse" gradientTransform="translate(175.055 287.304) rotate(-17.2103) scale(139.303 32.4257)">
<stop stop-color="#666666"/>
<stop offset="0.16339" stop-color="#707070" stop-opacity="0.93117"/>
<stop offset="0.40193" stop-color="#8A8A8A" stop-opacity="0.73984"/>
<stop offset="0.68645" stop-color="#B6B6B6" stop-opacity="0.42637"/>
<stop offset="1" stop-color="#F2F2F2" stop-opacity="0"/>
</radialGradient>
<linearGradient id="paint1_linear_27_13807" x1="47.5871" y1="201.968" x2="163.181" y2="282.674" gradientUnits="userSpaceOnUse">
<stop stop-color="#CE2E2E"/>
<stop offset="0.9949" stop-color="#AA1F1F"/>
</linearGradient>
<linearGradient id="paint2_linear_27_13807" x1="41544.3" y1="18158.5" x2="50618.3" y2="46220.6" gradientUnits="userSpaceOnUse">
<stop stop-color="#CE2E2E"/>
<stop offset="0.9949" stop-color="#AA1F1F"/>
</linearGradient>
<linearGradient id="paint3_linear_27_13807" x1="14733.9" y1="782.664" x2="15571.6" y2="-219.099" gradientUnits="userSpaceOnUse">
<stop stop-color="#CE2E2E"/>
<stop offset="0.9949" stop-color="#AA1F1F"/>
</linearGradient>
<linearGradient id="paint4_linear_27_13807" x1="189.213" y1="220.839" x2="252.936" y2="170.474" gradientUnits="userSpaceOnUse">
<stop stop-color="white" stop-opacity="0.2"/>
<stop offset="1" stop-color="white" stop-opacity="0"/>
</linearGradient>
<linearGradient id="paint5_linear_27_13807" x1="12969.5" y1="8858.14" x2="14897.3" y2="8638.46" gradientUnits="userSpaceOnUse">
<stop stop-color="#CE2E2E"/>
<stop offset="0.9949" stop-color="#AA1F1F"/>
</linearGradient>
<linearGradient id="paint6_linear_27_13807" x1="186.137" y1="198.404" x2="204.505" y2="267.764" gradientUnits="userSpaceOnUse">
<stop offset="0.0051" stop-color="#FF4A4A"/>
<stop offset="1" stop-color="#E24747"/>
</linearGradient>
<linearGradient id="paint7_linear_27_13807" x1="11532.3" y1="6374.88" x2="13354" y2="5810.63" gradientUnits="userSpaceOnUse">
<stop stop-color="#CE2E2E"/>
<stop offset="0.9949" stop-color="#AA1F1F"/>
</linearGradient>
<linearGradient id="paint8_linear_27_13807" x1="-991.892" y1="9050.41" x2="-2813.57" y2="9614.67" gradientUnits="userSpaceOnUse">
<stop stop-color="#CE2E2E"/>
<stop offset="0.9949" stop-color="#AA1F1F"/>
</linearGradient>
<linearGradient id="paint9_linear_27_13807" x1="9824.7" y1="559.301" x2="10293.9" y2="52.7149" gradientUnits="userSpaceOnUse">
<stop stop-color="#CE2E2E"/>
<stop offset="0.9949" stop-color="#AA1F1F"/>
</linearGradient>
<linearGradient id="paint10_linear_27_13807" x1="-2843.11" y1="2081.14" x2="-3398.58" y2="1641.79" gradientUnits="userSpaceOnUse">
<stop stop-color="#CE2E2E"/>
<stop offset="0.9949" stop-color="#AA1F1F"/>
</linearGradient>
<linearGradient id="paint11_linear_27_13807" x1="-4556.2" y1="4354.41" x2="-6628.03" y2="3884.48" gradientUnits="userSpaceOnUse">
<stop stop-color="#CE2E2E"/>
<stop offset="0.9949" stop-color="#AA1F1F"/>
</linearGradient>
<linearGradient id="paint12_linear_27_13807" x1="-2754.43" y1="7868.69" x2="-4583.91" y2="8040.98" gradientUnits="userSpaceOnUse">
<stop stop-color="#CE2E2E"/>
<stop offset="0.9949" stop-color="#AA1F1F"/>
</linearGradient>
<linearGradient id="paint13_linear_27_13807" x1="10102.2" y1="-665.291" x2="10571.4" y2="-1171.94" gradientUnits="userSpaceOnUse">
<stop stop-color="#CE2E2E"/>
<stop offset="0.9949" stop-color="#AA1F1F"/>
</linearGradient>
<linearGradient id="paint14_linear_27_13807" x1="8994.6" y1="-1600.98" x2="9463.8" y2="-2107.58" gradientUnits="userSpaceOnUse">
<stop stop-color="#CE2E2E"/>
<stop offset="0.9949" stop-color="#AA1F1F"/>
</linearGradient>
<linearGradient id="paint15_linear_27_13807" x1="22140.9" y1="6898.17" x2="23098.4" y2="9914.33" gradientUnits="userSpaceOnUse">
<stop stop-color="white" stop-opacity="0.2"/>
<stop offset="1" stop-color="white" stop-opacity="0"/>
</linearGradient>
<linearGradient id="paint16_linear_27_13807" x1="7265.17" y1="7589.57" x2="7798.05" y2="7424.51" gradientUnits="userSpaceOnUse">
<stop stop-color="#CE2E2E"/>
<stop offset="0.9949" stop-color="#AA1F1F"/>
</linearGradient>
<linearGradient id="paint17_linear_27_13807" x1="12612.9" y1="9460.05" x2="14373.8" y2="8914.61" gradientUnits="userSpaceOnUse">
<stop stop-color="#CE2E2E"/>
<stop offset="0.9949" stop-color="#AA1F1F"/>
</linearGradient>
<linearGradient id="paint18_linear_27_13807" x1="122.372" y1="208.345" x2="222.454" y2="170.228" gradientUnits="userSpaceOnUse">
<stop offset="0.09694" stop-color="white" stop-opacity="0.39643"/>
<stop offset="0.33674" stop-color="white" stop-opacity="0.6"/>
<stop offset="1" stop-color="white" stop-opacity="0.1"/>
</linearGradient>
<linearGradient id="paint19_linear_27_13807" x1="225.428" y1="209.678" x2="222.297" y2="258.09" gradientUnits="userSpaceOnUse">
<stop offset="0.09694" stop-color="white" stop-opacity="0.1"/>
<stop offset="0.5102" stop-color="white" stop-opacity="0.4"/>
<stop offset="0.9949" stop-color="white" stop-opacity="0.1"/>
</linearGradient>
<linearGradient id="paint20_linear_27_13807" x1="11124.3" y1="3916.31" x2="12061.4" y2="3626.05" gradientUnits="userSpaceOnUse">
<stop stop-color="#CE2E2E"/>
<stop offset="0.9949" stop-color="#AA1F1F"/>
</linearGradient>
<linearGradient id="paint21_linear_27_13807" x1="6535.72" y1="4695.49" x2="6749.55" y2="4629.26" gradientUnits="userSpaceOnUse">
<stop stop-color="#CE2E2E"/>
<stop offset="0.9949" stop-color="#AA1F1F"/>
</linearGradient>
<linearGradient id="paint22_linear_27_13807" x1="7895.88" y1="4917.95" x2="8248.6" y2="4808.69" gradientUnits="userSpaceOnUse">
<stop stop-color="#CE2E2E"/>
<stop offset="0.9949" stop-color="#AA1F1F"/>
</linearGradient>
<linearGradient id="paint23_linear_27_13807" x1="4556.84" y1="9921.61" x2="5102.18" y2="9752.7" gradientUnits="userSpaceOnUse">
<stop stop-color="#CE2E2E"/>
<stop offset="0.9949" stop-color="#AA1F1F"/>
</linearGradient>
<linearGradient id="paint24_linear_27_13807" x1="3563.92" y1="5037.17" x2="3657.02" y2="5008.34" gradientUnits="userSpaceOnUse">
<stop stop-color="#CE2E2E"/>
<stop offset="0.9949" stop-color="#AA1F1F"/>
</linearGradient>
<linearGradient id="paint25_linear_27_13807" x1="7520.88" y1="-572.815" x2="12965.3" y2="-2787.75" gradientUnits="userSpaceOnUse">
<stop stop-color="#CE2E2E"/>
<stop offset="0.9949" stop-color="#AA1F1F"/>
</linearGradient>
<linearGradient id="paint26_linear_27_13807" x1="12916.3" y1="-2404.13" x2="18360.8" y2="-4619.1" gradientUnits="userSpaceOnUse">
<stop stop-color="#CE2E2E"/>
<stop offset="0.9949" stop-color="#AA1F1F"/>
</linearGradient>
<linearGradient id="paint27_linear_27_13807" x1="8973.99" y1="-1889.23" x2="11969" y2="-3107.69" gradientUnits="userSpaceOnUse">
<stop stop-color="#CE2E2E"/>
<stop offset="0.9949" stop-color="#AA1F1F"/>
</linearGradient>
<linearGradient id="paint28_linear_27_13807" x1="13293.3" y1="-3351.47" x2="16288.2" y2="-4569.86" gradientUnits="userSpaceOnUse">
<stop stop-color="#CE2E2E"/>
<stop offset="0.9949" stop-color="#AA1F1F"/>
</linearGradient>
<linearGradient id="paint29_linear_27_13807" x1="6636.98" y1="-1642.75" x2="7670.3" y2="-2063.13" gradientUnits="userSpaceOnUse">
<stop stop-color="#CE2E2E"/>
<stop offset="0.9949" stop-color="#AA1F1F"/>
</linearGradient>
<linearGradient id="paint30_linear_27_13807" x1="134.532" y1="154.927" x2="144.144" y2="307.18" gradientUnits="userSpaceOnUse">
<stop offset="0.05612" stop-color="#B42F1B"/>
<stop offset="0.15816" stop-color="#F17600"/>
<stop offset="0.26531" stop-color="#FFC82A"/>
<stop offset="0.30782" stop-color="#FABD29"/>
<stop offset="0.53973" stop-color="#E18821"/>
<stop offset="0.74067" stop-color="#CE611C"/>
<stop offset="0.90077" stop-color="#C34A18"/>
<stop offset="1" stop-color="#BF4117"/>
</linearGradient>
<linearGradient id="paint31_linear_27_13807" x1="134.123" y1="155.236" x2="213.526" y2="288.394" gradientUnits="userSpaceOnUse">
<stop offset="0.05612" stop-color="#B42F1B"/>
<stop offset="0.15816" stop-color="#F17600"/>
<stop offset="0.28571" stop-color="#FFE655"/>
<stop offset="0.60204" stop-color="#FFAA00"/>
<stop offset="1" stop-color="#CC5712"/>
</linearGradient>
<linearGradient id="paint32_linear_27_13807" x1="134.996" y1="144.452" x2="187.424" y2="67.1523" gradientUnits="userSpaceOnUse">
<stop offset="0.05612" stop-color="#B42F1B"/>
<stop offset="0.32653" stop-color="#F17600"/>
<stop offset="0.64796" stop-color="#F1AB26"/>
<stop offset="0.7376" stop-color="#E08821"/>
<stop offset="0.85175" stop-color="#CE611C"/>
<stop offset="0.94326" stop-color="#C34A18"/>
<stop offset="1" stop-color="#BF4117"/>
</linearGradient>
<linearGradient id="paint33_linear_27_13807" x1="139.986" y1="149.815" x2="201.743" y2="82.0469" gradientUnits="userSpaceOnUse">
<stop offset="0.19898" stop-color="#E96640"/>
<stop offset="0.51016" stop-color="#FFC82A"/>
<stop offset="0.51818" stop-color="#FFC92C"/>
<stop offset="0.6545" stop-color="#FFDE4A"/>
<stop offset="0.73172" stop-color="#FFE655"/>
<stop offset="0.85167" stop-color="#F3BF3F"/>
<stop offset="0.98009" stop-color="#D36A1E"/>
</linearGradient>
<linearGradient id="paint34_linear_27_13807" x1="127.296" y1="118.881" x2="189.263" y2="99.6872" gradientUnits="userSpaceOnUse">
<stop stop-color="#F17600"/>
<stop offset="0.38265" stop-color="#FFC82A"/>
<stop offset="0.3954" stop-color="#FFC92C"/>
<stop offset="0.612" stop-color="#FFDE4A"/>
<stop offset="0.73469" stop-color="#FFE655"/>
<stop offset="1" stop-color="#FFD394"/>
</linearGradient>
<linearGradient id="paint35_linear_27_13807" x1="9075.12" y1="1978.32" x2="12351.5" y2="-1567.03" gradientUnits="userSpaceOnUse">
<stop offset="0.09694" stop-color="white" stop-opacity="0.39643"/>
<stop offset="0.33674" stop-color="white" stop-opacity="0.6"/>
<stop offset="1" stop-color="white" stop-opacity="0.1"/>
</linearGradient>
<linearGradient id="paint36_linear_27_13807" x1="10362.9" y1="1314.2" x2="19449.6" y2="5757.47" gradientUnits="userSpaceOnUse">
<stop offset="0.05612" stop-color="#B42F1B"/>
<stop offset="0.32653" stop-color="#F17600"/>
<stop offset="0.64796" stop-color="#F1AB26"/>
<stop offset="0.7376" stop-color="#E08821"/>
<stop offset="0.85175" stop-color="#CE611C"/>
<stop offset="0.94326" stop-color="#C34A18"/>
<stop offset="1" stop-color="#BF4117"/>
</linearGradient>
<linearGradient id="paint37_linear_27_13807" x1="18.4888" y1="116.445" x2="133.803" y2="150.336" gradientUnits="userSpaceOnUse">
<stop offset="0.12245" stop-color="#F8A116"/>
<stop offset="0.27551" stop-color="#D56F1F"/>
<stop offset="0.42059" stop-color="#EEA526"/>
<stop offset="0.51016" stop-color="#FFC82A"/>
<stop offset="0.51818" stop-color="#FFC92C"/>
<stop offset="0.6545" stop-color="#FFDE4A"/>
<stop offset="0.73172" stop-color="#FFE655"/>
<stop offset="0.85167" stop-color="#F3BF3F"/>
<stop offset="1" stop-color="#D36A1E"/>
</linearGradient>
<linearGradient id="paint38_linear_27_13807" x1="2295.41" y1="-1311.32" x2="9134.22" y2="-590.979" gradientUnits="userSpaceOnUse">
<stop offset="0.09694" stop-color="white" stop-opacity="0.39643"/>
<stop offset="0.33674" stop-color="white" stop-opacity="0.6"/>
<stop offset="1" stop-color="white" stop-opacity="0.1"/>
</linearGradient>
<linearGradient id="paint39_linear_27_13807" x1="9250.84" y1="2875.09" x2="18157.7" y2="116.195" gradientUnits="userSpaceOnUse">
<stop stop-color="#F17600"/>
<stop offset="0.38265" stop-color="#FFC82A"/>
<stop offset="0.3954" stop-color="#FFC92C"/>
<stop offset="0.612" stop-color="#FFDE4A"/>
<stop offset="0.73469" stop-color="#FFE655"/>
<stop offset="1" stop-color="#FFD394"/>
</linearGradient>
<linearGradient id="paint40_linear_27_13807" x1="124.709" y1="155.754" x2="90.6496" y2="199.357" gradientUnits="userSpaceOnUse">
<stop offset="0.05612" stop-color="#B42F1B"/>
<stop offset="0.34694" stop-color="#F17600"/>
<stop offset="0.71429" stop-color="#FFC82A"/>
<stop offset="0.72445" stop-color="#FFC92C"/>
<stop offset="0.8971" stop-color="#FFDE4A"/>
<stop offset="0.9949" stop-color="#FFE655"/>
</linearGradient>
<linearGradient id="paint41_linear_27_13807" x1="8102.65" y1="2433.53" x2="6813.05" y2="4092.34" gradientUnits="userSpaceOnUse">
<stop stop-color="#F17600"/>
<stop offset="0.38265" stop-color="#FFC82A"/>
<stop offset="0.3954" stop-color="#FFC92C"/>
<stop offset="0.612" stop-color="#FFDE4A"/>
<stop offset="0.73469" stop-color="#FFE655"/>
<stop offset="1" stop-color="#FFD394"/>
</linearGradient>
<linearGradient id="paint42_linear_27_13807" x1="14348.2" y1="635.18" x2="18724.5" y2="-720.375" gradientUnits="userSpaceOnUse">
<stop offset="0.05612" stop-color="#B42F1B"/>
<stop offset="0.34694" stop-color="#F17600"/>
<stop offset="0.71429" stop-color="#FFC82A"/>
<stop offset="0.72445" stop-color="#FFC92C"/>
<stop offset="0.8971" stop-color="#FFDE4A"/>
<stop offset="0.9949" stop-color="#FFE655"/>
</linearGradient>
<linearGradient id="paint43_linear_27_13807" x1="10120.1" y1="-26.4684" x2="12019.3" y2="-614.732" gradientUnits="userSpaceOnUse">
<stop stop-color="#F17600"/>
<stop offset="0.38265" stop-color="#FFC82A"/>
<stop offset="0.3954" stop-color="#FFC92C"/>
<stop offset="0.612" stop-color="#FFDE4A"/>
<stop offset="0.73469" stop-color="#FFE655"/>
<stop offset="1" stop-color="#FFD394"/>
</linearGradient>
<linearGradient id="paint44_linear_27_13807" x1="138.844" y1="176.517" x2="136.985" y2="139.631" gradientUnits="userSpaceOnUse">
<stop stop-color="#F89D14"/>
<stop offset="0.03658" stop-color="#E78117"/>
<stop offset="0.08532" stop-color="#D46219"/>
<stop offset="0.13289" stop-color="#C64C1B"/>
<stop offset="0.17836" stop-color="#BE3F1D"/>
<stop offset="0.21939" stop-color="#BB3A1D"/>
<stop offset="0.26302" stop-color="#C0401B"/>
<stop offset="0.32198" stop-color="#CD5116"/>
<stop offset="0.38936" stop-color="#E36D0E"/>
<stop offset="0.43367" stop-color="#F48408"/>
<stop offset="0.65306" stop-color="#FFC82A"/>
<stop offset="0.66544" stop-color="#FFC92C"/>
<stop offset="0.87576" stop-color="#FFDE4A"/>
<stop offset="0.9949" stop-color="#FFE655"/>
</linearGradient>
<linearGradient id="paint45_linear_27_13807" x1="7562.36" y1="-1188.51" x2="7632.72" y2="-923.62" gradientUnits="userSpaceOnUse">
<stop offset="0.09694" stop-color="white" stop-opacity="0.39643"/>
<stop offset="0.33674" stop-color="white" stop-opacity="0.6"/>
<stop offset="1" stop-color="white" stop-opacity="0.1"/>
</linearGradient>
<linearGradient id="paint46_linear_27_13807" x1="-8063.53" y1="6876.26" x2="-3158.62" y2="13526" gradientUnits="userSpaceOnUse">
<stop offset="0.09694" stop-color="white" stop-opacity="0.39643"/>
<stop offset="0.33674" stop-color="white" stop-opacity="0.6"/>
<stop offset="1" stop-color="white" stop-opacity="0.1"/>
</linearGradient>
<radialGradient id="paint47_radial_27_13807" cx="0" cy="0" r="1" gradientUnits="userSpaceOnUse" gradientTransform="translate(320.298 293.296) rotate(7.12372) scale(177.306 41.2717)">
<stop stop-color="#666666"/>
<stop offset="0.16339" stop-color="#707070" stop-opacity="0.93117"/>
<stop offset="0.40193" stop-color="#8A8A8A" stop-opacity="0.73984"/>
<stop offset="0.68645" stop-color="#B6B6B6" stop-opacity="0.42637"/>
<stop offset="1" stop-color="#F2F2F2" stop-opacity="0"/>
</radialGradient>
<linearGradient id="paint48_linear_27_13807" x1="217.228" y1="127.48" x2="308.959" y2="281.703" gradientUnits="userSpaceOnUse">
<stop stop-color="#CE2E2E"/>
<stop offset="0.9949" stop-color="#AA1F1F"/>
</linearGradient>
<linearGradient id="paint49_linear_27_13807" x1="38924.6" y1="42715.9" x2="34730.5" y2="80019.4" gradientUnits="userSpaceOnUse">
<stop stop-color="#CE2E2E"/>
<stop offset="0.9949" stop-color="#AA1F1F"/>
</linearGradient>
<linearGradient id="paint50_linear_27_13807" x1="371.578" y1="223.641" x2="471.895" y2="198.652" gradientUnits="userSpaceOnUse">
<stop stop-color="white" stop-opacity="0.2"/>
<stop offset="1" stop-color="white" stop-opacity="0"/>
</linearGradient>
<linearGradient id="paint51_linear_27_13807" x1="10663.4" y1="16943.5" x2="13014.3" y2="17699.7" gradientUnits="userSpaceOnUse">
<stop stop-color="#CE2E2E"/>
<stop offset="0.9949" stop-color="#AA1F1F"/>
</linearGradient>
<linearGradient id="paint52_linear_27_13807" x1="379.775" y1="196.007" x2="364.7" y2="286.079" gradientUnits="userSpaceOnUse">
<stop offset="0.0051" stop-color="#FF4A4A"/>
<stop offset="1" stop-color="#E24747"/>
</linearGradient>
<linearGradient id="paint53_linear_27_13807" x1="10299" y1="13309.8" x2="12707.5" y2="13610.8" gradientUnits="userSpaceOnUse">
<stop stop-color="#CE2E2E"/>
<stop offset="0.9949" stop-color="#AA1F1F"/>
</linearGradient>
<linearGradient id="paint54_linear_27_13807" x1="-5629.01" y1="9844.13" x2="-8037.6" y2="9543.11" gradientUnits="userSpaceOnUse">
<stop stop-color="#CE2E2E"/>
<stop offset="0.9949" stop-color="#AA1F1F"/>
</linearGradient>
<linearGradient id="paint55_linear_27_13807" x1="11368.6" y1="5669.66" x2="12178.5" y2="5328.23" gradientUnits="userSpaceOnUse">
<stop stop-color="#CE2E2E"/>
<stop offset="0.9949" stop-color="#AA1F1F"/>
</linearGradient>
<linearGradient id="paint56_linear_27_13807" x1="-8108.84" y1="4832.33" x2="-9088.99" y2="4090.69" gradientUnits="userSpaceOnUse">
<stop stop-color="#CE2E2E"/>
<stop offset="0.9949" stop-color="#AA1F1F"/>
</linearGradient>
<linearGradient id="paint57_linear_27_13807" x1="-4120.77" y1="790.745" x2="-4534.55" y2="-10.1159" gradientUnits="userSpaceOnUse">
<stop stop-color="#CE2E2E"/>
<stop offset="0.9949" stop-color="#AA1F1F"/>
</linearGradient>
<linearGradient id="paint58_linear_27_13807" x1="-5104.63" y1="5374.76" x2="-6084.75" y2="4633.14" gradientUnits="userSpaceOnUse">
<stop stop-color="#CE2E2E"/>
<stop offset="0.9949" stop-color="#AA1F1F"/>
</linearGradient>
<linearGradient id="paint59_linear_27_13807" x1="-7299.75" y1="2528.66" x2="-9456.06" y2="897.067" gradientUnits="userSpaceOnUse">
<stop stop-color="#CE2E2E"/>
<stop offset="0.9949" stop-color="#AA1F1F"/>
</linearGradient>
<linearGradient id="paint60_linear_27_13807" x1="-7053.31" y1="7549.26" x2="-9265.37" y2="6789.57" gradientUnits="userSpaceOnUse">
<stop stop-color="#CE2E2E"/>
<stop offset="0.9949" stop-color="#AA1F1F"/>
</linearGradient>
<linearGradient id="paint61_linear_27_13807" x1="12332.7" y1="4395" x2="13142.6" y2="4053.53" gradientUnits="userSpaceOnUse">
<stop stop-color="#CE2E2E"/>
<stop offset="0.9949" stop-color="#AA1F1F"/>
</linearGradient>
<linearGradient id="paint62_linear_27_13807" x1="11539" y1="2728.96" x2="12348.8" y2="2387.52" gradientUnits="userSpaceOnUse">
<stop stop-color="#CE2E2E"/>
<stop offset="0.9949" stop-color="#AA1F1F"/>
</linearGradient>
<linearGradient id="paint63_linear_27_13807" x1="22327.6" y1="19480.5" x2="21856.1" y2="23480.6" gradientUnits="userSpaceOnUse">
<stop stop-color="white" stop-opacity="0.2"/>
<stop offset="1" stop-color="white" stop-opacity="0"/>
</linearGradient>
<linearGradient id="paint64_linear_27_13807" x1="4713.14" y1="12480.5" x2="5417.71" y2="12568.6" gradientUnits="userSpaceOnUse">
<stop stop-color="#CE2E2E"/>
<stop offset="0.9949" stop-color="#AA1F1F"/>
</linearGradient>
<linearGradient id="paint65_linear_27_13807" x1="300.616" y1="174.097" x2="436.675" y2="182.38" gradientUnits="userSpaceOnUse">
<stop offset="0.09694" stop-color="white" stop-opacity="0.39643"/>
<stop offset="0.33674" stop-color="white" stop-opacity="0.6"/>
<stop offset="1" stop-color="white" stop-opacity="0.1"/>
</linearGradient>
<linearGradient id="paint66_linear_27_13807" x1="419.429" y1="229.689" x2="390.407" y2="284.192" gradientUnits="userSpaceOnUse">
<stop offset="0.09694" stop-color="white" stop-opacity="0.1"/>
<stop offset="0.5102" stop-color="white" stop-opacity="0.4"/>
<stop offset="0.9949" stop-color="white" stop-opacity="0.1"/>
</linearGradient>
<linearGradient id="paint67_linear_27_13807" x1="11115.2" y1="10244.5" x2="12354.2" y2="10399.4" gradientUnits="userSpaceOnUse">
<stop stop-color="#CE2E2E"/>
<stop offset="0.9949" stop-color="#AA1F1F"/>
</linearGradient>
<linearGradient id="paint68_linear_27_13807" x1="5385.01" y1="8741.57" x2="5667.74" y2="8776.91" gradientUnits="userSpaceOnUse">
<stop stop-color="#CE2E2E"/>
<stop offset="0.9949" stop-color="#AA1F1F"/>
</linearGradient>
<linearGradient id="paint69_linear_27_13807" x1="349.116" y1="13764.6" x2="1070.16" y2="13854.7" gradientUnits="userSpaceOnUse">
<stop stop-color="#CE2E2E"/>
<stop offset="0.9949" stop-color="#AA1F1F"/>
</linearGradient>
<linearGradient id="paint70_linear_27_13807" x1="1759.33" y1="7579.22" x2="1882.42" y2="7594.61" gradientUnits="userSpaceOnUse">
<stop stop-color="#CE2E2E"/>
<stop offset="0.9949" stop-color="#AA1F1F"/>
</linearGradient>
<linearGradient id="paint71_linear_27_13807" x1="9290.58" y1="3148.43" x2="16766.4" y2="3435.15" gradientUnits="userSpaceOnUse">
<stop stop-color="#CE2E2E"/>
<stop offset="0.9949" stop-color="#AA1F1F"/>
</linearGradient>
<linearGradient id="paint72_linear_27_13807" x1="16508.2" y1="3854.29" x2="23984.1" y2="4141.01" gradientUnits="userSpaceOnUse">
<stop stop-color="#CE2E2E"/>
<stop offset="0.9949" stop-color="#AA1F1F"/>
</linearGradient>
<linearGradient id="paint73_linear_27_13807" x1="11666.2" y1="2383.85" x2="15778.7" y2="2541.57" gradientUnits="userSpaceOnUse">
<stop stop-color="#CE2E2E"/>
<stop offset="0.9949" stop-color="#AA1F1F"/>
</linearGradient>
<linearGradient id="paint74_linear_27_13807" x1="17442.4" y1="2953.38" x2="21554.6" y2="3111.09" gradientUnits="userSpaceOnUse">
<stop stop-color="#CE2E2E"/>
<stop offset="0.9949" stop-color="#AA1F1F"/>
</linearGradient>
<linearGradient id="paint75_linear_27_13807" x1="8826.65" y1="1444.01" x2="10245.5" y2="1498.43" gradientUnits="userSpaceOnUse">
<stop stop-color="#CE2E2E"/>
<stop offset="0.9949" stop-color="#AA1F1F"/>
</linearGradient>
<linearGradient id="paint76_linear_27_13807" x1="342.733" y1="118.522" x2="274.029" y2="300.136" gradientUnits="userSpaceOnUse">
<stop offset="0.05612" stop-color="#B42F1B"/>
<stop offset="0.15816" stop-color="#F17600"/>
<stop offset="0.26531" stop-color="#FFC82A"/>
<stop offset="0.30782" stop-color="#FABD29"/>
<stop offset="0.53973" stop-color="#E18821"/>
<stop offset="0.74067" stop-color="#CE611C"/>
<stop offset="0.90077" stop-color="#C34A18"/>
<stop offset="1" stop-color="#BF4117"/>
</linearGradient>
<linearGradient id="paint77_linear_27_13807" x1="342.093" y1="118.667" x2="364.343" y2="314.738" gradientUnits="userSpaceOnUse">
<stop offset="0.05612" stop-color="#B42F1B"/>
<stop offset="0.15816" stop-color="#F17600"/>
<stop offset="0.28571" stop-color="#FFE655"/>
<stop offset="0.60204" stop-color="#FFAA00"/>
<stop offset="1" stop-color="#CC5712"/>
</linearGradient>
<linearGradient id="paint78_linear_27_13807" x1="348.757" y1="106.619" x2="450.1" y2="44.469" gradientUnits="userSpaceOnUse">
<stop offset="0.05612" stop-color="#B42F1B"/>
<stop offset="0.32653" stop-color="#F17600"/>
<stop offset="0.64796" stop-color="#F1AB26"/>
<stop offset="0.7376" stop-color="#E08821"/>
<stop offset="0.85175" stop-color="#CE611C"/>
<stop offset="0.94326" stop-color="#C34A18"/>
<stop offset="1" stop-color="#BF4117"/>
</linearGradient>
<linearGradient id="paint79_linear_27_13807" x1="351.734" y1="115.456" x2="458.898" y2="69.2534" gradientUnits="userSpaceOnUse">
<stop offset="0.19898" stop-color="#E96640"/>
<stop offset="0.51016" stop-color="#FFC82A"/>
<stop offset="0.51818" stop-color="#FFC92C"/>
<stop offset="0.6545" stop-color="#FFDE4A"/>
<stop offset="0.73172" stop-color="#FFE655"/>
<stop offset="0.85167" stop-color="#F3BF3F"/>
<stop offset="0.98009" stop-color="#D36A1E"/>
</linearGradient>
<linearGradient id="paint80_linear_27_13807" x1="353.245" y1="72.9245" x2="435.178" y2="83.1642" gradientUnits="userSpaceOnUse">
<stop stop-color="#F17600"/>
<stop offset="0.38265" stop-color="#FFC82A"/>
<stop offset="0.3954" stop-color="#FFC92C"/>
<stop offset="0.612" stop-color="#FFDE4A"/>
<stop offset="0.73469" stop-color="#FFE655"/>
<stop offset="1" stop-color="#FFD394"/>
</linearGradient>
<linearGradient id="paint81_linear_27_13807" x1="9755.11" y1="6922.22" x2="15414.3" y2="4528.93" gradientUnits="userSpaceOnUse">
<stop offset="0.09694" stop-color="white" stop-opacity="0.39643"/>
<stop offset="0.33674" stop-color="white" stop-opacity="0.6"/>
<stop offset="1" stop-color="white" stop-opacity="0.1"/>
</linearGradient>
<linearGradient id="paint82_linear_27_13807" x1="11596.9" y1="6827.41" x2="19804.6" y2="16746.1" gradientUnits="userSpaceOnUse">
<stop offset="0.05612" stop-color="#B42F1B"/>
<stop offset="0.32653" stop-color="#F17600"/>
<stop offset="0.64796" stop-color="#F1AB26"/>
<stop offset="0.7376" stop-color="#E08821"/>
<stop offset="0.85175" stop-color="#CE611C"/>
<stop offset="0.94326" stop-color="#C34A18"/>
<stop offset="1" stop-color="#BF4117"/>
</linearGradient>
<linearGradient id="paint83_linear_27_13807" x1="228.336" y1="13.0331" x2="344.294" y2="112.816" gradientUnits="userSpaceOnUse">
<stop offset="0.12245" stop-color="#F8A116"/>
<stop offset="0.27551" stop-color="#D56F1F"/>
<stop offset="0.42059" stop-color="#EEA526"/>
<stop offset="0.51016" stop-color="#FFC82A"/>
<stop offset="0.51818" stop-color="#FFC92C"/>
<stop offset="0.6545" stop-color="#FFDE4A"/>
<stop offset="0.73172" stop-color="#FFE655"/>
<stop offset="0.85167" stop-color="#F3BF3F"/>
<stop offset="1" stop-color="#D36A1E"/>
</linearGradient>
<linearGradient id="paint84_linear_27_13807" x1="3617.77" y1="-448.624" x2="11171.2" y2="3973.51" gradientUnits="userSpaceOnUse">
<stop offset="0.09694" stop-color="white" stop-opacity="0.39643"/>
<stop offset="0.33674" stop-color="white" stop-opacity="0.6"/>
<stop offset="1" stop-color="white" stop-opacity="0.1"/>
</linearGradient>
<linearGradient id="paint85_linear_27_13807" x1="9488.57" y1="8054.38" x2="21265.1" y2="9526.18" gradientUnits="userSpaceOnUse">
<stop stop-color="#F17600"/>
<stop offset="0.38265" stop-color="#FFC82A"/>
<stop offset="0.3954" stop-color="#FFC92C"/>
<stop offset="0.612" stop-color="#FFDE4A"/>
<stop offset="0.73469" stop-color="#FFE655"/>
<stop offset="1" stop-color="#FFD394"/>
</linearGradient>
<linearGradient id="paint86_linear_27_13807" x1="330.906" y1="114.33" x2="268.538" y2="147.034" gradientUnits="userSpaceOnUse">
<stop offset="0.05612" stop-color="#B42F1B"/>
<stop offset="0.34694" stop-color="#F17600"/>
<stop offset="0.71429" stop-color="#FFC82A"/>
<stop offset="0.72445" stop-color="#FFC92C"/>
<stop offset="0.8971" stop-color="#FFDE4A"/>
<stop offset="0.9949" stop-color="#FFE655"/>
</linearGradient>
<linearGradient id="paint87_linear_27_13807" x1="8388.56" y1="6940.11" x2="6022.98" y2="8187.53" gradientUnits="userSpaceOnUse">
<stop stop-color="#F17600"/>
<stop offset="0.38265" stop-color="#FFC82A"/>
<stop offset="0.3954" stop-color="#FFC92C"/>
<stop offset="0.612" stop-color="#FFDE4A"/>
<stop offset="0.73469" stop-color="#FFE655"/>
<stop offset="1" stop-color="#FFD394"/>
</linearGradient>
<linearGradient id="paint88_linear_27_13807" x1="16574.9" y1="8130.09" x2="22361.2" y2="8853.24" gradientUnits="userSpaceOnUse">
<stop offset="0.05612" stop-color="#B42F1B"/>
<stop offset="0.34694" stop-color="#F17600"/>
<stop offset="0.71429" stop-color="#FFC82A"/>
<stop offset="0.72445" stop-color="#FFC92C"/>
<stop offset="0.8971" stop-color="#FFDE4A"/>
<stop offset="0.9949" stop-color="#FFE655"/>
</linearGradient>
<linearGradient id="paint89_linear_27_13807" x1="12018.4" y1="5145.25" x2="14529.5" y2="5459.07" gradientUnits="userSpaceOnUse">
<stop stop-color="#F17600"/>
<stop offset="0.38265" stop-color="#FFC82A"/>
<stop offset="0.3954" stop-color="#FFC92C"/>
<stop offset="0.612" stop-color="#FFDE4A"/>
<stop offset="0.73469" stop-color="#FFE655"/>
<stop offset="1" stop-color="#FFD394"/>
</linearGradient>
<linearGradient id="paint90_linear_27_13807" x1="336.406" y1="145.822" x2="353.595" y2="102.069" gradientUnits="userSpaceOnUse">
<stop stop-color="#F89D14"/>
<stop offset="0.03658" stop-color="#E78117"/>
<stop offset="0.08532" stop-color="#D46219"/>
<stop offset="0.13289" stop-color="#C64C1B"/>
<stop offset="0.17836" stop-color="#BE3F1D"/>
<stop offset="0.21939" stop-color="#BB3A1D"/>
<stop offset="0.26302" stop-color="#C0401B"/>
<stop offset="0.32198" stop-color="#CD5116"/>
<stop offset="0.38936" stop-color="#E36D0E"/>
<stop offset="0.43367" stop-color="#F48408"/>
<stop offset="0.65306" stop-color="#FFC82A"/>
<stop offset="0.66544" stop-color="#FFC92C"/>
<stop offset="0.87576" stop-color="#FFDE4A"/>
<stop offset="0.9949" stop-color="#FFE655"/>
</linearGradient>
<linearGradient id="paint91_linear_27_13807" x1="9661.61" y1="2456.15" x2="9604.28" y2="2800.25" gradientUnits="userSpaceOnUse">
<stop offset="0.09694" stop-color="white" stop-opacity="0.39643"/>
<stop offset="0.33674" stop-color="white" stop-opacity="0.6"/>
<stop offset="1" stop-color="white" stop-opacity="0.1"/>
</linearGradient>
<linearGradient id="paint92_linear_27_13807" x1="-12689.9" y1="3613.85" x2="-10489.1" y2="13898.3" gradientUnits="userSpaceOnUse">
<stop offset="0.09694" stop-color="white" stop-opacity="0.39643"/>
<stop offset="0.33674" stop-color="white" stop-opacity="0.6"/>
<stop offset="1" stop-color="white" stop-opacity="0.1"/>
</linearGradient>
</defs>
</svg>
